<?xml version="1.0" encoding="utf-8"?>
<!-- Generator: Adobe Illustrator 27.5.0, SVG Export Plug-In . SVG Version: 6.00 Build 0)  -->
<svg version="1.1" id="Layer_1" xmlns="http://www.w3.org/2000/svg" xmlns:xlink="http://www.w3.org/1999/xlink" x="0px" y="0px"
	 viewBox="0 0 170 64" style="enable-background:new 0 0 170 64;" xml:space="preserve">
<style type="text/css">
	.st0{enable-background:new    ;}
	.st1{fill:#FFFFFF;}
</style>
<g>
	<g>
		<g class="st0">
			<path d="M67.6,6.5H70l5.1,13.3h-2.5l-1.2-3.5h-5.3l-1.2,3.5h-2.4L67.6,6.5z M66.8,14.5h4.1l-2-5.7h-0.1L66.8,14.5z"/>
			<path d="M76.1,10.2h2v1.3h0.1c0.2-0.2,0.3-0.5,0.5-0.7c0.2-0.2,0.4-0.4,0.6-0.5c0.2-0.1,0.5-0.2,0.8-0.3c0.3-0.1,0.6-0.1,1-0.1
				c0.6,0,1.1,0.1,1.6,0.4c0.5,0.3,0.9,0.7,1.1,1.2c0.4-0.5,0.8-0.9,1.2-1.2c0.5-0.3,1.1-0.4,1.8-0.4c1,0,1.8,0.2,2.4,0.7
				c0.6,0.5,0.8,1.3,0.8,2.5v6.6H88v-5.6c0-0.4,0-0.7,0-1.1c0-0.3-0.1-0.6-0.2-0.8s-0.3-0.4-0.5-0.5c-0.2-0.1-0.6-0.2-1-0.2
				c-0.7,0-1.2,0.2-1.6,0.7s-0.5,1.1-0.5,1.9v5.6h-2.1v-6.2c0-0.7-0.1-1.2-0.4-1.5s-0.7-0.5-1.3-0.5c-0.3,0-0.5,0.1-0.8,0.2
				c-0.3,0.1-0.5,0.3-0.7,0.5c-0.2,0.2-0.3,0.5-0.5,0.8c-0.1,0.3-0.2,0.7-0.2,1.1v5.7h-2.1V10.2z"/>
			<path d="M93.9,16.7c0.1,0.6,0.3,1.1,0.7,1.3c0.4,0.2,0.9,0.4,1.5,0.4c0.2,0,0.4,0,0.7,0c0.3,0,0.5-0.1,0.7-0.2
				c0.2-0.1,0.4-0.2,0.5-0.4c0.1-0.2,0.2-0.4,0.2-0.7c0-0.3-0.1-0.5-0.3-0.7s-0.4-0.3-0.7-0.4c-0.3-0.1-0.6-0.2-1-0.3
				c-0.4-0.1-0.8-0.2-1.1-0.2c-0.4-0.1-0.8-0.2-1.1-0.3c-0.4-0.1-0.7-0.3-1-0.5c-0.3-0.2-0.5-0.5-0.7-0.8c-0.2-0.3-0.3-0.7-0.3-1.2
				c0-0.5,0.1-1,0.4-1.3c0.3-0.4,0.6-0.6,1-0.9c0.4-0.2,0.8-0.4,1.3-0.5c0.5-0.1,0.9-0.1,1.4-0.1c0.5,0,1,0.1,1.4,0.2
				s0.9,0.3,1.2,0.5c0.4,0.2,0.7,0.5,0.9,0.9c0.2,0.4,0.4,0.8,0.5,1.4h-2.2c-0.1-0.5-0.3-0.8-0.7-1c-0.4-0.2-0.8-0.3-1.3-0.3
				c-0.1,0-0.3,0-0.5,0c-0.2,0-0.4,0.1-0.6,0.1s-0.3,0.2-0.5,0.3c-0.1,0.1-0.2,0.3-0.2,0.5c0,0.3,0.1,0.5,0.3,0.6
				c0.2,0.2,0.4,0.3,0.7,0.4s0.6,0.2,1,0.3c0.4,0.1,0.8,0.2,1.2,0.2c0.4,0.1,0.8,0.2,1.1,0.3c0.4,0.1,0.7,0.3,1,0.5
				c0.3,0.2,0.5,0.5,0.7,0.8c0.2,0.3,0.3,0.7,0.3,1.2c0,0.6-0.1,1.1-0.4,1.5s-0.6,0.7-1,1c-0.4,0.2-0.9,0.4-1.4,0.5
				c-0.5,0.1-1,0.2-1.5,0.2c-0.6,0-1.2-0.1-1.7-0.2c-0.5-0.1-1-0.3-1.3-0.6c-0.4-0.3-0.7-0.6-0.9-1c-0.2-0.4-0.3-0.9-0.3-1.5H93.9z"
				/>
			<path d="M101,10.2h1.6V7.3h2.1v2.9h1.9v1.6h-1.9v5.1c0,0.2,0,0.4,0,0.6s0.1,0.3,0.1,0.4c0.1,0.1,0.2,0.2,0.3,0.3
				c0.1,0.1,0.3,0.1,0.6,0.1c0.1,0,0.3,0,0.4,0c0.1,0,0.3,0,0.4-0.1v1.6c-0.2,0-0.5,0-0.7,0.1c-0.2,0-0.5,0-0.7,0
				c-0.6,0-1-0.1-1.3-0.2c-0.3-0.1-0.6-0.3-0.8-0.5c-0.2-0.2-0.3-0.5-0.4-0.8c-0.1-0.3-0.1-0.7-0.1-1.1v-5.7H101V10.2z"/>
			<path d="M109.9,15.5c0,0.4,0.1,0.7,0.2,1.1s0.3,0.7,0.5,0.9s0.5,0.5,0.8,0.6c0.3,0.2,0.7,0.2,1.2,0.2c0.6,0,1.1-0.1,1.5-0.4
				c0.4-0.3,0.7-0.7,0.8-1.2h2c-0.1,0.5-0.3,1-0.6,1.4c-0.3,0.4-0.6,0.8-1,1s-0.8,0.5-1.3,0.6c-0.5,0.1-1,0.2-1.5,0.2
				c-0.8,0-1.4-0.1-2-0.4c-0.6-0.2-1.1-0.6-1.5-1c-0.4-0.4-0.7-1-0.9-1.6c-0.2-0.6-0.3-1.3-0.3-2c0-0.7,0.1-1.3,0.3-1.9
				c0.2-0.6,0.5-1.2,0.9-1.6c0.4-0.5,0.9-0.8,1.5-1.1c0.6-0.3,1.2-0.4,1.9-0.4c0.8,0,1.4,0.2,2,0.5c0.6,0.3,1.1,0.7,1.5,1.3
				c0.4,0.5,0.7,1.1,0.9,1.8s0.2,1.4,0.1,2.1H109.9z M114.8,14.1c0-0.3-0.1-0.7-0.2-1c-0.1-0.3-0.3-0.6-0.5-0.8
				c-0.2-0.2-0.5-0.4-0.7-0.6c-0.3-0.1-0.6-0.2-1-0.2c-0.4,0-0.7,0.1-1,0.2c-0.3,0.1-0.6,0.3-0.8,0.5c-0.2,0.2-0.4,0.5-0.5,0.8
				s-0.2,0.6-0.2,1H114.8z"/>
		</g>
		<g class="st0">
			<path d="M118.6,10.2h2V12h0c0.1-0.3,0.2-0.5,0.4-0.8c0.2-0.2,0.4-0.5,0.7-0.7c0.3-0.2,0.5-0.4,0.8-0.5c0.3-0.1,0.6-0.2,0.9-0.2
				c0.2,0,0.4,0,0.5,0c0.1,0,0.2,0,0.3,0v2c-0.1,0-0.3,0-0.5-0.1s-0.3,0-0.5,0c-0.4,0-0.7,0.1-1,0.2c-0.3,0.1-0.6,0.4-0.8,0.6
				s-0.4,0.6-0.6,1c-0.1,0.4-0.2,0.9-0.2,1.4v4.6h-2.1V10.2z"/>
		</g>
		<g class="st0">
			<path d="M133.8,19.8h-2v-1.3h0c-0.3,0.6-0.7,1-1.2,1.2c-0.5,0.2-1.1,0.4-1.7,0.4c-0.8,0-1.4-0.1-2-0.4c-0.6-0.3-1-0.6-1.4-1.1
				c-0.4-0.5-0.7-1-0.8-1.6c-0.2-0.6-0.3-1.3-0.3-2c0-0.9,0.1-1.6,0.4-2.3c0.2-0.6,0.5-1.2,0.9-1.6c0.4-0.4,0.8-0.7,1.3-0.9
				s1-0.3,1.5-0.3c0.3,0,0.6,0,0.9,0.1s0.6,0.1,0.9,0.3c0.3,0.1,0.5,0.3,0.8,0.5s0.4,0.4,0.6,0.7h0V6.5h2.1V19.8z M126.4,15.1
				c0,0.4,0.1,0.8,0.2,1.2c0.1,0.4,0.3,0.8,0.5,1.1c0.2,0.3,0.5,0.6,0.8,0.7s0.7,0.3,1.2,0.3c0.5,0,0.9-0.1,1.2-0.3s0.6-0.5,0.8-0.8
				c0.2-0.3,0.4-0.7,0.5-1.1s0.2-0.8,0.2-1.2c0-1.1-0.2-1.9-0.7-2.5c-0.5-0.6-1.1-0.9-1.9-0.9c-0.5,0-0.9,0.1-1.3,0.3
				c-0.3,0.2-0.6,0.5-0.8,0.8c-0.2,0.3-0.4,0.7-0.5,1.1C126.5,14.2,126.4,14.7,126.4,15.1z"/>
			<path d="M144.2,17.7c0,0.3,0,0.4,0.1,0.6c0.1,0.1,0.2,0.2,0.4,0.2c0.1,0,0.1,0,0.2,0s0.2,0,0.3,0v1.5c-0.1,0-0.2,0.1-0.3,0.1
				c-0.1,0-0.2,0.1-0.4,0.1c-0.1,0-0.2,0-0.4,0.1c-0.1,0-0.2,0-0.3,0c-0.4,0-0.8-0.1-1.1-0.3s-0.5-0.5-0.6-0.9
				c-0.4,0.4-0.9,0.7-1.6,0.9s-1.2,0.3-1.8,0.3c-0.4,0-0.9-0.1-1.2-0.2c-0.4-0.1-0.7-0.3-1.1-0.5c-0.3-0.2-0.5-0.5-0.7-0.9
				c-0.2-0.4-0.3-0.8-0.3-1.2c0-0.6,0.1-1.1,0.3-1.5c0.2-0.4,0.5-0.7,0.9-0.9c0.4-0.2,0.8-0.4,1.2-0.5c0.4-0.1,0.9-0.2,1.3-0.2
				c0.4-0.1,0.8-0.1,1.1-0.2c0.3,0,0.7-0.1,0.9-0.2c0.3-0.1,0.5-0.2,0.6-0.3s0.2-0.4,0.2-0.7c0-0.3-0.1-0.5-0.2-0.7
				c-0.1-0.2-0.3-0.3-0.5-0.4s-0.4-0.2-0.6-0.2c-0.2,0-0.5,0-0.7,0c-0.6,0-1.1,0.1-1.5,0.4c-0.4,0.2-0.6,0.6-0.7,1.2H136
				c0-0.6,0.2-1.1,0.4-1.5c0.3-0.4,0.6-0.7,1-1s0.9-0.4,1.4-0.5c0.5-0.1,1-0.1,1.6-0.1c0.5,0,0.9,0,1.4,0.1c0.5,0.1,0.9,0.3,1.2,0.5
				s0.7,0.5,0.9,0.9c0.2,0.4,0.3,0.8,0.3,1.3V17.7z M142.1,15c-0.3,0.2-0.7,0.3-1.2,0.4c-0.5,0-0.9,0.1-1.4,0.2
				c-0.2,0-0.4,0.1-0.7,0.2s-0.4,0.2-0.6,0.3s-0.3,0.3-0.4,0.5c-0.1,0.2-0.1,0.4-0.1,0.7c0,0.2,0.1,0.4,0.2,0.6
				c0.1,0.2,0.3,0.3,0.5,0.4c0.2,0.1,0.4,0.2,0.6,0.2s0.4,0.1,0.6,0.1c0.2,0,0.5,0,0.8-0.1c0.3-0.1,0.5-0.2,0.8-0.3
				c0.2-0.1,0.4-0.3,0.6-0.6c0.2-0.2,0.2-0.5,0.2-0.8V15z"/>
			<path d="M146.5,10.2h2v1.3h0.1c0.2-0.2,0.3-0.5,0.5-0.7s0.4-0.4,0.6-0.5c0.2-0.1,0.5-0.2,0.8-0.3c0.3-0.1,0.6-0.1,1-0.1
				c0.6,0,1.1,0.1,1.6,0.4s0.9,0.7,1.1,1.2c0.4-0.5,0.8-0.9,1.2-1.2c0.5-0.3,1.1-0.4,1.8-0.4c1,0,1.8,0.2,2.4,0.7
				c0.6,0.5,0.8,1.3,0.8,2.5v6.6h-2.1v-5.6c0-0.4,0-0.7,0-1.1c0-0.3-0.1-0.6-0.2-0.8s-0.3-0.4-0.5-0.5c-0.2-0.1-0.6-0.2-1-0.2
				c-0.7,0-1.2,0.2-1.6,0.7c-0.3,0.4-0.5,1.1-0.5,1.9v5.6h-2.1v-6.2c0-0.7-0.1-1.2-0.4-1.5s-0.7-0.5-1.3-0.5c-0.3,0-0.5,0.1-0.8,0.2
				c-0.3,0.1-0.5,0.3-0.7,0.5s-0.3,0.5-0.5,0.8c-0.1,0.3-0.2,0.7-0.2,1.1v5.7h-2.1V10.2z"/>
		</g>
	</g>
	<g>
		<g class="st0">
			<path d="M62.4,25.1H68c1,0,1.9,0.2,2.6,0.5c0.7,0.3,1.4,0.8,1.8,1.4c0.5,0.6,0.8,1.3,1.1,2.1c0.2,0.8,0.3,1.7,0.3,2.6
				c0,0.9-0.1,1.8-0.3,2.6c-0.2,0.8-0.6,1.5-1.1,2.1c-0.5,0.6-1.1,1.1-1.8,1.4c-0.7,0.3-1.6,0.5-2.6,0.5h-5.5V25.1z M64.8,36.5h2.3
				c0.9,0,1.6-0.1,2.2-0.4c0.6-0.2,1-0.6,1.4-1c0.3-0.4,0.6-0.9,0.7-1.5c0.1-0.6,0.2-1.2,0.2-1.9c0-0.7-0.1-1.3-0.2-1.9
				c-0.1-0.6-0.3-1.1-0.7-1.5c-0.3-0.4-0.8-0.8-1.4-1S68,27,67.1,27h-2.3V36.5z"/>
			<path d="M83.7,36.3c0,0.3,0,0.4,0.1,0.6C83.8,37,84,37,84.2,37c0.1,0,0.1,0,0.2,0s0.2,0,0.3,0v1.5c-0.1,0-0.2,0.1-0.3,0.1
				c-0.1,0-0.2,0.1-0.4,0.1c-0.1,0-0.2,0-0.4,0.1c-0.1,0-0.2,0-0.3,0c-0.4,0-0.8-0.1-1.1-0.3c-0.3-0.2-0.5-0.5-0.6-0.9
				c-0.4,0.4-0.9,0.7-1.6,0.9c-0.6,0.2-1.2,0.3-1.8,0.3c-0.4,0-0.9-0.1-1.2-0.2c-0.4-0.1-0.7-0.3-1.1-0.5s-0.5-0.5-0.7-0.9
				c-0.2-0.4-0.3-0.8-0.3-1.2c0-0.6,0.1-1.1,0.3-1.5c0.2-0.4,0.5-0.7,0.9-0.9c0.4-0.2,0.8-0.4,1.2-0.5c0.4-0.1,0.9-0.2,1.3-0.2
				c0.4-0.1,0.8-0.1,1.1-0.2c0.3,0,0.7-0.1,0.9-0.2s0.5-0.2,0.6-0.3s0.2-0.4,0.2-0.7c0-0.3-0.1-0.5-0.2-0.7s-0.3-0.3-0.5-0.4
				c-0.2-0.1-0.4-0.2-0.6-0.2c-0.2,0-0.5,0-0.7,0c-0.6,0-1.1,0.1-1.5,0.4c-0.4,0.2-0.6,0.6-0.7,1.2h-2.1c0-0.6,0.2-1.1,0.4-1.5
				c0.3-0.4,0.6-0.7,1-1s0.9-0.4,1.4-0.5c0.5-0.1,1-0.1,1.6-0.1c0.5,0,0.9,0,1.4,0.1s0.9,0.3,1.2,0.5s0.7,0.5,0.9,0.9
				c0.2,0.4,0.3,0.8,0.3,1.3V36.3z M81.5,33.6c-0.3,0.2-0.7,0.3-1.2,0.4c-0.5,0-0.9,0.1-1.4,0.2c-0.2,0-0.4,0.1-0.7,0.2
				s-0.4,0.2-0.6,0.3s-0.3,0.3-0.4,0.5c-0.1,0.2-0.1,0.4-0.1,0.7c0,0.2,0.1,0.4,0.2,0.6c0.1,0.2,0.3,0.3,0.5,0.4
				c0.2,0.1,0.4,0.2,0.6,0.2c0.2,0,0.4,0.1,0.6,0.1c0.2,0,0.5,0,0.8-0.1c0.3-0.1,0.5-0.2,0.8-0.3c0.2-0.1,0.4-0.3,0.6-0.6
				c0.2-0.2,0.2-0.5,0.2-0.8V33.6z"/>
			<path d="M85.9,28.8h2v1.4l0,0c0.3-0.5,0.7-1,1.3-1.3c0.5-0.3,1.1-0.5,1.7-0.5c1.1,0,1.9,0.3,2.5,0.8c0.6,0.5,0.9,1.4,0.9,2.5v6.6
				h-2.1v-6.1c0-0.8-0.2-1.3-0.5-1.6s-0.8-0.5-1.4-0.5c-0.4,0-0.7,0.1-1,0.2c-0.3,0.1-0.5,0.3-0.7,0.5c-0.2,0.2-0.4,0.5-0.5,0.8
				s-0.2,0.6-0.2,1v5.7h-2.1V28.8z"/>
			<path d="M103.1,32c-0.1-0.6-0.3-1-0.7-1.3c-0.4-0.3-0.9-0.5-1.5-0.5c-0.3,0-0.6,0-0.9,0.1c-0.3,0.1-0.6,0.3-0.9,0.5
				c-0.3,0.3-0.5,0.6-0.7,1.1s-0.3,1-0.3,1.8c0,0.4,0,0.8,0.1,1.2c0.1,0.4,0.2,0.8,0.4,1.1c0.2,0.3,0.5,0.6,0.8,0.8
				c0.3,0.2,0.7,0.3,1.2,0.3c0.6,0,1.1-0.2,1.5-0.6s0.7-0.9,0.8-1.6h2.1c-0.2,1.3-0.7,2.2-1.4,2.9c-0.8,0.7-1.7,1-3,1
				c-0.8,0-1.4-0.1-2-0.4s-1.1-0.6-1.5-1c-0.4-0.4-0.7-1-0.9-1.6c-0.2-0.6-0.3-1.3-0.3-2c0-0.7,0.1-1.4,0.3-2
				c0.2-0.6,0.5-1.2,0.9-1.6c0.4-0.5,0.9-0.8,1.5-1.1c0.6-0.3,1.3-0.4,2.1-0.4c0.6,0,1.1,0.1,1.6,0.2s0.9,0.4,1.3,0.6
				c0.4,0.3,0.7,0.6,1,1.1c0.2,0.4,0.4,1,0.4,1.5H103.1z"/>
			<path d="M108.6,34.2c0,0.4,0.1,0.7,0.2,1.1s0.3,0.7,0.5,0.9s0.5,0.5,0.8,0.6c0.3,0.2,0.7,0.2,1.2,0.2c0.6,0,1.1-0.1,1.5-0.4
				c0.4-0.3,0.7-0.7,0.8-1.2h2c-0.1,0.5-0.3,1-0.6,1.4c-0.3,0.4-0.6,0.8-1,1c-0.4,0.3-0.8,0.5-1.3,0.6c-0.5,0.1-1,0.2-1.5,0.2
				c-0.8,0-1.4-0.1-2-0.4c-0.6-0.2-1.1-0.6-1.5-1c-0.4-0.4-0.7-1-0.9-1.6c-0.2-0.6-0.3-1.3-0.3-2c0-0.7,0.1-1.3,0.3-1.9
				c0.2-0.6,0.5-1.2,0.9-1.6c0.4-0.5,0.9-0.8,1.5-1.1c0.6-0.3,1.2-0.4,1.9-0.4c0.8,0,1.4,0.2,2,0.5s1.1,0.7,1.5,1.3s0.7,1.1,0.9,1.8
				c0.2,0.7,0.2,1.4,0.1,2.1H108.6z M113.6,32.8c0-0.3-0.1-0.7-0.2-1c-0.1-0.3-0.3-0.6-0.5-0.8s-0.5-0.4-0.7-0.6
				c-0.3-0.1-0.6-0.2-1-0.2c-0.4,0-0.7,0.1-1,0.2c-0.3,0.1-0.6,0.3-0.8,0.5c-0.2,0.2-0.4,0.5-0.5,0.8c-0.1,0.3-0.2,0.6-0.2,1H113.6z
				"/>
			<path d="M122.8,25.1h9.6v2h-7.2v3.5h6.7v1.9h-6.7v3.9h7.4v2h-9.7V25.1z"/>
			<path d="M133.3,28.8h2.3l2.4,7.4h0l2.3-7.4h2.2l-3.4,9.6h-2.4L133.3,28.8z"/>
			<path d="M145.6,34.2c0,0.4,0.1,0.7,0.2,1.1s0.3,0.7,0.5,0.9s0.5,0.5,0.8,0.6c0.3,0.2,0.7,0.2,1.2,0.2c0.6,0,1.1-0.1,1.5-0.4
				c0.4-0.3,0.7-0.7,0.8-1.2h2c-0.1,0.5-0.3,1-0.6,1.4c-0.3,0.4-0.6,0.8-1,1s-0.8,0.5-1.3,0.6c-0.5,0.1-1,0.2-1.5,0.2
				c-0.8,0-1.4-0.1-2-0.4c-0.6-0.2-1.1-0.6-1.5-1c-0.4-0.4-0.7-1-0.9-1.6c-0.2-0.6-0.3-1.3-0.3-2c0-0.7,0.1-1.3,0.3-1.9
				c0.2-0.6,0.5-1.2,0.9-1.6c0.4-0.5,0.9-0.8,1.5-1.1c0.6-0.3,1.2-0.4,1.9-0.4c0.8,0,1.4,0.2,2,0.5c0.6,0.3,1.1,0.7,1.5,1.3
				c0.4,0.5,0.7,1.1,0.9,1.8s0.2,1.4,0.1,2.1H145.6z M150.5,32.8c0-0.3-0.1-0.7-0.2-1c-0.1-0.3-0.3-0.6-0.5-0.8
				c-0.2-0.2-0.5-0.4-0.7-0.6c-0.3-0.1-0.6-0.2-1-0.2c-0.4,0-0.7,0.1-1,0.2c-0.3,0.1-0.6,0.3-0.8,0.5c-0.2,0.2-0.4,0.5-0.5,0.8
				s-0.2,0.6-0.2,1H150.5z"/>
			<path d="M154.3,28.8h2v1.4l0,0c0.3-0.5,0.7-1,1.3-1.3c0.5-0.3,1.1-0.5,1.7-0.5c1.1,0,1.9,0.3,2.5,0.8c0.6,0.5,0.9,1.4,0.9,2.5
				v6.6h-2.1v-6.1c0-0.8-0.2-1.3-0.5-1.6s-0.8-0.5-1.4-0.5c-0.4,0-0.7,0.1-1,0.2c-0.3,0.1-0.5,0.3-0.7,0.5c-0.2,0.2-0.4,0.5-0.5,0.8
				s-0.2,0.6-0.2,1v5.7h-2.1V28.8z"/>
			<path d="M164,28.8h1.6v-2.9h2.1v2.9h1.9v1.6h-1.9v5.1c0,0.2,0,0.4,0,0.6s0.1,0.3,0.1,0.4c0.1,0.1,0.2,0.2,0.3,0.3
				c0.1,0.1,0.3,0.1,0.6,0.1c0.1,0,0.3,0,0.4,0c0.1,0,0.3,0,0.4-0.1v1.6c-0.2,0-0.5,0-0.7,0.1c-0.2,0-0.5,0-0.7,0
				c-0.6,0-1-0.1-1.4-0.2s-0.6-0.3-0.8-0.5c-0.2-0.2-0.3-0.5-0.4-0.8c-0.1-0.3-0.1-0.7-0.1-1.1v-5.7H164V28.8z"/>
		</g>
	</g>
</g>
<g>
	<polygon points="51,38.5 39,57.2 0,57.2 0,6.2 51,6.2 	"/>
	<path class="st1" d="M37,28.5c0-1.3-1.5-1.6-2.7-1.6c-1.4,0-2.8,0.5-3,2.1v2.1c0.5-0.2,1-0.3,1.5-0.4C34.9,30.2,37,30,37,28.5
		 M25.3,38.2c-3.9,0-6-2.8-6.1-6.4c-0.5,0.2-0.9,0.3-1.4,0.4c-2.1,0.5-4,0.8-4,2.4s1.8,1.9,3.1,1.9c1.1,0,2.2-0.2,2.8-0.9
		c0.2,0.5,0.5,0.9,0.8,1.3c0.1,0.1,0.3,0.3,0.4,0.4c-1,0.8-2.4,1.1-3.8,1.1c-2.6,0-5.3-1-5.3-3.9c0-2.5,2.1-3.1,4-3.5
		c2-0.5,4.1-0.7,4.1-2.2c0-1.3-1.5-1.6-2.7-1.6c-1.4,0-2.8,0.5-3,2.1h-2.1c0.2-3,2.4-3.9,5.1-3.9c1.5,0,3,0.5,3.9,1.5
		c1-1,2.4-1.5,4.1-1.5c1.3,0,2.4,0.3,3.2,0.9v3c-0.7-1.3-1.9-2-3.2-2c-2.2,0-3.9,1.7-3.9,4.7s1.8,4.7,3.9,4.7s3.9-1.7,3.9-4.7v-11
		h2.2v4.9c0.9-0.4,1.9-0.6,3-0.6c2.2,0,4.6,1.1,4.6,3.5s-2.1,3-4.1,3.5c-1.9,0.4-3.6,0.7-4,2l0,0C30.3,36.5,28.4,38.2,25.3,38.2
		 M34.2,38.2c-1.5,0-3-0.3-4-1.2c0.1-0.1,0.2-0.2,0.3-0.3c0.3-0.4,0.6-0.9,0.9-1.3c0.5,0.8,1.8,1,2.8,1c1.7,0,3.2-0.6,3.3-2.5h2.1
		C39.4,37.1,36.9,38.2,34.2,38.2"/>
</g>
</svg>
