<?xml version="1.0" encoding="utf-8"?>
<!-- Generator: Adobe Illustrator 25.1.0, SVG Export Plug-In . SVG Version: 6.00 Build 0)  -->
<svg version="1.0" xmlns="http://www.w3.org/2000/svg" xmlns:xlink="http://www.w3.org/1999/xlink" x="0px" y="0px"
	 viewBox="0 0 1355.4 1080" style="enable-background:new 0 0 1355.4 1080;" xml:space="preserve">
<style type="text/css">
	.st0{display:none;}
	.st1{display:inline;opacity:8.000000e-02;fill:#010101;}
	.st2{display:inline;opacity:8.000180e-02;}
	.st3{display:inline;fill:#F176AE;}
	.st4{display:inline;fill:#ED1B6F;}
	.st5{display:inline;fill:#E188B9;}
	.st6{display:inline;fill:#F9CBDF;stroke:#010101;stroke-width:1.3937;stroke-miterlimit:10;}
	.st7{display:inline;fill:#010101;}
	.st8{display:inline;}
	.st9{fill:none;stroke:#ED1B6F;stroke-width:1.3937;stroke-miterlimit:10;}
	.st10{fill:#FCE3EE;stroke:#010101;stroke-miterlimit:10;}
	.st11{fill:#F176AE;stroke:#010101;stroke-miterlimit:10;}
	.st12{fill:#FFFFFF;}
	.st13{fill:none;stroke:#010101;stroke-miterlimit:10;}
	.st14{fill:#F78D23;}
	.st15{fill:#F15822;}
	.st16{fill:#F9A355;}
	.st17{fill:#010101;}
	.st18{fill:#FFEBC9;stroke:#010101;stroke-miterlimit:10;}
	.st19{fill:none;stroke:#ED1B6F;stroke-miterlimit:10;}
	.st20{fill:#F176AE;}
	.st21{fill:#ED1B6F;}
	.st22{fill:none;stroke:#010101;stroke-width:0.9795;stroke-miterlimit:10;}
	.st23{fill:none;stroke:#010101;stroke-width:0.9655;stroke-miterlimit:10;}
	.st24{opacity:8.000000e-02;fill:#010101;}
	.st25{fill:#387DC1;}
	.st26{fill:#DBE1EA;}
	.st27{fill:none;stroke:#010101;}
	.st28{fill:#44C6E9;}
	.st29{fill:#B6E4FA;}
	.st30{opacity:0.1;fill:#010101;}
</style>
<g id="Layer_1" class="st0">
	<polygon class="st1" points="375.9,1034.5 452.2,1012.4 649.7,1070.1 927.5,994.1 717,935.9 893.8,884.8 521.1,782.7 313.7,842.6 
		3.1,932.4 	"/>
	<g class="st2">
		<g>
			<defs>
				<rect id="SVGID_1_" x="4.4" y="783.3" width="890.7" height="251.7"/>
			</defs>
			<clipPath id="SVGID_2_">
				<use xlink:href="#SVGID_1_"  style="overflow:visible;"/>
			</clipPath>
		</g>
	</g>
	<polygon class="st3" points="4.4,21.5 42.2,11.1 405.9,109 405.9,1026.3 368.3,1036.8 4.4,939.3 	"/>
	<polygon class="st4" points="368.6,119.8 405.9,109 405.9,1026.3 368.3,1036.8 	"/>
	<polygon class="st5" points="4.4,21.5 42.2,11.1 405.9,109 368.6,119.8 	"/>
	<polygon class="st6" points="18.5,49.3 97.7,69.4 97.7,108.6 274.5,156.5 275.4,117.3 353.8,137.6 353.8,1012.4 18.5,922.8 	"/>
	<path class="st7" d="M369.7,1038.5L3.1,940.3V19.7L369.7,118V1038.5z M5.8,938.2l361.3,96.8V119.9L5.8,23.1V938.2z"/>
	<path class="st7" d="M355.2,1014.5L17.3,923.9V46.6l81.6,21.9v39.2l174.5,46.8v-39.2l81.6,21.9v877.3H355.2z M19.7,921.9
		l332.6,89.2v-872l-76.3-20.5v39.2L96.2,109.7V70.5L19.9,50v872H19.7z"/>
	<polygon class="st7" points="369.4,1038.4 368.6,1035.7 404.7,1025.5 404.7,109.7 42,12.5 4.2,22.4 3.7,19.7 42.2,9.7 42.4,9.9 
		407.3,107.5 407.3,1027.4 	"/>
	<polygon class="st7" points="405.7,107.8 367.6,117.8 368.2,120.3 406.4,110.4 	"/>
	<path class="st7" d="M190.9,920.9c-2.3,0-4.8-0.3-7.2-1.1c-17.1-4.6-30.9-24.2-30.9-43.6c0-10.1,3.9-18.9,10.4-24
		c5.8-4.4,13.4-5.8,21.2-3.7c17.1,4.6,30.9,24.2,30.9,43.6c0,10.1-3.9,18.9-10.4,24C201,919.3,196.1,920.9,190.9,920.9 M177.3,850.2
		c-4.6,0-8.8,1.4-12.4,4.1c-6,4.6-9.4,12.5-9.4,21.9c0,18.4,13.1,36.9,29,41.2c7.1,1.9,13.8,0.7,18.9-3.2c6-4.6,9.4-12.6,9.4-21.9
		c0-18.4-13.1-36.9-29-41.2C181.6,850.6,179.4,850.2,177.3,850.2"/>
	<g class="st8">
		<g>
			
				<ellipse transform="matrix(0.7587 -0.6515 0.6515 0.7587 -138.3482 189.2409)" class="st9" cx="186.2" cy="281.4" rx="12.9" ry="17.5"/>
			<g>
				<path class="st9" d="M214.5,273.2c5.3,5.3,8.7,12.5,8.7,19.4c0,6.9-3.4,12-8.7,14.1"/>
				<path class="st9" d="M229.6,270.8c7.5,7.5,12.3,17.7,12.3,27.6c0,9.8-4.9,17-12.3,20"/>
				<path class="st9" d="M245.1,266.6c10.3,10.4,17,24.4,17,38c0,13.5-6.7,23.5-17,27.6"/>
			</g>
			<g>
				<path class="st9" d="M158,255.9c-5.3,2.1-8.7,7.2-8.7,14.1c0,6.9,3.4,14.1,8.7,19.4"/>
				<path class="st9" d="M142.9,244.3c-7.5,3-12.3,10.2-12.3,20c0,9.8,4.9,20,12.3,27.6"/>
				<path class="st9" d="M127.4,230.6c-10.3,4.1-17,14-17,27.6c0,13.5,6.7,27.6,17,38"/>
			</g>
		</g>
	</g>
	<g class="st8">
		<polygon class="st10" points="324.7,653.2 41,577.2 41,355.5 324.7,431.6 		"/>
		<polygon class="st11" points="149,545.2 149,457.1 216.7,519.3 		"/>
	</g>
	<g class="st8">
		<path class="st12" d="M264,720.2L108.4,676c-10.5-3-19.2-14.6-19.2-25.8l0,0c0-11.2,8.6-17.9,19.2-14.9L264,679.6
			c10.5,3,19.2,14.6,19.2,25.8v0C283.1,716.5,274.5,723.2,264,720.2z"/>
		<path class="st13" d="M264,720.2L108.4,676c-10.5-3-19.2-14.6-19.2-25.8l0,0c0-11.2,8.6-17.9,19.2-14.9L264,679.6
			c10.5,3,19.2,14.6,19.2,25.8v0C283.1,716.5,274.5,723.2,264,720.2z"/>
	</g>
	<g class="st8">
		<polygon class="st14" points="714.7,476.5 315.4,367.1 315.4,711.2 714.8,820.2 		"/>
		<polygon class="st15" points="727.9,472.7 714.7,476.5 714.8,820.2 727.7,816.8 		"/>
		<polygon class="st16" points="727.9,472.7 714.7,476.5 315.4,367.1 330,363.1 		"/>
		<polygon class="st17" points="716.1,821.7 716.1,476.4 315.3,366.6 315.3,675.1 316.8,675.1 316.8,368.6 714.6,477.4 714.6,819.7 
			395.8,732.5 395.4,733.9 		"/>
		<polygon class="st17" points="727.8,818.2 729.2,818.2 729.2,471.9 329.4,362.4 329,363.8 727.8,473 		"/>
		<polygon class="st17" points="329.8,362.6 330.2,364.1 315.7,368 315.3,366.6 		"/>
		<polygon class="st17" points="727.9,472.4 728.3,473.8 714.8,477.5 714.4,476.1 		"/>
		<polygon class="st17" points="728.1,816.6 728.5,818 715.6,821.5 715.2,820.1 		"/>
		<polygon class="st18" points="470.4,578.9 356.2,544 356.2,429.8 470.4,464.7 		"/>
		<g>
			<g>
				
					<ellipse transform="matrix(0.7587 -0.6515 0.6515 0.7587 -245.8928 474.0731)" class="st19" cx="516.9" cy="568.9" rx="5.1" ry="6.9"/>
				<g>
					<path class="st19" d="M528,565.7c2.1,2.1,3.4,4.9,3.4,7.6c0,2.7-1.4,4.7-3.4,5.5"/>
					<path class="st19" d="M534,564.8c2.9,3,4.9,7,4.9,10.8c0,3.9-1.9,6.7-4.9,7.9"/>
					<path class="st19" d="M540.1,563.1c4,4.1,6.7,9.6,6.7,14.9c0,5.3-2.6,9.2-6.7,10.8"/>
				</g>
				<g>
					<path class="st19" d="M505.8,558.9c-2.1,0.8-3.4,2.8-3.4,5.5c0,2.7,1.4,5.5,3.4,7.6"/>
					<path class="st19" d="M499.8,554.3c-2.9,1.2-4.9,4-4.9,7.9c0,3.9,1.9,7.9,4.9,10.8"/>
					<path class="st19" d="M493.7,548.9c-4,1.6-6.7,5.5-6.7,10.8c0,5.3,2.6,10.8,6.7,14.9"/>
				</g>
			</g>
		</g>
		<path class="st20" d="M659.5,568.5c0,6.9,5.1,16.1,12.2,18c6.9,1.9,12.2-4.5,12.2-11.5c0-6.9-5.8-14.9-12.7-16.8
			C664.2,556.4,659.5,561.5,659.5,568.5"/>
		<path class="st21" d="M669.4,557.8l6-1.9c0,0,11.5,2.6,13.1,10.9c1.6,8.4-0.1,15.6-2.9,16.8c-2.8,1.1-5.8,1.4-5.8,1.4
			s6.6-6.9,4.1-13.6c-2.6-6.7-5.7-11.2-8.5-12.2C672.6,558.4,669.4,557.8,669.4,557.8"/>
		<path class="st20" d="M617.1,557.6c0,6.9,5.1,16.1,12.2,18c6.9,1.9,12.2-4.5,12.2-11.5c0-7-5.8-14.9-12.7-16.8
			C621.7,545.4,617.1,550.5,617.1,557.6"/>
		<path class="st21" d="M626.4,546.3l6-1.9c0,0,10.5,2.8,13.1,11c2.7,8.7-0.1,15.6-2.9,16.8c-2.8,1.1-5.7,2.8-5.7,2.8
			s6.5-8.2,4-14.9c-2.6-6.7-5.7-11.2-8.5-12.2C629.6,546.8,626.4,546.3,626.4,546.3"/>
		<polygon class="st17" points="488.7,524.7 488.3,526.3 602.1,556.8 602.5,555.2 		"/>
		<polygon class="st17" points="488.7,501.1 488.3,502.7 602.1,533.2 602.5,531.6 		"/>
		<path class="st17" d="M631.9,576.9c-1,0-2-0.1-3-0.4c-7.1-1.9-12.8-10.2-12.8-18.3c0-4.4,1.6-8,4.5-10.2c2.5-1.9,5.6-2.4,8.8-1.6
			c7.2,1.9,12.9,10.2,12.9,18.3c0,4.4-1.6,8-4.5,10.2C636,576.2,634,576.9,631.9,576.9 M626.3,547.6c-1.8,0-3.5,0.6-4.9,1.7
			c-2.5,1.9-3.8,5-3.8,8.8c0,7.5,5.3,15,11.6,16.8c2.8,0.8,5.4,0.3,7.4-1.2c2.5-1.9,3.8-5,3.8-8.8c0-7.5-5.3-15-11.6-16.7
			C628,547.7,627.2,547.6,626.3,547.6"/>
		<path class="st17" d="M635.7,576.1l-0.4-1.6l4.6-1.2c3.9-1.1,6.5-5.2,6.5-10.2c0-7.5-5.3-15-11.6-16.8c-1.9-0.6-3.8-0.4-5.5,0.2
			l-5.1,1.5l-0.4-1.6l5.1-1.5c1.9-0.8,4.1-0.8,6.4-0.2c7.2,1.9,12.9,10.2,12.9,18.3c0,5.9-3,10.5-7.7,11.8L635.7,576.1z"/>
		<polygon class="st17" points="622.1,559.4 621.7,561 634.9,564.6 635.4,562.9 		"/>
		<rect x="670.1" y="566" class="st17" width="1.7" height="13"/>
		<path class="st17" d="M674.3,587.7c-1,0-2-0.1-3-0.4c-7.2-1.9-12.9-10.2-12.9-18.3c0-4.4,1.6-8,4.5-10.2c2.5-1.9,5.6-2.4,8.8-1.6
			c7.2,1.9,12.8,10.2,12.8,18.3c0,4.4-1.6,8-4.5,10.2C678.5,587.1,676.5,587.7,674.3,587.7 M668.8,558.5c-1.8,0-3.5,0.6-4.9,1.7
			c-2.5,1.9-3.8,5-3.8,8.8c0,7.5,5.3,15,11.6,16.8c2.8,0.8,5.4,0.3,7.4-1.2c2.5-1.9,3.8-5,3.8-8.8c0-7.5-5.3-15-11.6-16.8
			C670.5,558.6,669.6,558.5,668.8,558.5"/>
		<path class="st17" d="M678.2,587l-0.4-1.6l4.6-1.2c3.9-1.1,6.5-5.1,6.5-10.2c0-7.5-5.3-15-11.6-16.8c-1.9-0.5-3.8-0.4-5.5,0.2
			l-5.1,1.4l-0.4-1.6l5.1-1.4c1.9-0.8,4.1-0.8,6.4-0.2c7.2,1.9,12.9,10.2,12.9,18.3c0,5.9-3,10.5-7.7,11.8L678.2,587z"/>
		
			<rect x="670.1" y="565.9" transform="matrix(0.2576 -0.9662 0.9662 0.2576 -55.3354 1073.4598)" class="st17" width="1.7" height="13.7"/>
		<polygon class="st14" points="317.4,467.7 258.6,550.8 319.7,533.5 		"/>
		<polyline class="st22" points="316,467.5 258.6,550.8 316.8,533.2 		"/>
		<polyline class="st13" points="316.1,672.7 316.1,711.4 397.1,733.4 		"/>
		<path class="st15" d="M640.6,754.3l-252.2-71.7c-17.1-4.9-31.1-23.6-31.1-41.8v0c0-18.1,14-29,31.1-24.1l252.2,71.7
			c17.1,4.9,31.1,23.6,31.1,41.8v0C671.7,748.3,657.7,759.2,640.6,754.3z"/>
		<g>
			<path class="st12" d="M641.2,738.6L389,666.9c-17.1-4.9-31.1-23.6-31.1-41.8v0c0-18.1,14-29,31.1-24.1l252.2,71.7
				c17.1,4.9,31.1,23.6,31.1,41.8v0C672.3,732.6,658.3,743.4,641.2,738.6z"/>
			<path class="st23" d="M628.3,740.9l-238.7-74c-17.1-4.9-31.1-23.6-31.1-41.8l-11.6,6.5c0-11,7.6-22.7,15.5-27.7
				c0.7-0.4,10.6-2.5,11.4-2.8c4.6-1.6,10-1.7,15.8-0.1l252.2,71.7c17.1,4.9,31.1,23.6,31.1,41.8v0c0,12-6.2,20.8-15.3,24
				c-1.1,0.4-14.5,3.9-15.6,4.1C638.1,743.3,632.7,742.1,628.3,740.9z"/>
			<path class="st12" d="M630.2,741.4l-252.2-71.7c-17.1-4.9-31.1-23.6-31.1-41.8v0c0-18.1,14-29,31.1-24.1l252.2,71.7
				c17.1,4.9,31.1,23.6,31.1,41.8v0C661.3,735.4,647.3,746.3,630.2,741.4z"/>
			<path class="st23" d="M630.2,741.4l-252.2-71.7c-17.1-4.9-31.1-23.6-31.1-41.8v0c0-18.1,14-29,31.1-24.1l252.2,71.7
				c17.1,4.9,31.1,23.6,31.1,41.8v0C661.3,735.4,647.3,746.3,630.2,741.4z"/>
		</g>
		<polygon class="st24" points="661.3,717.3 660.3,725.2 658.5,730 656,734.1 652.4,737.8 646.7,741 655.8,739 662,736.4 
			667.1,731.9 669.7,728 672.3,720.6 672.9,713 		"/>
	</g>
</g>
<g id="Layer_2">
	<path class="st24" d="M824.9,759.4L129.4,940.3l385.6,100.2l204.4-53.2l203.2,52.8c19.1,5,46.8,5.8,62,1.8l231.7-60.2
		c15.2-3.9,12-11.2-7-16.1L1006,912.8l204.4-53.2L824.9,759.4z"/>
	<polygon class="st12" points="354.2,333.3 354.2,678.3 358.3,691.5 365.8,699.4 374.1,703.4 910.1,847.1 913.9,848 927.4,845.4 
		934.9,840.9 938.5,833.6 939,483.5 933.1,467.8 925.8,461.3 917.9,458 379.1,313.9 371.2,312.3 358.3,318.1 	"/>
	<polygon class="st25" points="355.7,372.9 929.1,525.1 929.1,614.9 355.7,462.4 	"/>
	<polygon class="st26" points="929.9,482.9 937.6,478.1 939,488.5 938.9,827.8 936.3,838 930.6,842.5 926.4,847.1 920.6,847.1 
		927.4,841.2 929.9,834.3 930.2,826.7 	"/>
	<polygon class="st12" points="355.7,326.2 364.4,319.8 373.3,313.3 386.9,312.3 390.1,317.8 925.9,460.5 934.6,469.3 939.1,481.2 
		929.9,482.9 922.7,469 915.4,463 906.4,459.7 371.8,318.5 368.2,319.1 	"/>
	<g>
		<path class="st27" d="M910.1,847.1l-536-143.6c-11-2.9-19.8-14.2-19.8-25.2v-345c0-11,8.9-17.5,19.8-14.5l536,143.6
			c11,2.9,19.8,14.2,19.8,25.2v345C929.9,843.5,921,850,910.1,847.1z"/>
		<line class="st27" x1="354.2" y1="371.8" x2="929.9" y2="526.1"/>
		<line class="st27" x1="354.2" y1="462.1" x2="929.9" y2="616.3"/>
		<polygon class="st27" points="641.9,614.9 399.4,549.9 399.4,521.9 641.9,586.9 		"/>
		
			<ellipse transform="matrix(0.883 -0.4694 0.4694 0.883 -259.1745 478.3689)" class="st27" cx="829.9" cy="759" rx="23.4" ry="30.9"/>
		
			<ellipse transform="matrix(0.883 -0.4694 0.4694 0.883 -259.466 495.0252)" class="st27" cx="863.2" cy="767.9" rx="23.4" ry="30.9"/>
	</g>
	<g>
		<path class="st27" d="M350.5,323.9c12.8-7.2,21.7-12.1,32.7-9.1l536,143.6c11,2.9,19.8,14.2,19.8,25.2v345
			c0,13.4-6.6,17.7-23.9,19.3"/>
		<path class="st27" d="M939,522.1"/>
		<path class="st27" d="M363.3,367.8"/>
		<path class="st27" d="M939,612.3"/>
		<path class="st27" d="M363.3,458"/>
	</g>
	<polygon class="st24" points="549.8,365.8 677.6,399.6 677.6,786.2 549.8,750.5 	"/>
	<polygon class="st28" points="549.6,112.9 172.3,10.5 133.1,21.3 133.1,940.2 512,1041.7 551.2,1030.9 	"/>
	<polygon class="st25" points="549.8,113.1 510.6,123.5 510.6,1042.3 549.8,1031.5 	"/>
	<polygon class="st29" points="495.5,1022.3 146.3,927.6 146.3,46.2 495.5,136.8 	"/>
	<path class="st30" d="M503.7,282.1l-7.7,23.4l-1,101l-0.4,13.3v29.1c-14.9-4-26.9-19.3-26.9-34.1c0,0,0,0,0,0
		c-1.5,13.1-12.9,20.5-26.7,16.8c-14.9-4-26.9-19.3-26.9-34.1c0-0.4,0-0.8,0.1-1.2l-0.2-0.1c-0.5,14.3-12.3,22.8-26.9,18.8
		c-14.2-3.8-25.8-18-26.8-32.2c-0.9,13.9-12.5,21.9-26.8,18.1c-14.6-3.9-26.5-18.8-26.9-33.4c-1.9,12.5-13.1,19.6-26.6,15.9
		c-14.9-4-26.9-19.3-26.9-34.1c0-0.1,0-0.2,0-0.3l-0.7-0.2c-0.6,14.2-12.4,22.5-26.9,18.6c-14.9-4-26.9-19.3-26.9-34.1l10.9,2.9
		l-4.8-1.4l-6.1-1.5v-90.4L503.7,282.1z"/>
	<path class="st30" d="M511,302.5l-15.1,3l-1.5,143.4c0,0,17.2,5.7,16.6-12.8C510.7,426.3,511,302.5,511,302.5z"/>
	<path class="st28" d="M418,478.5c0,9.7,7.3,22.5,17,25.1s17-6.3,17-16.1s-8.1-20.8-17.8-23.4C424.4,461.5,418,468.8,418,478.5z"/>
	<path class="st25" d="M431.7,463.6l8.4-2.7c0,0,16.2,3.5,18.3,15.4c2.1,11.9-0.2,21.9-4.1,23.4s-8.1,2.1-8.1,2.1s9.3-9.7,5.8-19
		c-3.6-9.4-8-15.7-11.9-17.1C436.1,464.3,431.7,463.6,431.7,463.6z"/>
	<path class="st28" d="M358.6,463.2c0,9.7,7.3,22.5,17,25.1c9.7,2.6,17-6.3,17-16.1s-8.1-20.8-17.8-23.4S358.6,453.5,358.6,463.2z"
		/>
	<path class="st25" d="M371.6,447.5l8.4-2.7c0,0,14.7,3.9,18.3,15.4c3.8,12.2-0.2,21.9-4.1,23.4c-4,1.6-7.9,3.9-7.9,3.9
		s9.1-11.4,5.6-20.8s-8-15.7-11.9-17.1C376,448.2,371.6,447.5,371.6,447.5z"/>
	<path class="st28" d="M418.2,572.3c0,9.7,7.3,22.5,17,25.1c9.7,2.6,17-6.3,17-16.1c0-9.7-8.1-20.8-17.8-23.4
		S418.2,562.6,418.2,572.3z"/>
	<path class="st25" d="M432,557.4l8.4-2.7c0,0,16.2,3.5,18.3,15.4c2.1,11.9-0.2,21.9-4.1,23.4c-4,1.6-8.1,2.1-8.1,2.1
		s9.3-9.7,5.8-19c-3.6-9.4-8-15.7-11.9-17.1S432,557.4,432,557.4z"/>
	<path class="st28" d="M358.9,557c0,9.7,7.3,22.5,17,25.1c9.7,2.6,17-6.3,17-16.1c0-9.7-8.1-20.8-17.8-23.4
		C365.3,540,358.9,547.2,358.9,557z"/>
	<path class="st25" d="M371.8,541.3l8.4-2.7c0,0,14.7,3.9,18.3,15.4c3.8,12.2-0.2,21.9-4.1,23.4c-4,1.6-7.9,3.9-7.9,3.9
		s9.1-11.4,5.6-20.8c-3.6-9.4-8-15.7-11.9-17.1S371.8,541.3,371.8,541.3z"/>
	<path class="st28" d="M418.2,666.2c0,9.7,7.3,22.5,17,25.1c9.7,2.6,17-6.3,17-16.1c0-9.7-8.1-20.8-17.8-23.4
		C424.7,649.2,418.2,656.4,418.2,666.2z"/>
	<path class="st25" d="M432,651.3l8.4-2.7c0,0,16.2,3.5,18.3,15.4c2.1,11.9-0.2,21.9-4.1,23.4c-4,1.6-8.1,2.1-8.1,2.1
		s9.3-9.7,5.8-19c-3.6-9.4-8-15.7-11.9-17.1C436.4,651.9,432,651.3,432,651.3z"/>
	<path class="st28" d="M358.9,650.8c0,9.7,7.3,22.5,17,25.1c9.7,2.6,17-6.3,17-16.1s-8.1-20.8-17.8-23.4
		C365.3,633.8,358.9,641.1,358.9,650.8z"/>
	<path class="st25" d="M371.8,635.1l8.4-2.7c0,0,14.7,3.9,18.3,15.4c3.8,12.2-0.2,21.9-4.1,23.4c-4,1.6-7.9,3.9-7.9,3.9
		s9.1-11.4,5.6-20.8c-3.6-9.4-8-15.7-11.9-17.1S371.8,635.1,371.8,635.1z"/>
	<path class="st25" d="M390.2,873.6L216,826.4c0,0-17-5.6-25.6,6.8s-0.7,29.6,3.4,34.6c4.1,5,11.5,11.4,23.8,14.9
		c12.3,3.5,211.6,56.8,211.6,56.8s15.5,6.2,25.4-9.9c9.9-16-7.6-34.1-7.6-34.1s-9-9.9-18.9-11.7C418.2,882,390.2,873.6,390.2,873.6z
		"/>
	<path class="st25" d="M379,877.3L204.7,830c0,0-17-5.6-25.6,6.8c-8.5,12.4-0.7,29.6,3.4,34.6c4.1,5,11.5,11.4,23.8,14.9
		c12.3,3.5,211.6,56.8,211.6,56.8s15.5,6.2,25.4-9.9c9.9-16-7.6-34.1-7.6-34.1s-9-9.9-18.9-11.7C406.9,885.7,379,877.3,379,877.3z"
		/>
	<path class="st14" d="M381.3,338.9l-53.5-14.7c0,0,0.8,25.4,9.9,32.8c9,7.3,17.2,13.2,27.1,11.1c10-2.1,17.1-13,17.1-14.2
		C381.8,352.5,381.3,338.9,381.3,338.9z"/>
	<path class="st12" d="M327.1,324.3l-53.5-14.7c0,0,0.8,25.4,9.9,32.8c9,7.3,17.2,13.2,27.1,11.1c10-2.1,17.1-13,17.1-14.2
		C327.6,337.9,327.1,324.3,327.1,324.3z"/>
	<path class="st12" d="M219.9,295.7l-53.5-14.7c0,0,0.8,25.4,9.9,32.8c9,7.3,17.2,13.2,27.1,11.1s17.1-13,17.1-14.2
		C220.5,309.2,219.9,295.7,219.9,295.7z"/>
	<path class="st12" d="M112.5,265.3L59,250.5c0,0,0.8,25.4,9.9,32.8S86,296.5,96,294.4s17.1-13,17.1-14.2
		C113,278.9,112.5,265.3,112.5,265.3z"/>
	<polygon class="st15" points="510.6,123.5 510.6,302.3 381.3,338.9 	"/>
	<polygon class="st14" points="510.6,123.5 454.1,108.3 327.7,324.2 381.3,338.9 	"/>
	<polygon class="st12" points="454.9,108.5 401.1,94.6 273.6,309.6 327.7,324.2 	"/>
	<polygon class="st12" points="345.7,80.6 292,66.7 164.4,281.6 218.6,296.2 	"/>
	<polygon class="st12" points="240,51.9 186.3,38 58.7,253 112.9,267.6 	"/>
	<path class="st14" d="M273.7,310.1l-53.5-14.7c0,0,0.8,25.4,9.9,32.8c9,7.3,17.2,13.2,27.1,11.1c10-2.1,17.1-13,17.1-14.2
		C274.2,323.6,273.7,310.1,273.7,310.1z"/>
	<polygon class="st14" points="401.1,94.6 347.6,79.5 220.3,295.4 271.8,310.1 	"/>
	<path class="st14" d="M165.4,281.4l-53.5-14.7c0,0,0.8,25.4,9.9,32.8c9,7.3,17.2,13.2,27.1,11.1c10-2.1,17.1-13,17.1-14.2
		S165.4,281.4,165.4,281.4z"/>
	<polygon class="st14" points="292.9,65.9 239.4,50.8 112.1,266.7 165.4,281.4 	"/>
	<path class="st14" d="M57.6,252.5L4,237.8c0,0,0.8,25.4,9.9,32.8c9,7.3,17.2,13.2,27.1,11.1s17.1-13,17.1-14.2
		C58.1,266.1,57.6,252.5,57.6,252.5z"/>
	<polygon class="st14" points="185.1,37.1 131.5,21.9 4.2,237.9 57.6,252.5 	"/>
	<g>
		<g>
			<polyline class="st13" points="510.6,123.5 510.6,1042.3 131.7,940.8 131.7,304.6 			"/>
			<polyline class="st13" points="146.3,309.4 146.3,928.4 495.5,1022 495.5,305.3 			"/>
			<path class="st13" d="M170.9,32.2"/>
			<polyline class="st13" points="382.9,338.9 5.6,237.3 131.1,21.5 170.9,11.1 549.8,112.7 549.8,1031.5 511.3,1042.6 			"/>
			<path class="st13" d="M-9.7,193.5"/>
			<path class="st13" d="M369.2,295"/>
		</g>
		<path class="st13" d="M327.7,324.4v8.6c0,14.8,12,30.1,26.9,34.1c14.8,4,26.9-4.8,26.9-19.7v-8.5L510,123.5l39.7-10.4"/>
	</g>
	<path class="st13" d="M166.6,280.5v8.6c0,14.8,12,30.1,26.9,34.1c14.8,4,26.9-4.8,26.9-19.7v-8.5"/>
	<path class="st13" d="M112.9,266.3v8.6c0,14.8,12,30.1,26.9,34.1s26.9-4.8,26.9-19.7v-8.5"/>
	<path class="st13" d="M59.2,251.6v8.6c0,14.8,12,30.1,26.9,34.1c14.8,4,26.9-4.8,26.9-19.7v-8.5"/>
	<path class="st13" d="M274,310.1v8.6c0,14.8,12,30.1,26.9,34.1c14.8,4,26.9-4.8,26.9-19.7v-8.5"/>
	<path class="st13" d="M220.3,295.4v8.6c0,14.8,12,30.1,26.9,34.1c14.8,4,26.9-4.8,26.9-19.7V310"/>
	<path class="st13" d="M5.4,237.4v8.6c0,14.8,12,30.1,26.9,34.1s26.9-4.8,26.9-19.7v-8.5"/>
	<line class="st13" x1="131.7" y1="21.9" x2="510.6" y2="123.5"/>
	<line class="st13" x1="59.2" y1="253" x2="186.3" y2="37.2"/>
	<line class="st13" x1="112.9" y1="266.3" x2="240" y2="50.5"/>
	<line class="st13" x1="166.6" y1="281" x2="293.7" y2="65.1"/>
	<line class="st13" x1="220.5" y1="295.3" x2="347.6" y2="79.5"/>
	<line class="st13" x1="274" y1="309.9" x2="401.1" y2="94.1"/>
	<line class="st13" x1="327.7" y1="324.2" x2="454.9" y2="108.3"/>
	<line class="st13" x1="510.6" y1="301.6" x2="381.8" y2="338.9"/>
	<line class="st13" x1="178.8" y1="418.4" x2="338.1" y2="461"/>
	
		<ellipse transform="matrix(0.8998 -0.4363 0.4363 0.8998 -166.7806 210.8225)" class="st13" cx="375.6" cy="468.5" rx="16" ry="21.4"/>
	<path class="st13" d="M368.2,448.5l7.1-2c2.5-0.9,5.3-1.1,8.3-0.3c9.5,2.5,17.2,13.5,17.2,24.6c0,8-4,13.8-9.9,15.4l-6.4,1.8"/>
	<line class="st13" x1="365.5" y1="466.7" x2="384.1" y2="471.7"/>
	<line class="st13" x1="434.2" y1="474.9" x2="434.2" y2="493"/>
	
		<ellipse transform="matrix(0.8998 -0.4363 0.4363 0.8998 -167.4529 238.238)" class="st13" cx="435" cy="483.7" rx="16" ry="21.4"/>
	<path class="st13" d="M427.6,463.6l7.1-2c2.5-0.9,5.3-1.1,8.3-0.3c9.5,2.5,17.2,13.5,17.2,24.6c0,8-4,13.8-9.9,15.4l-6.4,1.8"/>
	<line class="st13" x1="424.8" y1="481.9" x2="443.4" y2="486.8"/>
	<path class="st13" d="M434.1,492.5"/>
	<path class="st13" d="M434.1,474.4"/>
	<line class="st13" x1="178.8" y1="512.2" x2="338.1" y2="554.9"/>
	
		<ellipse transform="matrix(0.8998 -0.4363 0.4363 0.8998 -207.7314 220.227)" class="st13" cx="375.6" cy="562.4" rx="16" ry="21.4"/>
	<path class="st13" d="M368.2,542.3l7.1-2c2.5-0.9,5.3-1.1,8.3-0.3c9.5,2.5,17.2,13.5,17.2,24.6c0,8-4,13.8-9.9,15.4l-6.4,1.8"/>
	<line class="st13" x1="365.5" y1="560.6" x2="384.1" y2="565.5"/>
	<line class="st13" x1="434.2" y1="568.7" x2="434.2" y2="586.8"/>
	
		<ellipse transform="matrix(0.8998 -0.4363 0.4363 0.8998 -208.4037 247.6425)" class="st13" cx="435" cy="577.6" rx="16" ry="21.4"/>
	<path class="st13" d="M427.6,557.5l7.1-2c2.5-0.9,5.3-1.1,8.3-0.3c9.5,2.5,17.2,13.5,17.2,24.6c0,8-4,13.8-9.9,15.4l-6.4,1.8"/>
	<line class="st13" x1="424.8" y1="575.7" x2="443.4" y2="580.7"/>
	<path class="st13" d="M434.1,570.7"/>
	<path class="st13" d="M434.1,552.6"/>
	<line class="st13" x1="178.8" y1="606.1" x2="338.1" y2="648.8"/>
	
		<ellipse transform="matrix(0.8998 -0.4363 0.4363 0.8998 -248.6823 229.6315)" class="st13" cx="375.6" cy="656.2" rx="16" ry="21.4"/>
	<path class="st13" d="M368.2,636.2l7.1-2c2.5-0.9,5.3-1.1,8.3-0.3c9.5,2.5,17.2,13.5,17.2,24.6c0,8-4,13.8-9.9,15.4l-6.4,1.8"/>
	<line class="st13" x1="365.5" y1="654.4" x2="384.1" y2="659.4"/>
	<line class="st13" x1="434.2" y1="662.6" x2="434.2" y2="680.7"/>
	
		<ellipse transform="matrix(0.8998 -0.4363 0.4363 0.8998 -249.3546 257.047)" class="st13" cx="435" cy="671.4" rx="16" ry="21.4"/>
	<path class="st13" d="M427.6,651.3l7.1-2c2.5-0.9,5.3-1.1,8.3-0.3c9.5,2.5,17.2,13.5,17.2,24.6c0,8-4,13.8-9.9,15.4l-6.4,1.8"/>
	<line class="st13" x1="424.8" y1="669.6" x2="443.4" y2="674.6"/>
	<path class="st13" d="M434.1,648.9"/>
	<path class="st13" d="M434.1,630.8"/>
	<path class="st13" d="M434.1,711.5"/>
	<path class="st13" d="M434.1,709"/>
	<path class="st13" d="M183.3,848"/>
	<path class="st13" d="M192.3,829.2c5.6-1.5,16.2-4.8,23.2-2.9l214.8,57.5c15.4,4.1,27.9,20,27.9,35.4v0c0,10.6-5.9,18.2-14.6,20.6
		l-10.7,3.2"/>
	<path class="st13" d="M203.5,885.6l214.8,57.5c15.4,4.1,27.9-5,27.9-20.4v0c0-15.4-12.5-31.2-27.9-35.4l-214.8-57.5
		c-15.4-4.1-27.9,5-27.9,20.4v0C175.6,865.7,188.1,881.5,203.5,885.6z"/>
</g>
</svg>
