<svg width="568" height="256" viewBox="0 0 568 256" fill="none" xmlns="http://www.w3.org/2000/svg">
<g clip-path="url(#clip0_2367_11904)">
<path d="M327.538 202L392 184.197L343.139 171L282 187.907L327.538 202Z" fill="#010101"/>
<path opacity="0.08" d="M245 149.78L430.578 199L572 159.922L390.466 111L245 149.78Z" fill="#010101"/>
<path d="M363.078 52.127L371 50V188.873L363 191L363.078 52.127Z" fill="#F15822"/>
<path d="M371 49.8623L184.688 0L177 2.11281L363.386 52L371 49.8623Z" fill="#F78D23"/>
<path d="M177 2V141.233L362.925 191L363 51.7669L177 2Z" fill="#F78D23"/>
<path d="M182 138.555V8L359 54.8995L358.901 186L182 138.555Z" fill="#B6E4FA"/>
<path d="M298 111.209C298 112.65 299.071 114.548 300.5 114.933C301.929 115.317 303 113.996 303 112.554C303 111.113 301.81 109.479 300.381 109.071C298.952 108.711 298 109.768 298 111.209Z" fill="#44C6E9"/>
<path d="M300 108.424L301.193 108C301.193 108 303.282 108.636 303.787 110.519C304.314 112.508 303.764 114.098 303.213 114.364C302.662 114.629 302.088 115 302.088 115C302.088 115 303.373 113.144 302.869 111.606C302.364 110.068 301.744 109.034 301.193 108.795C300.643 108.557 300 108.424 300 108.424Z" fill="#387DC1"/>
<path d="M306 113.209C306 114.65 307.286 116.548 309 116.933C310.714 117.317 312 115.996 312 114.554C312 113.113 310.571 111.479 308.857 111.071C307.143 110.711 306 111.768 306 113.209Z" fill="#44C6E9"/>
<path d="M308 110.424L309.492 110C309.492 110 312.102 110.636 312.733 112.519C313.393 114.508 312.705 116.098 312.016 116.364C311.328 116.629 310.61 117 310.61 117C310.61 117 312.217 115.144 311.586 113.606C310.955 112.068 310.18 111.034 309.492 110.795C308.803 110.557 308 110.424 308 110.424Z" fill="#387DC1"/>
<path d="M297 123.218C297 124.656 298.286 126.549 300 126.933C301.714 127.316 303 125.998 303 124.56C303 123.123 301.571 121.493 299.857 121.086C298.143 120.678 297 121.781 297 123.218Z" fill="#44C6E9"/>
<path d="M299 121.364L300.492 121C300.492 121 303.102 121.545 303.733 123.159C304.393 124.864 303.705 126.227 303.016 126.455C302.328 126.682 301.61 127 301.61 127C301.61 127 303.217 125.409 302.586 124.091C301.955 122.773 301.18 121.886 300.492 121.682C299.775 121.455 299 121.364 299 121.364Z" fill="#387DC1"/>
<path d="M306 125.583C306 127.262 307.286 129.474 309 129.921C310.714 130.369 312 128.83 312 127.15C312 125.471 310.571 123.567 308.857 123.091C307.143 122.643 306 123.903 306 125.583Z" fill="#44C6E9"/>
<path d="M308 123.364L309.492 123C309.492 123 312.102 123.545 312.733 125.159C313.393 126.864 312.705 128.227 312.016 128.455C311.328 128.682 310.61 129 310.61 129C310.61 129 312.217 127.409 311.586 126.091C310.955 124.773 310.18 123.886 309.492 123.682C308.803 123.477 308 123.364 308 123.364Z" fill="#387DC1"/>
<path d="M306 138.214C306 139.653 307.286 141.549 309 141.933C310.714 142.317 312 140.997 312 139.557C312 138.118 310.571 136.486 308.857 136.078C307.114 135.694 306 136.774 306 138.214Z" fill="#44C6E9"/>
<path d="M308 136.364L309.492 136C309.492 136 312.102 136.545 312.733 138.159C313.393 139.864 312.705 141.227 312.016 141.455C311.328 141.682 310.61 142 310.61 142C310.61 142 312.217 140.409 311.586 139.091C310.955 137.773 310.18 136.886 309.492 136.682C308.803 136.477 308 136.364 308 136.364Z" fill="#387DC1"/>
<path d="M297 136.209C297 137.65 298.286 139.548 300 139.933C301.714 140.317 303 138.996 303 137.554C303 136.113 301.571 134.479 299.857 134.071C298.143 133.711 297 134.768 297 136.209Z" fill="#44C6E9"/>
<path d="M299 133.424L300.492 133C300.492 133 303.102 133.636 303.733 135.519C304.393 137.508 303.705 139.098 303.016 139.364C302.328 139.629 301.61 140 301.61 140C301.61 140 303.217 138.144 302.586 136.606C301.955 135.068 301.18 134.034 300.492 133.795C299.775 133.557 299 133.424 299 133.424Z" fill="#387DC1"/>
<path d="M303.771 153.716L280.001 147.174C280.001 147.174 277.681 146.397 276.52 148.127C275.36 149.856 276.422 152.237 276.989 152.914C277.557 153.591 278.544 154.493 280.248 154.969C281.926 155.446 309.128 162.84 309.128 162.84C309.128 162.84 311.226 163.692 312.583 161.462C313.941 159.231 311.547 156.724 311.547 156.724C311.547 156.724 310.312 155.345 308.955 155.12C307.597 154.894 303.771 153.716 303.771 153.716Z" fill="#387DC1"/>
<path d="M301.771 153.716L278.001 147.174C278.001 147.174 275.681 146.397 274.52 148.127C273.36 149.856 274.422 152.237 274.989 152.914C275.557 153.591 276.544 154.493 278.248 154.969C279.951 155.446 307.128 162.84 307.128 162.84C307.128 162.84 309.226 163.692 310.583 161.462C311.941 159.231 309.547 156.724 309.547 156.724C309.547 156.724 308.312 155.345 306.955 155.12C305.573 154.869 301.771 153.716 301.771 153.716Z" fill="#387DC1"/>
<path d="M319 99L362.927 52L363 87.5005L319 99Z" fill="#387DC1"/>
<path d="M304.075 95.0789L348.312 48L363 51.7955L362.254 52.1725L318.116 98.9497L317.52 99L304 95.3051L304.075 95.0789Z" fill="#44C6E9"/>
<path d="M318.973 98.6746C318.973 98.6746 319.104 102.254 318.79 102.657C318.475 103.06 317.271 105.099 316.8 105.194C316.328 105.289 314.836 106 313.919 106C313.029 106 310.044 105.716 308.892 104.72C307.74 103.724 306.221 103.013 305.514 101.733C304.808 100.476 304.101 98.8168 304.022 97.916C303.943 97.0388 304.101 95 304.101 95L318.973 98.6746Z" fill="#44C6E9"/>
<path d="M290.075 91.0537L334.337 44L349 47.7703L348.254 48.1474L304.141 94.9246L303.545 95L290 91.2799L290.075 91.0537Z" fill="white"/>
<path d="M304.973 94.6746C304.973 94.6746 305.104 98.2543 304.79 98.6573C304.475 99.0603 303.271 101.099 302.8 101.194C302.328 101.289 300.836 102 299.919 102C299.029 102 296.044 101.716 294.892 100.72C293.74 99.7241 292.221 99.0129 291.514 97.7328C290.808 96.4526 290.101 94.8168 290.022 93.9159C289.943 93.0388 290.101 91 290.101 91L304.973 94.6746Z" fill="white"/>
<path d="M261.099 83.1311L305.337 37L320 40.6964L319.279 41.066L275.141 86.9261L274.545 87L261 83.3775L261.099 83.1311Z" fill="white"/>
<path d="M275.973 87.0086C275.973 87.0086 276.104 90.9138 275.79 91.3534C275.475 91.7931 274.271 94.0172 273.8 94.1207C273.328 94.2241 271.836 95 270.919 95C270.029 95 267.044 94.6897 265.892 93.6034C264.74 92.5172 263.221 91.7414 262.514 90.3448C261.808 88.9741 261.101 87.1638 261.022 86.181C260.943 85.2241 261.101 83 261.101 83L275.973 87.0086Z" fill="white"/>
<path d="M233.075 75.1557L277.312 29L292 32.6964L291.254 33.0907L247.116 78.9261L246.545 79L233 75.3775L233.075 75.1557Z" fill="white"/>
<path d="M246.975 79.6746C246.975 79.6746 247.097 83.2543 246.804 83.6573C246.51 84.0603 245.386 86.0991 244.946 86.194C244.506 86.2888 243.114 87 242.258 87C241.427 87 238.641 86.7155 237.566 85.7198C236.491 84.7241 235.073 84.0129 234.414 82.7328C233.754 81.4763 233.094 79.8168 233.021 78.9159C232.947 78.0388 233.094 76 233.094 76L246.975 79.6746Z" fill="white"/>
<path d="M205.073 68.0789L248.586 21L263 24.7703L262.267 25.1725L218.901 71.9497L218.315 72L205 68.3051L205.073 68.0789Z" fill="white"/>
<path d="M218.973 71.6746C218.973 71.6746 219.104 75.2543 218.79 75.6573C218.475 76.0603 217.271 78.0991 216.8 78.194C216.328 78.2888 214.836 79 213.919 79C213.003 79 210.044 78.7155 208.892 77.7198C207.74 76.7241 206.221 76.0129 205.514 74.7328C204.808 73.4763 204.101 71.8168 204.022 70.9159C203.943 70.0388 204.101 68 204.101 68L218.973 71.6746Z" fill="white"/>
<path d="M176.099 60.133L220.318 14L235 17.7192L234.255 18.0887L190.135 63.9261L189.539 64L176 60.3547L176.099 60.133Z" fill="white"/>
<path d="M189.975 64.0086C189.975 64.0086 190.097 67.9138 189.804 68.3534C189.51 68.7931 188.386 71.0172 187.946 71.1207C187.506 71.2241 186.114 72 185.258 72C184.403 72 181.641 71.6897 180.566 70.6034C179.491 69.5172 178.073 68.7414 177.414 67.3448C176.754 65.9741 176.094 64.1638 176.021 63.181C175.947 62.2241 176.094 60 176.094 60L189.975 64.0086Z" fill="white"/>
<path d="M148.073 53.0537L191.561 6L206 9.77033L205.267 10.1474L161.877 56.9246L161.315 57L148 53.2799L148.073 53.0537Z" fill="white"/>
<path d="M161.973 56.6746C161.973 56.6746 162.104 60.2543 161.79 60.6573C161.475 61.0603 160.271 63.0991 159.8 63.194C159.328 63.2888 157.836 64 156.919 64C156.029 64 153.044 63.7155 151.892 62.7198C150.74 61.7241 149.221 61.0129 148.514 59.7328C147.808 58.4763 147.101 56.8168 147.022 55.9159C146.943 55.0388 147.101 53 147.101 53L161.973 56.6746Z" fill="white"/>
<path d="M276.075 87.1311L320.337 41L335 44.6964L334.254 45.066L290.141 90.9261L289.545 91L276 87.3529L276.075 87.1311Z" fill="#44C6E9"/>
<path d="M289.975 91.0086C289.975 91.0086 290.097 94.9138 289.804 95.3534C289.51 95.7931 288.386 98.0172 287.946 98.1207C287.506 98.2241 286.114 99 285.258 99C284.403 99 281.641 98.6897 280.566 97.6034C279.491 96.5172 278.073 95.7414 277.414 94.3448C276.754 92.9741 276.094 91.1638 276.021 90.181C275.947 89.2241 276.094 87 276.094 87L289.975 91.0086Z" fill="#44C6E9"/>
<path d="M247.075 79.1557L291.312 33L306 36.6964L305.254 37.0907L261.116 82.9261L260.52 83L247 79.3775L247.075 79.1557Z" fill="#44C6E9"/>
<path d="M260.975 83.6746C260.975 83.6746 261.097 87.2543 260.804 87.6573C260.51 88.0604 259.386 90.0991 258.946 90.194C258.506 90.2888 257.114 91 256.258 91C255.427 91 252.641 90.7155 251.566 89.7198C250.491 88.7241 249.073 88.0129 248.414 86.7328C247.754 85.4763 247.094 83.8168 247.021 82.916C246.947 82.0388 247.094 80 247.094 80L260.975 83.6746Z" fill="#44C6E9"/>
<path d="M219.075 72.0789L263.337 25L278 28.7703L277.254 29.1725L233.116 75.9246L232.545 76L219 72.3051L219.075 72.0789Z" fill="#44C6E9"/>
<path d="M232.975 76.0086C232.975 76.0086 233.097 79.9138 232.804 80.3534C232.51 80.7931 231.386 83.0172 230.946 83.1207C230.506 83.2241 229.114 84 228.258 84C227.403 84 224.641 83.6896 223.566 82.6034C222.491 81.5172 221.073 80.7414 220.414 79.3448C219.754 77.9483 219.094 76.1638 219.021 75.181C218.947 74.2241 219.094 72 219.094 72L232.975 76.0086Z" fill="#44C6E9"/>
<path d="M190.099 64.133L234.318 18L249 21.7192L248.255 22.0887L204.135 67.9261L203.539 68L190 64.3547L190.099 64.133Z" fill="#44C6E9"/>
<path d="M203.975 68.0086C203.975 68.0086 204.097 71.9138 203.804 72.3535C203.51 72.7931 202.386 75.0172 201.946 75.1207C201.506 75.2241 200.114 76 199.258 76C198.403 76 195.641 75.6897 194.566 74.6034C193.491 73.5172 192.073 72.7414 191.414 71.3448C190.754 69.9741 190.094 68.1638 190.021 67.181C189.947 66.2241 190.094 64 190.094 64L203.975 68.0086Z" fill="#44C6E9"/>
<path d="M162.075 57.0789L206.312 10L221 13.7955L220.254 14.1725L176.116 60.9497L175.545 61L162 57.3051L162.075 57.0789Z" fill="#44C6E9"/>
<path d="M175.975 60.0086C175.975 60.0086 176.097 63.9138 175.804 64.3535C175.51 64.7931 174.386 67.0172 173.946 67.1207C173.506 67.2241 172.114 68 171.258 68C170.403 68 167.641 67.6897 166.566 66.6034C165.491 65.5172 164.073 64.7414 163.414 63.3448C162.754 61.9741 162.094 60.1638 162.021 59.181C161.947 58.2241 162.094 56 162.094 56L175.975 60.0086Z" fill="#44C6E9"/>
<path d="M133.099 49.1557L177.337 3L192 6.6964L191.254 7.09068L147.141 52.9261L146.545 53L133 49.3775L133.099 49.1557Z" fill="#44C6E9"/>
<path d="M146.975 53.0086C146.975 53.0086 147.097 56.9138 146.804 57.3535C146.51 57.7931 145.386 60.0172 144.946 60.1207C144.506 60.2241 143.114 61 142.258 61C141.403 61 138.641 60.6897 137.566 59.6034C136.491 58.5172 135.073 57.7414 134.414 56.3448C133.754 54.9483 133.094 53.1638 133.021 52.181C132.947 51.2241 133.094 49 133.094 49L146.975 53.0086Z" fill="#44C6E9"/>
<path d="M331.445 182.878L334.375 187.577L335.089 188.771C335.089 188.771 335.581 189.914 335.557 189.84C335.532 189.765 335.902 191.356 335.902 191.356L336 193.022L335.754 194.812L335.163 196.453L333.76 198.566L331.889 200.282L329.304 201.749L325.561 203.017L281.419 215V211.022L321.696 200.058L324.872 199.188L327.26 198.467L328.762 197.87L330.067 197.149L331.101 196.254L331.815 195.061L332.036 193.718V191.928L330.953 190.536L326.62 183.202L325.66 181.362L330.953 190.536L331.667 191.729L331.962 192.351V193.47V194.489L331.421 195.782L330.51 196.826L328.762 197.87L326.103 198.84L281.419 211.022V215L239 203.24V199.635L284.423 187.478L286.343 186.856L288.165 185.961L289.617 184.743L290.405 182.978V181.685L289.74 179.771L287.722 176.34L284.546 170.945L280.508 170L284.841 170.224" fill="#F78D23"/>
<path d="M325.129 181L326.742 183.303L331.632 191.591L331.954 193.143L331.781 194.946L330.887 196.423L329.745 197.149L328.38 197.9L326.742 198.651L324.806 199.077L281 210.994V215L327.661 202.281L330.341 201.08L333.071 199.152L334.461 197.349L335.528 195.421L335.901 193.944L336 192.842L335.926 191.19L335.553 189.663L335.082 188.586L331.657 182.577" fill="#F15822"/>
<path d="M228 93L277 107" stroke="#010101" stroke-width="0.237037" stroke-miterlimit="10"/>
<path d="M301.46 114.513C302.655 113.933 302.995 112.164 302.218 110.562C301.441 108.959 299.842 108.13 298.646 108.71C297.451 109.29 297.111 111.059 297.888 112.661C298.665 114.263 300.264 115.092 301.46 114.513Z" stroke="#010101" stroke-width="0.237037" stroke-miterlimit="10"/>
<path d="M299 108.47L300.086 108.142C300.465 107.978 300.894 107.951 301.374 108.087C302.813 108.497 304 110.328 304 112.158C304 113.47 303.394 114.454 302.485 114.699L301.5 115" stroke="#010101" stroke-width="0.237037" stroke-miterlimit="10"/>
<path d="M299 111L301 112" stroke="#010101" stroke-width="0.237037" stroke-miterlimit="10"/>
<path d="M309 113V115" stroke="#010101" stroke-width="0.237037" stroke-miterlimit="10"/>
<path d="M310.389 116.79C311.584 116.21 311.924 114.441 311.147 112.839C310.37 111.237 308.771 110.408 307.575 110.987C306.379 111.567 306.04 113.336 306.817 114.938C307.594 116.541 309.193 117.37 310.389 116.79Z" stroke="#010101" stroke-width="0.237037" stroke-miterlimit="10"/>
<path d="M308 110.47L309.086 110.142C309.465 109.978 309.894 109.951 310.374 110.087C311.813 110.497 313 112.328 313 114.158C313 115.47 312.394 116.454 311.485 116.699L310.5 117" stroke="#010101" stroke-width="0.237037" stroke-miterlimit="10"/>
<path d="M307 114H310" stroke="#010101" stroke-width="0.237037" stroke-miterlimit="10"/>
<path d="M228 106L277 119" stroke="#010101" stroke-width="0.237037" stroke-miterlimit="10"/>
<path d="M301.456 127.213C302.652 126.633 302.991 124.864 302.214 123.262C301.437 121.66 299.838 120.831 298.642 121.41C297.447 121.99 297.107 123.759 297.884 125.361C298.661 126.964 300.26 127.793 301.456 127.213Z" stroke="#010101" stroke-width="0.237037" stroke-miterlimit="10"/>
<path d="M299 121.403L300.086 121.122C300.465 120.981 300.894 120.958 301.374 121.075C302.813 121.426 304 122.995 304 124.564C304 125.689 303.394 126.532 302.485 126.742L301.5 127" stroke="#010101" stroke-width="0.237037" stroke-miterlimit="10"/>
<path d="M299 124L301 125" stroke="#010101" stroke-width="0.237037" stroke-miterlimit="10"/>
<path d="M309 125V128" stroke="#010101" stroke-width="0.237037" stroke-miterlimit="10"/>
<path d="M310.385 129.491C311.58 128.911 311.92 127.143 311.143 125.54C310.366 123.938 308.767 123.109 307.571 123.689C306.375 124.268 306.036 126.037 306.813 127.64C307.59 129.242 309.189 130.071 310.385 129.491Z" stroke="#010101" stroke-width="0.237037" stroke-miterlimit="10"/>
<path d="M308 123.47L309.086 123.142C309.465 122.978 309.894 122.951 310.374 123.087C311.813 123.497 313 125.328 313 127.158C313 128.47 312.394 129.454 311.485 129.699L310.5 130" stroke="#010101" stroke-width="0.237037" stroke-miterlimit="10"/>
<path d="M307 126L310 127" stroke="#010101" stroke-width="0.237037" stroke-miterlimit="10"/>
<path d="M228 119L277 132" stroke="#010101" stroke-width="0.237037" stroke-miterlimit="10"/>
<path d="M301.462 139.936C302.657 139.356 302.997 137.587 302.22 135.985C301.443 134.382 299.844 133.553 298.648 134.133C297.453 134.713 297.113 136.482 297.89 138.084C298.667 139.686 300.266 140.515 301.462 139.936Z" stroke="#010101" stroke-width="0.237037" stroke-miterlimit="10"/>
<path d="M299 134.403L300.086 134.122C300.465 133.981 300.894 133.958 301.374 134.075C302.813 134.426 304 135.995 304 137.564C304 138.689 303.394 139.532 302.485 139.742L301.5 140" stroke="#010101" stroke-width="0.237037" stroke-miterlimit="10"/>
<path d="M299 137L301 138" stroke="#010101" stroke-width="0.237037" stroke-miterlimit="10"/>
<path d="M309 138V141" stroke="#010101" stroke-width="0.237037" stroke-miterlimit="10"/>
<path d="M310.381 142.19C311.576 141.611 311.916 139.842 311.139 138.239C310.362 136.637 308.763 135.808 307.567 136.388C306.372 136.968 306.032 138.736 306.809 140.339C307.586 141.941 309.185 142.77 310.381 142.19Z" stroke="#010101" stroke-width="0.237037" stroke-miterlimit="10"/>
<path d="M308 136.403L309.086 136.122C309.465 135.981 309.894 135.958 310.374 136.075C311.813 136.426 313 137.995 313 139.564C313 140.689 312.394 141.532 311.485 141.742L310.5 142" stroke="#010101" stroke-width="0.237037" stroke-miterlimit="10"/>
<path d="M307 139L310 140" stroke="#010101" stroke-width="0.237037" stroke-miterlimit="10"/>
<path d="M228 139L242 143" stroke="#010101" stroke-width="0.237037" stroke-miterlimit="10"/>
<path d="M177.475 2.1084L363.199 51.8878V191.156L177.475 141.377V66.5215" stroke="#010101" stroke-width="0.237037" stroke-miterlimit="10"/>
<path d="M359.082 87.9761V186.047L181.567 138.475V70.6885" stroke="#010101" stroke-width="0.237037" stroke-miterlimit="10"/>
<path d="M177.326 2.05864L185.139 0L370.863 49.7546V189.023L363.422 191.156" stroke="#010101" stroke-width="0.237037" stroke-miterlimit="10"/>
<path d="M370.714 49.7549L363.273 51.8879" stroke="#010101" stroke-width="0.237037" stroke-miterlimit="10"/>
<path d="M326 198.607L280.999 211L239 199.393L284.001 187" stroke="#010101" stroke-width="0.237037" stroke-miterlimit="10"/>
<path d="M326 202.34L281.381 215L239 202.754V199" stroke="#010101" stroke-width="0.237037" stroke-miterlimit="10"/>
<path d="M331.946 182.821L335.543 188.873L335.568 188.923C335.642 189.072 337.403 192.792 335.146 196.736C333.583 199.489 330.607 201.473 326.316 202.614C326.143 202.664 325.944 202.713 325.771 202.763" stroke="#010101" stroke-width="0.237037" stroke-miterlimit="10"/>
<path d="M325.87 198.745C328.945 197.977 331.004 196.836 331.823 195.422C332.765 193.81 332.046 191.85 331.897 191.553L325.696 181.16" stroke="#010101" stroke-width="0.237037" stroke-miterlimit="10"/>
<path d="M283.929 187.385C287.004 186.616 289.063 185.475 289.881 184.062C290.824 182.449 290.105 180.49 289.956 180.192L283.978 170.098" stroke="#010101" stroke-width="0.237037" stroke-miterlimit="10"/>
<path d="M281 215V211" stroke="#010101" stroke-width="0.237037" stroke-miterlimit="10"/>
<path d="M133 49L319 98" stroke="#010101" stroke-width="0.237037" stroke-miterlimit="10"/>
<path d="M319 98L363 87" stroke="#010101" stroke-width="0.237037" stroke-miterlimit="10"/>
<path d="M304 94.4043V96.6971C304 100.642 307.221 104.71 311.166 105.745C315.136 106.805 318.332 104.463 318.332 100.518V98.2749L363 52" stroke="#010101" stroke-width="0.237037" stroke-miterlimit="10"/>
<path d="M290 91.1896V93.5248C290 97.5425 293.221 101.686 297.166 102.74C301.136 103.82 304.332 101.435 304.332 97.4169V95.1319L349 48" stroke="#010101" stroke-width="0.237037" stroke-miterlimit="10"/>
<path d="M276 87.1896V89.5248C276 93.5425 279.221 97.6856 283.166 98.7403C287.136 99.82 290.332 97.4345 290.332 93.4169V91.1319L335 44" stroke="#010101" stroke-width="0.237037" stroke-miterlimit="10"/>
<path d="M262 83.4043V85.6971C262 89.6417 265.165 93.7095 269.041 94.745C272.942 95.8051 276.083 93.463 276.083 89.5184V87.2749L320 41" stroke="#010101" stroke-width="0.237037" stroke-miterlimit="10"/>
<path d="M247 79.4043V81.6971C247 85.6417 250.221 89.7095 254.166 90.745C258.136 91.8051 261.332 89.463 261.332 85.5184V83.2749L306 37" stroke="#010101" stroke-width="0.237037" stroke-miterlimit="10"/>
<path d="M233 75.4043V77.6971C233 81.6417 236.221 85.7095 240.166 86.745C244.136 87.8051 247.332 85.463 247.332 81.5184V79.2749L292 33" stroke="#010101" stroke-width="0.237037" stroke-miterlimit="10"/>
<path d="M219 71.4043V73.6971C219 77.6417 222.166 81.7095 226.044 82.745C229.947 83.8051 233.089 81.463 233.089 77.5184V75.2749L277 29" stroke="#010101" stroke-width="0.237037" stroke-miterlimit="10"/>
<path d="M204 68.1896V70.5248C204 74.5425 207.221 78.6856 211.166 79.7403C215.136 80.82 218.332 78.4345 218.332 74.4169V72.1319L263 25" stroke="#010101" stroke-width="0.237037" stroke-miterlimit="10"/>
<path d="M190 64.4096V66.7013C190 70.6441 193.22 74.7101 197.163 75.7451C201.131 76.8047 204.326 74.4637 204.326 70.5209V68.2785L249 22" stroke="#010101" stroke-width="0.237037" stroke-miterlimit="10"/>
<path d="M176 60.1896V62.5248C176 66.5425 179.221 70.6856 183.166 71.7403C187.136 72.82 190.332 70.4345 190.332 66.4169V64.1319L235 17" stroke="#010101" stroke-width="0.237037" stroke-miterlimit="10"/>
<path d="M162 56.4043V58.6971C162 62.6417 165.221 66.7095 169.166 67.745C173.136 68.8051 176.332 66.463 176.332 62.5184V60.2749L221 14" stroke="#010101" stroke-width="0.237037" stroke-miterlimit="10"/>
<path d="M148 52.4043V54.6971C148 58.6417 151.165 62.7095 155.041 63.745C158.942 64.8051 162.083 62.463 162.083 58.5184V56.2749L206 10" stroke="#010101" stroke-width="0.237037" stroke-miterlimit="10"/>
<path d="M133 49.1963V51.5319C133 55.5502 136.22 59.694 140.163 60.7488C144.106 61.8036 147.326 59.4429 147.326 55.4246V53.1392L192 6" stroke="#010101" stroke-width="0.237037" stroke-miterlimit="10"/>
<path d="M133 51V48.7561L178 3" stroke="#010101" stroke-width="0.237037" stroke-miterlimit="10"/>
<path d="M277 147.469C277.761 147.271 279.184 146.825 280.141 147.073L309.221 154.925C311.307 155.495 313 157.65 313 159.755C313 161.192 312.19 162.257 311.012 162.579L309.564 163" stroke="#010101" stroke-width="0.237037" stroke-miterlimit="10"/>
<path d="M277.816 154.887L307.184 162.861C309.29 163.44 311 162.157 311 160.019C311 157.88 309.29 155.692 307.184 155.113L277.816 147.139C275.71 146.56 274 147.843 274 149.981C274 152.12 275.71 154.308 277.816 154.887Z" stroke="#010101" stroke-width="0.237037" stroke-miterlimit="10"/>
<path opacity="0.08" d="M394.989 251L453 234.925L409.033 223L354 238.275L394.989 251Z" fill="#010101"/>
<path d="M394.803 143.011L350.582 131L346 132.283V240.087L390.393 252L395 250.742L394.803 143.011Z" fill="#F78D23"/>
<path d="M394.829 143L391 144.184V252L395 250.742L394.829 143Z" fill="#F15822"/>
<path d="M389 250L348 238.832V135L389 145.673V250Z" fill="#B6E4FA"/>
<path opacity="0.1" d="M390 162.545L389.084 165.271L388.96 177.062L388.911 178.61V182C387.153 181.533 385.741 179.74 385.741 178.02C385.568 179.543 384.231 180.428 382.597 179.986C380.839 179.519 379.428 177.726 379.428 176.006C379.428 175.957 379.428 175.908 379.428 175.859H379.403C379.354 177.529 377.967 178.512 376.234 178.07C374.55 177.627 373.188 175.982 373.065 174.311C372.966 175.932 371.579 176.866 369.895 176.424C368.162 175.957 366.776 174.237 366.726 172.518C366.503 173.992 365.191 174.802 363.582 174.385C361.824 173.918 360.413 172.125 360.413 170.405V170.381L360.338 170.356C360.264 172.027 358.878 172.985 357.169 172.542C355.411 172.076 354 170.282 354 168.563L355.287 168.907L354.718 168.735L354 168.563V158L390 162.545Z" fill="#010101"/>
<path opacity="0.1" d="M390.998 165L389.177 165.34L389 181.905C389 181.905 391.074 182.561 390.998 180.424C390.973 179.282 390.998 165 390.998 165Z" fill="#010101"/>
<path d="M380 185.834C380 187.027 380.864 188.609 382 188.946C383.136 189.257 384 188.168 384 186.975C384 185.783 383.062 184.408 381.901 184.071C380.741 183.734 380 184.642 380 185.834Z" fill="#44C6E9"/>
<path d="M381 184.333L382.224 184C382.224 184 384.579 184.436 384.885 185.872C385.191 187.308 384.854 188.538 384.273 188.744C383.692 188.923 383.08 189 383.08 189C383.08 189 384.426 187.821 383.906 186.667C383.386 185.513 382.744 184.744 382.193 184.59C381.642 184.41 381 184.333 381 184.333Z" fill="#387DC1"/>
<path d="M373 183.832C373 185.023 373.864 186.602 375 186.939C376.136 187.276 377 186.162 377 184.971C377 183.78 376.062 182.408 374.901 182.071C373.741 181.734 373 182.641 373 183.832Z" fill="#44C6E9"/>
<path d="M374 182.32L375.192 182C375.192 182 377.278 182.468 377.785 183.798C378.321 185.227 377.755 186.36 377.189 186.557C376.622 186.729 376.056 187 376.056 187C376.056 187 377.338 185.67 376.831 184.562C376.324 183.453 375.699 182.714 375.162 182.567C374.626 182.419 374 182.32 374 182.32Z" fill="#387DC1"/>
<path d="M380 196.834C380 198.027 380.864 199.609 382 199.946C383.136 200.257 384 199.168 384 197.975C384 196.783 383.062 195.408 381.901 195.071C380.741 194.734 380 195.642 380 196.834Z" fill="#44C6E9"/>
<path d="M381 195.333L382.224 195C382.224 195 384.579 195.436 384.885 196.872C385.191 198.308 384.854 199.538 384.273 199.744C383.692 199.923 383.08 200 383.08 200C383.08 200 384.426 198.821 383.906 197.667C383.386 196.513 382.744 195.744 382.193 195.59C381.642 195.436 381 195.333 381 195.333Z" fill="#387DC1"/>
<path d="M373 194.832C373 196.023 373.864 197.602 375 197.939C376.136 198.276 377 197.162 377 195.971C377 194.78 376.062 193.408 374.901 193.071C373.741 192.734 373 193.641 373 194.832Z" fill="#44C6E9"/>
<path d="M374 193.32L375.192 193C375.192 193 377.278 193.468 377.785 194.798C378.321 196.227 377.755 197.36 377.189 197.557C376.622 197.754 376.056 198 376.056 198C376.056 198 377.338 196.67 376.831 195.562C376.324 194.453 375.699 193.714 375.162 193.566C374.626 193.419 374 193.32 374 193.32Z" fill="#387DC1"/>
<path d="M380 207.835C380 209.028 380.864 210.609 382 210.946C383.136 211.257 384 210.168 384 208.976C384 207.783 383.062 206.409 381.901 206.072C380.741 205.735 380 206.617 380 207.835Z" fill="#44C6E9"/>
<path d="M381 206.333L382.224 206C382.224 206 384.579 206.436 384.885 207.872C385.191 209.308 384.854 210.538 384.273 210.744C383.692 210.949 383.08 211 383.08 211C383.08 211 384.426 209.821 383.906 208.667C383.386 207.513 382.744 206.744 382.193 206.59C381.642 206.436 381 206.333 381 206.333Z" fill="#387DC1"/>
<path d="M373 205.835C373 207.028 373.864 208.609 375 208.946C376.136 209.257 377 208.168 377 206.976C377 205.783 376.062 204.409 374.901 204.072C373.741 203.735 373 204.617 373 205.835Z" fill="#44C6E9"/>
<path d="M374 204.32L375.192 204C375.192 204 377.278 204.468 377.785 205.798C378.321 207.227 377.755 208.36 377.189 208.557C376.622 208.754 376.056 209 376.056 209C376.056 209 377.338 207.67 376.831 206.562C376.324 205.453 375.699 204.714 375.162 204.566C374.626 204.419 374 204.32 374 204.32Z" fill="#387DC1"/>
<path d="M376.05 232.468L355.481 227.146C355.481 227.146 353.471 226.507 352.454 227.903C351.437 229.298 352.38 231.238 352.851 231.806C353.323 232.373 354.216 233.083 355.655 233.485C357.094 233.887 380.64 239.871 380.64 239.871C380.64 239.871 382.476 240.557 383.642 238.76C384.809 236.962 382.749 234.928 382.749 234.928C382.749 234.928 381.682 233.816 380.516 233.627C379.35 233.414 376.05 232.468 376.05 232.468Z" fill="#387DC1"/>
<path d="M375.05 232.889L354.481 227.157C354.481 227.157 352.471 226.469 351.454 227.972C350.437 229.475 351.38 231.564 351.851 232.175C352.323 232.787 353.216 233.551 354.655 233.984C356.119 234.391 379.64 240.862 379.64 240.862C379.64 240.862 381.476 241.6 382.642 239.664C383.809 237.728 381.749 235.538 381.749 235.538C381.749 235.538 380.682 234.34 379.516 234.137C378.35 233.907 375.05 232.889 375.05 232.889Z" fill="#387DC1"/>
<path d="M374.953 169.658L369 168C369 168 369.093 170.867 370.097 171.696C371.101 172.525 372.012 173.188 373.109 172.951C374.206 172.715 375 171.483 375 171.34C375 171.175 374.953 169.658 374.953 169.658Z" fill="#44C6E9"/>
<path d="M368.953 167.658L363 166C363 166 363.093 168.867 364.097 169.696C365.101 170.525 366.012 171.188 367.109 170.951C368.206 170.715 369 169.483 369 169.34C369 169.198 368.953 167.658 368.953 167.658Z" fill="white"/>
<path d="M355.953 164.658L350 163C350 163 350.093 165.867 351.097 166.696C352.101 167.525 353.012 168.188 354.109 167.951C355.206 167.715 356 166.483 356 166.34C356 166.198 355.953 164.658 355.953 164.658Z" fill="white"/>
<path d="M343.94 160.658L337 159C337 159 337.109 161.867 338.279 162.696C339.449 163.525 340.511 164.188 341.79 163.951C343.069 163.715 343.994 162.483 343.994 162.34C344.022 162.198 343.94 160.658 343.94 160.658Z" fill="white"/>
<path d="M391 144V164.756L375 169L391 144Z" fill="#387DC1"/>
<path d="M391 143.772L384.198 142L369 167.277L375.448 169L391 143.772Z" fill="#44C6E9"/>
<path d="M384 142.632L377.788 141L363 166.269L369.261 168L384 142.632Z" fill="white"/>
<path d="M371 138.632L364.771 137L350 162.269L356.278 164L371 138.632Z" fill="white"/>
<path d="M359 135.632L352.466 134L337 159.294L343.559 161L359 135.632Z" fill="white"/>
<path d="M362.94 165.99L356 164C356 164 356.109 167.44 357.279 168.435C358.449 169.43 359.511 170.226 360.79 169.942C362.069 169.657 362.994 168.179 362.994 168.009C363.022 167.81 362.94 165.99 362.94 165.99Z" fill="#44C6E9"/>
<path d="M378 140.772L371.484 139L356 164.277L362.26 166L378 140.772Z" fill="#44C6E9"/>
<path d="M349.949 162.658L344 161C344 161 344.093 163.867 345.096 164.696C346.1 165.525 347.009 166.188 348.106 165.951C349.202 165.715 349.995 164.483 349.995 164.34C350.019 164.198 349.949 162.658 349.949 162.658Z" fill="#44C6E9"/>
<path d="M365 136.838L358.78 135L344 161.213L350.195 163L365 136.838Z" fill="#44C6E9"/>
<path d="M336.953 158.99L331 157C331 157 331.093 160.44 332.097 161.435C333.101 162.43 334.012 163.226 335.109 162.942C336.206 162.657 337 161.179 337 161.009C337 160.81 336.953 158.99 336.953 158.99Z" fill="#44C6E9"/>
<path d="M352 133.772L345.78 132L331 157.277L337.195 159L352 133.772Z" fill="#44C6E9"/>
<path d="M390.68 144.005V252.418L345.985 240.438V165.608" stroke="#010101" stroke-width="0.237037" stroke-miterlimit="10"/>
<path d="M347.696 165.931V238.976L388.894 250.013V165.46" stroke="#010101" stroke-width="0.237037" stroke-miterlimit="10"/>
<path d="M375.625 169.403L331.104 157.423L345.911 131.975L350.599 130.735L395.318 142.715V251.153L390.779 252.468" stroke="#010101" stroke-width="0.237037" stroke-miterlimit="10"/>
<path d="M369.102 167.716V168.733C369.102 170.494 370.515 172.28 372.276 172.751C374.037 173.222 375.451 172.18 375.451 170.419V169.427L390.63 144.004L395.318 142.789" stroke="#010101" stroke-width="0.237037" stroke-miterlimit="10"/>
<path d="M350 163V163.988C350 165.698 351.336 167.432 353 167.89C354.664 168.348 356 167.336 356 165.626V164.662" stroke="#010101" stroke-width="0.237037" stroke-miterlimit="10"/>
<path d="M344 161V161.988C344 163.698 345.336 165.432 347 165.89C348.664 166.348 350 165.336 350 163.626V162.662" stroke="#010101" stroke-width="0.237037" stroke-miterlimit="10"/>
<path d="M337 159V159.988C337 161.698 338.559 163.432 340.5 163.89C342.441 164.348 344 163.336 344 161.626V160.662" stroke="#010101" stroke-width="0.237037" stroke-miterlimit="10"/>
<path d="M363 166V166.988C363 168.698 364.336 170.432 366 170.89C367.664 171.348 369 170.336 369 168.626V167.662" stroke="#010101" stroke-width="0.237037" stroke-miterlimit="10"/>
<path d="M356 164V164.988C356 166.698 357.559 168.432 359.5 168.89C361.441 169.348 363 168.336 363 166.626V165.662" stroke="#010101" stroke-width="0.237037" stroke-miterlimit="10"/>
<path d="M331 157V158.185C331 160.237 332.336 162.319 334 162.868C335.664 163.417 337 162.203 337 160.151V158.995" stroke="#010101" stroke-width="0.237037" stroke-miterlimit="10"/>
<path d="M346 132L391 144" stroke="#010101" stroke-width="0.237037" stroke-miterlimit="10"/>
<path d="M337 159L352 134" stroke="#010101" stroke-width="0.237037" stroke-miterlimit="10"/>
<path d="M344 161L359 135" stroke="#010101" stroke-width="0.237037" stroke-miterlimit="10"/>
<path d="M350 163L365 137" stroke="#010101" stroke-width="0.237037" stroke-miterlimit="10"/>
<path d="M356 164L371 139" stroke="#010101" stroke-width="0.237037" stroke-miterlimit="10"/>
<path d="M363 166L378 141" stroke="#010101" stroke-width="0.237037" stroke-miterlimit="10"/>
<path d="M369 168L384 142" stroke="#010101" stroke-width="0.237037" stroke-miterlimit="10"/>
<path d="M391 165L375 169" stroke="#010101" stroke-width="0.237037" stroke-miterlimit="10"/>
<path d="M352 179L370 184" stroke="#010101" stroke-width="0.237037" stroke-miterlimit="10"/>
<path d="M375.857 186.983C376.794 186.529 377.059 185.142 376.449 183.884C375.84 182.627 374.586 181.976 373.649 182.43C372.713 182.885 372.447 184.272 373.057 185.529C373.667 186.787 374.92 187.438 375.857 186.983Z" stroke="#010101" stroke-width="0.237037" stroke-miterlimit="10"/>
<path d="M374 182.311L374.872 182.088C375.179 181.989 375.513 181.964 375.897 182.063C377.051 182.361 378 183.651 378 184.966C378 185.908 377.513 186.603 376.795 186.777L376 187" stroke="#010101" stroke-width="0.237037" stroke-miterlimit="10"/>
<path d="M374 185H376" stroke="#010101" stroke-width="0.237037" stroke-miterlimit="10"/>
<path d="M382 185V188" stroke="#010101" stroke-width="0.237037" stroke-miterlimit="10"/>
<path d="M382.861 188.796C383.798 188.342 384.063 186.954 383.453 185.697C382.843 184.44 381.59 183.789 380.653 184.243C379.716 184.697 379.451 186.085 380.061 187.342C380.67 188.599 381.924 189.25 382.861 188.796Z" stroke="#010101" stroke-width="0.237037" stroke-miterlimit="10"/>
<path d="M381 184.311L381.872 184.088C382.179 183.989 382.513 183.964 382.897 184.063C384.051 184.361 385 185.651 385 186.966C385 187.908 384.513 188.603 383.795 188.777L383 189" stroke="#010101" stroke-width="0.237037" stroke-miterlimit="10"/>
<path d="M381 186L383 187" stroke="#010101" stroke-width="0.237037" stroke-miterlimit="10"/>
<path d="M352 190L370 195" stroke="#010101" stroke-width="0.237037" stroke-miterlimit="10"/>
<path d="M375.862 198.069C376.798 197.615 377.064 196.228 376.454 194.97C375.844 193.713 374.591 193.062 373.654 193.516C372.717 193.971 372.452 195.358 373.062 196.615C373.671 197.872 374.925 198.523 375.862 198.069Z" stroke="#010101" stroke-width="0.237037" stroke-miterlimit="10"/>
<path d="M374 193.311L374.872 193.088C375.179 192.989 375.513 192.964 375.897 193.063C377.051 193.361 378 194.651 378 195.966C378 196.908 377.513 197.603 376.795 197.777L376 198" stroke="#010101" stroke-width="0.237037" stroke-miterlimit="10"/>
<path d="M374 196H376" stroke="#010101" stroke-width="0.237037" stroke-miterlimit="10"/>
<path d="M382 197V199" stroke="#010101" stroke-width="0.237037" stroke-miterlimit="10"/>
<path d="M382.856 199.859C383.793 199.405 384.058 198.018 383.448 196.76C382.839 195.503 381.585 194.852 380.648 195.306C379.712 195.761 379.446 197.148 380.056 198.405C380.666 199.663 381.919 200.313 382.856 199.859Z" stroke="#010101" stroke-width="0.237037" stroke-miterlimit="10"/>
<path d="M381 195.311L381.872 195.088C382.179 194.989 382.513 194.964 382.897 195.063C384.051 195.361 385 196.651 385 197.966C385 198.908 384.513 199.603 383.795 199.777L383 200" stroke="#010101" stroke-width="0.237037" stroke-miterlimit="10"/>
<path d="M381 197L383 198" stroke="#010101" stroke-width="0.237037" stroke-miterlimit="10"/>
<path d="M352 201L370 206" stroke="#010101" stroke-width="0.237037" stroke-miterlimit="10"/>
<path d="M375.857 209.133C376.794 208.678 377.059 207.291 376.449 206.034C375.84 204.777 374.586 204.126 373.649 204.58C372.713 205.034 372.447 206.422 373.057 207.679C373.667 208.936 374.92 209.587 375.857 209.133Z" stroke="#010101" stroke-width="0.237037" stroke-miterlimit="10"/>
<path d="M374 204.311L374.872 204.088C375.179 203.989 375.513 203.964 375.897 204.063C377.051 204.361 378 205.651 378 206.966C378 207.908 377.513 208.603 376.795 208.777L376 209" stroke="#010101" stroke-width="0.237037" stroke-miterlimit="10"/>
<path d="M374 207H376" stroke="#010101" stroke-width="0.237037" stroke-miterlimit="10"/>
<path d="M382 208V210" stroke="#010101" stroke-width="0.237037" stroke-miterlimit="10"/>
<path d="M382.861 210.945C383.798 210.491 384.063 209.104 383.453 207.846C382.843 206.589 381.59 205.938 380.653 206.392C379.716 206.847 379.451 208.234 380.061 209.491C380.67 210.748 381.924 211.399 382.861 210.945Z" stroke="#010101" stroke-width="0.237037" stroke-miterlimit="10"/>
<path d="M381 206.311L381.872 206.088C382.179 205.989 382.513 205.964 382.897 206.063C384.051 206.361 385 207.651 385 208.966C385 209.908 384.513 210.603 383.795 210.777L383 211" stroke="#010101" stroke-width="0.237037" stroke-miterlimit="10"/>
<path d="M381 208L383 209" stroke="#010101" stroke-width="0.237037" stroke-miterlimit="10"/>
<path d="M353 227.419C353.657 227.243 354.946 226.841 355.806 227.067L381.638 233.946C383.483 234.448 385 236.331 385 238.163C385 239.418 384.292 240.347 383.256 240.623L381.967 241" stroke="#010101" stroke-width="0.237037" stroke-miterlimit="10"/>
<path d="M354.304 233.885L379.696 240.877C381.509 241.387 383 240.264 383 238.402C383 236.539 381.534 234.6 379.696 234.115L354.304 227.123C352.491 226.613 351 227.736 351 229.598C351 231.461 352.491 233.375 354.304 233.885Z" stroke="#010101" stroke-width="0.237037" stroke-miterlimit="10"/>
</g>
<defs>
<clipPath id="clip0_2367_11904">
<rect width="568" height="256" fill="white"/>
</clipPath>
</defs>
</svg>
