<svg width="270" height="214" viewBox="0 0 270 214" fill="none" xmlns="http://www.w3.org/2000/svg">
<path d="M17.8418 127.285L103.615 150.026L189.079 127.285L103.492 103.123L17.8418 127.285Z" fill="black" fill-opacity="0.08"/>
<path d="M42.2502 12.8391C42.2502 12.8391 39.6548 2.76633 82.3561 0.727051L96.5074 0.974232C96.5074 0.974232 121.411 2.39555 129.507 9.37854C129.507 9.37854 130.866 9.31673 130.866 16.6705C130.866 24.0243 130.866 32.1196 130.866 32.1196L138.714 34.2206C138.714 34.2206 144.338 34.9004 144.77 41.5126L143.843 41.8834L137.787 40.0295C137.787 40.0295 133.276 40.7711 132.72 43.3047C132.164 45.8384 131.422 48.5574 136.366 49.8551C141.248 51.1529 141.248 51.1528 141.248 51.1528C141.248 51.1528 138.838 54.6134 135.007 54.8606C131.175 55.1078 129.445 53.5629 129.445 53.5629L124.192 52.6978C124.192 52.6978 109.67 58.8774 89.5863 58.5066C69.7496 58.1358 62.952 58.074 51.8905 54.1809C40.829 50.2877 42.3121 47.0743 42.3121 47.0743L42.2502 12.8391Z" fill="#FFFF00"/>
<path d="M132.103 36.198C132.103 36.198 136.552 33.6643 138.715 34.1587C140.878 34.6531 144.709 37.8047 144.771 41.4507L143.844 41.8214L137.788 39.9676C137.788 39.9676 134.266 39.7204 133.277 42.5012C132.288 45.282 131.547 48.619 134.451 49.2988C137.356 50.0403 141.249 51.0909 141.249 51.0909C141.249 51.0909 138.221 54.4897 135.007 54.7987C131.794 55.1077 127.777 53.9953 127.221 50.4729C126.665 46.9505 126.541 42.7484 128.766 39.9058C130.991 37.0631 132.103 36.198 132.103 36.198Z" fill="#DCDC03"/>
<path d="M93.542 57.9498V23.6528C93.542 23.6528 116.592 22.4787 124.935 17.5968C124.935 17.5968 130.187 15.5575 130.867 12.5913V31.9954L117.272 28.3494C117.272 28.3494 112.081 27.6696 109.794 30.6976C107.508 33.6639 104.542 34.838 104.727 41.203C104.913 47.568 108.744 48.4332 108.744 48.4332L124.069 52.6353C124.069 52.6353 115.418 56.5903 109.238 56.8993C103.059 57.2083 93.542 57.9498 93.542 57.9498Z" fill="#DCDC03"/>
<path d="M126.603 43.6752L105.283 38.6079C105.283 38.6079 104.418 44.9729 106.952 47.1976C109.485 49.4223 129.446 54.057 129.446 54.057C129.446 54.057 126.108 49.4841 126.603 45.8381C127.097 42.2539 126.603 43.6752 126.603 43.6752Z" fill="#DCDC03"/>
<path d="M208.73 141.066C208.73 141.066 222.758 161.953 240.432 167.762C249.022 170.543 315.638 187.908 315.638 187.908L311.621 176.661L226.59 151.324L208.73 141.066Z" fill="black" fill-opacity="0.08"/>
<path d="M162.073 46.9508L137.788 39.9678C137.788 39.9678 133.276 40.7093 132.72 43.243C132.164 45.7766 132.226 48.1249 134.451 49.299C136.675 50.4731 158.984 56.0966 158.984 56.0966C158.984 56.0966 170.354 59.0628 182.157 74.6973C182.157 74.6973 188.646 85.3881 189.573 90.7644C190.562 96.2024 190.747 109.489 192.292 112.764C193.837 116.039 199.707 135.072 209.348 143.662C218.988 152.252 227.887 161.954 261.998 168.381L304.081 179.627V169.616L240.122 152.499C240.122 152.499 220.78 145.454 213.55 133.589C213.55 133.589 202.674 121.477 201.067 107.635C199.46 93.7924 199.275 86.5004 196.123 80.1972C192.972 73.8939 182.404 57.8269 174.495 53.5012C166.894 49.4844 162.073 46.9508 162.073 46.9508Z" fill="#FFFF00"/>
<path d="M132.721 43.1806L160.22 50.4725C160.22 50.4725 172.394 53.8713 186.545 65.5508C186.545 65.5508 176.782 51.7084 160.776 46.5793C144.771 41.4503 137.788 39.9054 137.788 39.9054C137.788 39.9054 134.08 39.7818 132.721 43.1806Z" fill="#F5F587"/>
<path d="M205.022 120.735C205.022 120.735 216.764 150.397 237.96 156.33C259.094 162.262 318.357 177.773 318.357 177.773L315.885 172.829L238.763 152.066C238.763 152.066 221.522 144.588 215.651 136.864C209.719 129.139 205.022 120.735 205.022 120.735Z" fill="#F5F587"/>
<path d="M103.491 30.5745L126.788 23.2207L130.496 26.8667L130.867 31.9958L137.417 34.0969V36.9395L128.333 45.7146L119.929 46.3325L101.081 41.4506L103.491 30.5745Z" fill="#DCDC03"/>
<path d="M65.4241 56.8999L73.8902 58.1358L73.643 83.7195C73.643 83.7195 71.7273 84.5847 69.6263 84.4611C67.5252 84.3375 65.3623 83.3487 65.3623 83.3487V56.8999H65.4241Z" fill="white"/>
<path d="M99.2268 58.1352L107.631 57.1465L107.693 71.6068C107.693 71.6068 105.715 72.781 103.862 72.7192C102.008 72.6574 99.165 72.1012 99.165 72.1012V58.1352H99.2268Z" fill="white"/>
<path d="M0.90918 109.612V121.909L86.6824 144.712L172.209 121.909V109.612L86.5589 87.2417L0.90918 109.612Z" fill="white"/>
<path d="M70.2441 57.8882V84.1516C70.2441 84.1516 74.0137 83.9044 74.1373 83.4718C74.3227 83.0393 73.8901 58.1354 73.8901 58.1354L70.2441 57.8882Z" fill="#E6E6E6"/>
<path d="M103.738 57.8267V72.7196C103.738 72.7196 107.508 72.4724 107.631 72.0398C107.817 71.6073 107.384 57.2705 107.384 57.2705L103.738 57.8267Z" fill="#E6E6E6"/>
<path d="M86.5586 132.167L86.6822 144.712L172.208 121.909V109.612L86.5586 132.167Z" fill="#E6E6E6"/>
<path d="M116.653 100.713V105.719C116.653 105.719 100.895 102.382 86.7436 102.752C72.5922 103.123 59.3678 104.359 51.0871 106.831C51.0871 106.831 43.0536 109.797 42.0031 112.145C42.0031 112.145 38.6661 107.387 46.3906 103.988C54.0534 100.589 72.963 98.2412 72.963 98.2412H99.2883L116.653 100.713Z" fill="#E6E6E6"/>
<path d="M103.306 110.416C105.626 110.416 107.508 109.918 107.508 109.303C107.508 108.689 105.626 108.191 103.306 108.191C100.985 108.191 99.1035 108.689 99.1035 109.303C99.1035 109.918 100.985 110.416 103.306 110.416Z" fill="#E6E6E6"/>
<path d="M69.8123 120.92C72.0989 120.92 73.9526 120.422 73.9526 119.808C73.9526 119.194 72.0989 118.696 69.8123 118.696C67.5256 118.696 65.6719 119.194 65.6719 119.808C65.6719 120.422 67.5256 120.92 69.8123 120.92Z" fill="#E6E6E6"/>
<path d="M86.5585 132.662L0.785156 109.736L86.5585 86.8091L172.332 109.736L86.5585 132.662ZM4.36937 109.736L86.5585 131.735L168.748 109.736L86.5585 87.736L4.36937 109.736Z" fill="black"/>
<path d="M86.5589 145.33L0.476562 122.28V109.612H1.40351V121.6L86.5589 144.341L171.714 121.6V109.612H172.641V122.28L172.332 122.404L86.5589 145.33Z" fill="black"/>
<path d="M86.5588 121.971C60.7279 121.971 40.5205 116.595 40.5205 109.674C40.5205 102.753 60.7279 97.3765 86.5588 97.3765C112.39 97.3765 132.597 102.753 132.597 109.674C132.597 116.595 112.39 121.971 86.5588 121.971ZM86.5588 98.3034C62.0874 98.3034 41.4475 103.494 41.4475 109.674C41.4475 115.854 62.0874 121.044 86.5588 121.044C111.03 121.044 131.67 115.854 131.67 109.674C131.67 103.494 111.03 98.3034 86.5588 98.3034Z" fill="black"/>
<path d="M130.805 112.516C126.541 107.14 107.941 103.247 86.559 103.247C65.2393 103.247 46.6386 107.14 42.3129 112.454L41.5713 111.898C46.1442 106.275 64.6214 102.32 86.4973 102.32C108.497 102.32 126.974 106.275 131.485 111.96L130.805 112.516Z" fill="black"/>
<path d="M87.1769 132.415H86.25V144.712H87.1769V132.415Z" fill="black"/>
<path d="M86.5582 58.939C61.4689 58.939 41.7559 53.6863 41.7559 46.9505V11.603H42.6828V46.9505C42.6828 52.9448 62.7666 58.0121 86.5582 58.0121C101.945 58.0121 116.468 55.911 124.378 52.4504L124.748 53.3156C116.591 56.8379 102.316 58.939 86.5582 58.939Z" fill="black"/>
<path d="M131.361 11.541H130.434V32.3046H131.361V11.541Z" fill="black"/>
<path d="M103.429 73.1518C102.935 73.1518 98.7324 73.09 98.7324 71.6069V58.1353H99.6594V71.6069C99.9066 71.8541 101.266 72.2867 103.429 72.2867C105.592 72.2867 106.951 71.8541 107.199 71.6069V56.8994H108.126V71.6069C108.187 73.1518 103.923 73.1518 103.429 73.1518Z" fill="black"/>
<path d="M69.6262 84.8932C69.1318 84.8932 64.9297 84.8314 64.9297 83.3483V56.8994H65.8566V83.2864C66.1038 83.5336 67.4633 83.9662 69.6262 83.9662C71.7891 83.9662 73.1486 83.5336 73.3958 83.2864V58.1353H74.3227V83.3483C74.3227 84.8314 70.1206 84.8932 69.6262 84.8932Z" fill="black"/>
<path d="M86.5582 24.1474C61.4689 24.1474 41.7559 18.8947 41.7559 12.1589C41.7559 5.42311 61.4071 0.17041 86.5582 0.17041C111.648 0.17041 131.361 5.42311 131.361 12.1589C131.361 18.8947 111.648 24.1474 86.5582 24.1474ZM86.5582 1.09736C62.7666 1.09736 42.6828 6.16467 42.6828 12.1589C42.6828 18.1532 62.7666 23.2205 86.5582 23.2205C110.35 23.2205 130.434 18.1532 130.434 12.1589C130.434 6.16467 110.35 1.09736 86.5582 1.09736Z" fill="black"/>
<path d="M110.165 49.4222C106.581 48.6806 104.232 45.4672 104.232 41.1415C104.232 35.3944 108.496 29.5856 113.687 28.1643C115.294 27.7317 116.901 27.7317 118.322 28.2261L118.013 29.0912C116.777 28.6586 115.356 28.6586 113.934 29.0294C109.114 30.3271 105.159 35.7652 105.159 41.1415C105.159 44.9729 107.199 47.8773 110.35 48.4952L110.165 49.4222Z" fill="black"/>
<path d="M134.574 49.7313C132.844 49.3605 131.67 47.8156 131.67 45.7764C131.67 43.0573 133.647 40.3383 136.119 39.6585C136.923 39.4731 137.664 39.4731 138.344 39.7203L138.035 40.5855C137.541 40.4001 136.923 40.4001 136.366 40.5855C134.265 41.1416 132.597 43.4899 132.597 45.7764C132.597 47.3831 133.462 48.619 134.76 48.8662L134.574 49.7313Z" fill="black"/>
<path d="M133.524 55.3544C131.917 55.3544 130.434 54.86 129.198 53.933C127.221 52.4499 126.108 49.9163 126.108 46.9501C126.108 41.203 130.372 35.3941 135.563 33.9728C138.035 33.2931 140.383 33.7256 142.175 35.0851C144.153 36.5683 145.265 39.1019 145.265 42.0681H144.338C144.338 39.4109 143.35 37.1862 141.619 35.8267C140.013 34.5908 137.973 34.2818 135.81 34.838C130.99 36.1357 127.035 41.5738 127.035 46.9501C127.035 49.6073 128.024 51.832 129.754 53.1915C131.361 54.4274 133.4 54.7364 135.563 54.1802C137.479 53.6859 139.333 52.5117 140.878 50.7814L141.557 51.3994C139.889 53.2533 137.911 54.4892 135.81 55.1072C135.069 55.2308 134.266 55.3544 133.524 55.3544Z" fill="black"/>
<path d="M109.445 48.1997L109.205 49.0952L132.071 55.2087L132.31 54.3131L109.445 48.1997Z" fill="black"/>
<path d="M117.437 27.9507L117.197 28.8462L140.063 34.9596L140.302 34.0641L117.437 27.9507Z" fill="black"/>
<path d="M429.22 213.677L239.505 162.818C212.376 155.526 190.253 127.471 190.253 100.281C190.253 80.6293 174.248 60.4219 154.535 55.1074L134.266 49.6693L134.513 48.8042L154.782 54.2423C174.866 59.6186 191.18 80.2585 191.18 100.281C191.18 127.1 212.932 154.785 239.752 161.953L429.467 212.812L429.22 213.677Z" fill="black"/>
<path d="M431.754 204.346L242.039 153.487C218.865 147.246 199.956 123.392 199.956 100.219C199.956 76.4889 180.737 52.0794 157.069 45.7144L136.8 40.2763L137.047 39.4111L157.316 44.8492C181.355 51.276 200.883 76.1182 200.883 100.219C200.883 122.96 219.422 146.442 242.286 152.56L432.001 203.419L431.754 204.346Z" fill="black"/>
<path d="M72.3454 121.353L72.2217 120.427C73.0251 120.365 73.5195 119.994 73.6431 119.87C73.3959 119.623 71.9128 119.191 69.6263 119.191C67.2163 119.191 65.7332 119.685 65.6096 119.932L64.6826 119.87C64.6826 118.264 69.132 118.264 69.6263 118.264C70.1207 118.264 74.57 118.325 74.57 119.87C74.57 120.55 73.5813 121.23 72.3454 121.353Z" fill="black"/>
<path d="M103.368 111.033C102.873 111.033 98.4238 110.971 98.4238 109.427C98.4238 107.882 102.873 107.82 103.368 107.82C103.862 107.82 108.311 107.882 108.311 109.427C108.311 110.971 103.924 111.033 103.368 111.033ZM99.4126 109.427C99.7215 109.735 101.143 110.106 103.429 110.106C105.716 110.106 107.137 109.674 107.446 109.427C107.137 109.118 105.716 108.747 103.429 108.747C101.143 108.747 99.7215 109.118 99.4126 109.427Z" fill="black"/>
</svg>
