<svg width="263" height="122" viewBox="0 0 263 122" fill="none" xmlns="http://www.w3.org/2000/svg">
<path d="M91.0957 62.5464L176.931 85.3492L262.395 62.5464L176.745 38.4458L91.0957 62.5464Z" fill="black" fill-opacity="0.08"/>
<path d="M77.0059 45.5519V57.8494L162.779 80.6522L248.305 57.8494V45.5519L162.656 23.1816L77.0059 45.5519Z" fill="white"/>
<path d="M162.656 68.2314L162.78 80.8379L248.306 58.035V45.6758L162.656 68.2314Z" fill="#E6E6E6"/>
<path d="M200.537 51.1136C200.537 51.1136 186.015 57.046 165.931 56.6752C146.095 56.3044 139.297 56.2427 128.236 52.4731C117.174 48.7035 118.657 45.6755 118.657 45.6755V12.8617C118.657 12.8617 116.062 3.15961 158.763 1.18213L172.914 1.42933C172.914 1.42933 197.818 2.85065 205.914 9.46285C205.914 9.46285 207.273 9.40105 207.273 16.4458C207.273 23.4906 207.273 31.2769 207.273 31.2769" fill="#25CFF2"/>
<path d="M207.335 44.8721V13.7886C206.655 16.5694 201.402 18.4851 201.402 18.4851C193.06 23.1198 170.01 24.1704 170.01 24.1704V56.3662C170.01 56.3662 179.588 55.6247 185.768 55.3157C191.947 55.0067 200.599 51.299 200.599 51.299L204.616 49.2596C206.284 48.3945 207.335 46.6642 207.335 44.8721Z" fill="#0182E5"/>
<path d="M127.865 39.9285L120.078 32.4512L108.275 35.4792C108.275 35.4792 104.073 38.26 104.876 42.4621L111.612 40.6701C111.612 40.6701 115.135 40.5465 116.123 43.3891C117.174 46.2935 117.421 47.5295 116.123 49.0126C114.826 50.4957 108.214 51.7934 108.214 51.7934C108.214 51.7934 112.107 55.7484 116.123 55.3158C120.14 54.8832 131.078 51.4226 131.078 51.4226" fill="#25CFF2"/>
<path d="M110.314 41.0409C110.314 41.0409 111.365 40.3611 113.157 41.0409C114.949 41.7206 118.286 46.7262 117.236 47.9003C116.185 49.0744 108.831 51.4227 108.831 51.4227L99.7472 54.0181C99.7472 54.0181 89.5508 58.0349 84.8543 65.3887C80.1578 72.8042 68.8491 77.7479 65.0795 78.7985C61.3099 79.849 -33.8564 105.371 -33.8564 105.371V95.4217L62.2987 69.7762C62.2987 69.7762 70.8883 66.7482 75.9556 60.9393C81.0229 55.1923 87.6969 47.9621 93.5676 46.2936C99.5 44.6251 110.314 41.0409 110.314 41.0409Z" fill="#25CFF2"/>
<path d="M-36.1432 99.5001L63.5343 73.0513C63.5343 73.0513 74.843 69.5907 81.5788 60.3213C88.3146 51.0518 97.0897 49.2597 97.0897 49.2597L116.185 43.4509C116.185 43.4509 115.69 39.6195 110.314 41.0408C104.938 42.4621 92.5168 45.6137 90.4157 47.7766C88.3146 49.9395 81.5788 53.4618 79.6013 56.6753C77.6239 59.8887 71.7532 65.2032 65.8208 68.1694C59.8883 71.1974 39.9899 75.585 39.9899 75.585L-37.9971 96.4721L-36.1432 99.5001Z" fill="#B3E5FF"/>
<path d="M-11.4863 104.382L69.4669 83.1858C69.4669 83.1858 75.3375 81.1465 77.624 75.523C79.9104 69.8378 82.4441 63.2256 82.4441 63.2256C82.4441 63.2256 74.2252 74.1017 68.4163 76.2028C62.5457 78.3039 -11.4245 97.2753 -11.4245 97.2753V104.382H-11.4863Z" fill="black" fill-opacity="0.1"/>
<path d="M162.78 68.4785L116.062 55.9956L116.309 55.1305L162.78 67.5516L244.969 45.5521L206.84 35.3557L207.026 34.4287L248.553 45.5521L162.78 68.4785Z" fill="black"/>
<path d="M105.012 52.0488L104.772 52.9443L110.802 54.5565L111.042 53.661L105.012 52.0488Z" fill="black"/>
<path d="M89.3651 48.8888L77.0059 45.5518L105.185 38.0127L105.432 38.9396L80.5901 45.5518L89.6123 47.9619L89.3651 48.8888Z" fill="black"/>
<path d="M78.304 58.529L76.6973 58.1582V45.5518H77.6242V57.4167L78.5512 57.6639L78.304 58.529Z" fill="black"/>
<path d="M162.779 81.1467L88.7471 61.3719L88.9943 60.445L162.779 80.158L247.996 57.4169V45.4902H248.923V58.1585L248.552 58.2203L162.779 81.1467Z" fill="black"/>
<path d="M162.779 24.7885C137.69 24.7885 117.977 19.5358 117.977 12.8C117.977 6.06419 137.628 0.811523 162.779 0.811523C187.93 0.811523 207.581 6.06419 207.581 12.8C207.581 19.5358 187.93 24.7885 162.779 24.7885ZM162.779 1.73847C138.987 1.73847 118.904 6.80575 118.904 12.8C118.904 18.7942 138.987 23.8615 162.779 23.8615C186.57 23.8615 206.654 18.7942 206.654 12.8C206.654 6.80575 186.57 1.73847 162.779 1.73847Z" fill="black"/>
<path d="M118.904 12.7998H117.977V32.5129H118.904V12.7998Z" fill="black"/>
<path d="M162.779 57.1696C149.246 57.1696 136.578 55.5629 128.05 52.8439L128.359 51.9787C136.763 54.6977 149.308 56.2427 162.779 56.2427C186.571 56.2427 206.655 51.1753 206.655 45.1811V12.7998H207.582V45.1811C207.582 51.8551 187.93 57.1696 162.779 57.1696Z" fill="black"/>
<path d="M139.173 50.0013L138.987 49.0743C142.139 48.4564 144.178 45.552 144.178 41.7206C144.178 36.3443 140.223 30.9062 135.403 29.6085C133.982 29.2377 132.561 29.2377 131.325 29.6703L131.016 28.8052C132.437 28.3108 134.044 28.3108 135.65 28.7434C140.841 30.1647 145.105 35.9735 145.105 41.7206C145.105 46.0463 142.757 49.2597 139.173 50.0013Z" fill="black"/>
<path d="M114.764 50.3102L114.578 49.3832C115.876 49.1361 116.741 47.9001 116.741 46.2934C116.741 43.9452 115.073 41.6587 112.972 41.1026C112.354 40.9172 111.797 40.9172 111.303 41.1026L110.994 40.2374C111.674 39.9902 112.477 39.9902 113.219 40.1756C115.691 40.8554 117.668 43.5744 117.668 46.2934C117.668 48.3945 116.556 49.9394 114.764 50.3102Z" fill="black"/>
<path d="M115.815 55.9334C115.073 55.9334 114.331 55.8098 113.528 55.6244C111.427 55.0682 109.45 53.7705 107.781 51.9166L108.461 51.2987C110.006 53.0289 111.86 54.2031 113.775 54.6975C115.938 55.2536 118.039 54.9446 119.584 53.7087C121.314 52.3492 122.303 50.1863 122.303 47.4673C122.303 42.091 118.348 36.6529 113.528 35.3552C111.365 34.799 109.264 35.108 107.719 36.3439C105.989 37.7035 105 39.8663 105 42.5853H104.073C104.073 39.6809 105.186 37.1473 107.163 35.6024C108.955 34.1811 111.303 33.8103 113.775 34.49C118.966 35.9114 123.23 41.7202 123.23 47.4673C123.23 50.3717 122.118 52.9053 120.14 54.4503C118.904 55.5008 117.421 55.9334 115.815 55.9334Z" fill="black"/>
<path d="M139.928 48.8149L117.064 54.9307L117.304 55.8261L140.167 49.7103L139.928 48.8149Z" fill="black"/>
<path d="M131.957 28.5395L109.094 34.6553L109.333 35.5507L132.197 29.4349L131.957 28.5395Z" fill="black"/>
<path d="M-92.1307 121.499L-92.3779 120.634L63.9668 78.7363C72.0621 76.5734 79.6013 71.4443 85.2247 64.2759C89.6123 58.7143 95.6683 54.5121 101.848 52.9054L114.763 49.4448L115.011 50.31L102.095 53.7706C96.1009 55.3773 90.2302 59.394 85.9663 64.8321C80.2192 72.1241 72.4947 77.3768 64.214 79.6014L-92.1307 121.499Z" fill="black"/>
<path d="M-94.6024 112.168L-94.8496 111.303L61.4951 69.4052C67.4893 67.7985 73.4218 63.72 77.6858 58.2819C83.4328 50.9899 91.1573 45.7373 99.3763 43.5744L111.674 40.1138L111.921 40.9789L99.6235 44.4395C91.5899 46.6024 84.0508 51.7315 78.4273 58.8381C73.978 64.4615 67.9219 68.6019 61.7423 70.2704L-94.6024 112.168Z" fill="black"/>
<path d="M163.398 67.7368H162.471V80.0343H163.398V67.7368Z" fill="black"/>
</svg>
