<svg width="232" height="112" viewBox="0 0 232 112" fill="none" xmlns="http://www.w3.org/2000/svg">
<path d="M59.8281 88.541L145.663 111.344L231.128 88.541L145.478 64.4404L59.8281 88.541Z" fill="black" fill-opacity="0.08"/>
<path d="M-12.4746 41.5138L33.0075 53.9967C38.6927 55.5416 44.8723 54.4911 49.5071 50.9069C51.7317 49.1766 53.462 47.0137 53.462 44.5418C53.4002 37.6207 39.9286 45.5924 39.9286 45.5924L-3.2052 33.7893L-12.9072 31.1938L-12.4746 41.5138Z" fill="black" fill-opacity="0.1"/>
<path d="M42.834 71.6083V83.9058L128.607 106.709L214.133 83.9058V71.6083L128.484 50.8447L42.834 71.6083Z" fill="white"/>
<path d="M128.483 93.979L128.607 106.524L214.133 83.7208V71.4233L128.483 93.979Z" fill="#E6E6E6"/>
<path d="M166.179 77.356C166.179 77.356 151.657 83.4739 131.573 83.1031C111.736 82.7323 104.939 82.6705 93.8772 78.8391C82.8156 75.0077 84.2987 71.8561 84.2987 71.8561V39.8456C84.2987 39.8456 81.7033 29.8964 124.405 27.9189L138.556 28.1661C138.556 28.1661 163.46 29.5875 171.555 36.4469C171.555 36.4469 172.915 36.385 172.915 43.6152C172.915 50.8454 172.915 58.8171 172.915 58.8171" fill="#FFFF00"/>
<path d="M172.976 70.6199V39.5981C172.297 42.5644 167.044 44.5419 167.044 44.5419C158.701 49.4238 135.651 50.5361 135.651 50.5361V82.732C135.651 82.732 145.23 81.9286 151.409 81.6197C157.589 81.3107 166.241 77.4175 166.241 77.4175L170.257 75.2546C171.926 74.3277 172.976 72.5356 172.976 70.6199Z" fill="#DCDC03"/>
<path d="M91.3432 33.6658L77.1919 29.8344C77.1919 29.8344 71.3212 29.4018 68.9729 33.1714C66.6247 36.941 64.5854 39.2892 64.8944 43.0588C65.2034 46.8284 67.2426 50.1036 70.2707 50.8452C73.3605 51.5867 84.422 54.4293 84.422 54.4293L83.9895 40.2162C83.9895 40.2162 84.6074 35.7051 88.0062 34.7163C91.3432 33.6658 91.3432 33.6658 91.3432 33.6658Z" fill="#FFFF00"/>
<path d="M72.4337 36.8174L67.4282 34.4691C67.4282 34.4691 58.1587 31.8119 51.4847 35.6432C44.7489 39.4746 44.6253 39.66 43.4512 39.969C42.2771 40.278 40.6704 41.3903 28.2493 38.5477C15.8282 35.705 -15.3789 26.8682 -15.3789 26.8682V36.1376L30.5976 48.4351C30.5976 48.4351 38.0749 51.3395 45.6141 48.6205C53.1532 45.9014 54.2656 44.1093 54.2656 44.1093C54.2656 44.1093 59.7036 42.3172 64.8327 43.0588L72.4337 36.8174Z" fill="#FFFF00"/>
<path d="M-17.1709 29.0313L32.2044 42.6883C32.2044 42.6883 40.8559 45.0366 45.7996 42.1321C50.6815 39.2277 54.9454 36.7559 59.4566 36.7559C63.9677 36.7559 66.007 37.4974 66.007 37.4974L67.4283 34.4076C67.4283 34.4076 56.1813 32.0593 47.3445 37.8064C38.5076 43.5534 33.5021 39.7839 33.5021 39.7839L-15.3788 26.8066L-17.1709 29.0313Z" fill="#F5F587"/>
<path d="M128.483 51.3398C103.394 51.3398 83.6807 46.0871 83.6807 39.3513C83.6807 32.6155 103.332 27.3628 128.483 27.3628C153.634 27.3628 173.285 32.6155 173.285 39.3513C173.285 46.0871 153.572 51.3398 128.483 51.3398ZM128.483 28.2897C104.691 28.2897 84.6076 33.357 84.6076 39.3513C84.6076 45.3455 104.691 50.4128 128.483 50.4128C152.275 50.4128 172.358 45.3455 172.358 39.3513C172.358 33.357 152.213 28.2897 128.483 28.2897Z" fill="black"/>
<path d="M128.483 83.1029C103.394 83.1029 83.6807 77.8502 83.6807 71.1144V39.3511H84.6076V71.1144C84.6076 77.1086 104.691 82.1759 128.483 82.1759C152.275 82.1759 172.358 77.1086 172.358 71.1144V39.3511H173.285V71.1144C173.224 77.8502 153.572 83.1029 128.483 83.1029Z" fill="black"/>
<path d="M128.607 94.4116L42.834 71.4234L84.1757 60.3618L84.4229 61.2888L46.4182 71.4234L128.607 93.4229L210.796 71.4234L172.668 61.227L172.915 60.3618L214.381 71.4234L128.607 94.4116Z" fill="black"/>
<path d="M128.607 107.018L42.4629 84.0301V71.3618H43.3898V83.2885L128.607 106.091L213.762 83.2885V71.3618H214.689V84.0301L214.38 84.0918L128.607 107.018Z" fill="black"/>
<path d="M129.225 93.3608H128.298V105.658H129.225V93.3608Z" fill="black"/>
<path d="M70.3328 50.9688C66.7487 50.2272 64.4004 47.0138 64.4004 42.6881C64.4004 36.941 68.6643 31.1321 73.8552 29.7108C75.5855 29.2782 77.254 29.2783 78.7371 29.8344L78.4282 30.6996C77.1304 30.2052 75.6473 30.2052 74.1642 30.576C69.3441 31.8737 65.3891 37.3118 65.3891 42.6881C65.3891 46.5194 67.4284 49.4239 70.58 50.0418L70.3328 50.9688Z" fill="black"/>
<path d="M38.6928 41.1431C36.9625 41.1431 35.1086 40.896 33.2547 40.4016L-112.214 1.40811L-111.967 0.542969L33.5019 39.4747C38.6928 40.896 43.4511 40.2162 46.9735 37.6826C52.5969 33.5422 60.2597 32.2445 68.046 34.1602L67.7988 35.0871C60.3215 33.295 52.9059 34.5309 47.5296 38.4859C45.0578 40.2162 42.0298 41.1431 38.6928 41.1431Z" fill="black"/>
<path d="M38.6313 50.0422C36.0977 50.0422 33.5022 49.6714 30.9686 48.9917L-114.5 10.06L-114.253 9.19482L31.2158 48.1883C33.6876 48.8681 36.2213 49.177 38.6931 49.177C43.8222 49.177 48.5187 47.6939 52.2883 44.9749C55.6253 42.503 60.1364 41.6997 65.0184 42.6884L64.833 43.6154C60.1983 42.6884 55.9961 43.43 52.8445 45.7165C48.8895 48.5591 43.9458 50.0422 38.6313 50.0422Z" fill="black"/>
<path d="M68.7853 49.5473L68.5459 50.4429L83.4713 54.4334L83.7107 53.5378L68.7853 49.5473Z" fill="black"/>
<path d="M78.3908 29.7329L78.1514 30.6284L90.4499 33.9166L90.6893 33.0211L78.3908 29.7329Z" fill="black"/>
</svg>
