<svg width="40" height="40" id="Layer_1" data-name="Layer 1" xmlns="http://www.w3.org/2000/svg" xmlns:xlink="http://www.w3.org/1999/xlink" viewBox="0 0 32 32"><defs><style>.cls-1{fill:none;}.cls-2{fill:#006aff;}.cls-3{clip-path:url(#clip-path);}.cls-4{fill:#fff;fill-rule:evenodd;}</style><clipPath id="clip-path" transform="translate(-523.73 -658.82)"><rect class="cls-1" x="532.73" y="667.82" width="14" height="14"></rect></clipPath></defs><path class="cls-2" d="M539.73,658.82h0a16,16,0,0,1,16,16h0a16,16,0,0,1-16,16h0a16,16,0,0,1-16-16h0A16,16,0,0,1,539.73,658.82Z" transform="translate(-523.73 -658.82)"></path><g class="cls-3"><path class="cls-4" d="M542.61,667.86c-1.28-.06-4.47-.05-5.76,0a4.22,4.22,0,0,0-2.94,1.13c-1.21,1.21-1.19,2.79-1.18,5v1.58c0,2.3,0,3.86,1.18,5.06s2.8,1.19,5,1.18h.86c2.67,0,3.59,0,4.54-.37a3.81,3.81,0,0,0,2.37-3.74c.06-1.29.06-4.48,0-5.77A3.85,3.85,0,0,0,542.61,667.86Zm2,11.89c-.81.81-1.91.81-4.29.8h-1.05c-2.62,0-3.72,0-4.54-.81s-.83-2.13-.81-4h0c0-.31,0-.62,0-1s0-.56,0-.83c0-2.79,0-4.73,2.91-4.88h0c.71,0,1,0,2.79,0l0,0h.78c2.73,0,4.78,0,4.91,2.92,0,.74.05,1,.05,2.83v.48h0C545.47,677.83,545.47,678.93,544.65,679.75Zm-4.92-8.53a3.6,3.6,0,1,0,3.59,3.6A3.59,3.59,0,0,0,539.73,671.22Zm0,5.93a2.34,2.34,0,1,1,2.33-2.33A2.33,2.33,0,0,1,539.73,677.15Zm4.57-6.07a.84.84,0,0,1-1.68,0,.84.84,0,0,1,1.68,0Z" transform="translate(-523.73 -658.82)"></path></g></svg>