<svg width="40" height="40" viewBox="0 0 40 40" fill="none" xmlns="http://www.w3.org/2000/svg">
<rect width="40" height="40" rx="20" fill="#006AFF"></rect>
<g clip-path="url(#clip0)">
<path fill-rule="evenodd" clip-rule="evenodd" d="M11.25 13.3515C11.25 12.1914 12.1914 11.25 13.3515 11.25C14.5108 11.25 15.4522 12.1914 15.4529 13.3515C15.4529 14.5116 14.5116 15.4726 13.3515 15.4726C12.1914 15.4726 11.25 14.5116 11.25 13.3515ZM28.7457 28.75V28.7493H28.7501V22.3311C28.7501 19.1913 28.0741 16.7727 24.4035 16.7727C22.6389 16.7727 21.4547 17.741 20.9713 18.659H20.9203V17.0658H17.44V28.7493H21.0639V22.9641C21.0639 21.4408 21.3527 19.9679 23.239 19.9679C25.0977 19.9679 25.1254 21.7062 25.1254 23.0618V28.75H28.7457ZM11.5388 17.0666H15.1672V28.75H11.5388V17.0666Z" fill="white"></path>
</g>
<defs>
<clipPath id="clip0">
<rect width="17.5" height="17.5" fill="white" transform="translate(11.25 11.25)"></rect>
</clipPath>
</defs>
</svg>