<svg width="434" height="378" viewBox="0 0 434 378" fill="none" xmlns="http://www.w3.org/2000/svg">
<path d="M64.6251 360.544C56.3445 358.306 42.8605 358.306 34.5798 360.544L0.841797 351.48L232.588 289.319L199.969 377.497L98.3631 377.665L64.6251 368.601C72.9617 366.419 72.9617 362.782 64.6251 360.544Z" fill="black" fill-opacity="0.08"/>
<path d="M432.666 315.224V311.419L334.417 285.29L102.671 347.507L102.336 347.563L102.224 351.312L136.074 360.376C136.074 360.376 146.033 357.97 152.859 358.697C152.859 358.697 162.762 358.865 166.622 360.487C170.483 362.054 171.434 362.558 171.434 362.558C171.434 362.558 167.07 364.46 166.51 364.628C165.951 364.74 166.231 365.075 166.231 365.075V368.32L200.081 377.496L432.666 315.224Z" fill="#FF8D19"/>
<path d="M200.137 373.636L199.969 377.497L166.175 368.321V365.02L166.455 364.572L200.137 373.636Z" fill="#FF5500"/>
<path d="M171.379 362.558C171.379 362.558 174.68 360.208 170.987 358.194C167.294 356.179 160.356 355.396 160.356 355.396C160.356 355.396 150.565 354.725 146.761 354.949C142.9 355.228 136.41 356.459 136.41 356.459L136.298 360.264C136.298 360.264 146.257 357.97 151.572 358.697C151.572 358.697 158.51 358.753 161.028 359.313C161.028 359.313 165.448 359.984 166.903 360.544C168.357 361.159 170.763 362.166 170.763 362.166L171.379 362.558Z" fill="#FF5500"/>
<path d="M136.018 356.347V360.32L102.168 351.256V347.507L136.018 356.347Z" fill="#FF5500"/>
<path d="M166.175 368.376V365.131L171.379 362.614C171.379 362.614 167.574 359.76 159.573 359.257C151.572 358.753 144.467 358.865 144.467 358.865L135.962 360.376L102.112 351.312V347.563L125.332 341.52L115.317 338.779L314.22 286.577L410.174 312.035L182.513 373.02L166.175 368.376Z" fill="#FF5500"/>
<path d="M432.666 299.054V295.25L334.417 269.177L102.671 331.338L102.336 331.393L102.224 335.142L136.074 344.206C136.074 344.206 146.033 341.8 152.859 342.528C152.859 342.528 162.762 342.695 166.622 344.318C170.483 345.885 171.434 346.388 171.434 346.388C171.434 346.388 167.07 348.29 166.51 348.458C165.951 348.57 166.231 348.906 166.231 348.906V352.151L200.081 361.327L432.666 299.054Z" fill="#FF8D19"/>
<path d="M166.175 352.263V349.018L171.379 346.5C171.379 346.5 167.574 343.647 159.573 343.143C151.572 342.639 144.467 342.751 144.467 342.751L135.962 344.262L102.112 335.198V331.449L125.332 325.407L115.317 322.665L314.22 270.464L410.174 295.921L182.513 356.907L166.175 352.263Z" fill="#FF5500"/>
<path d="M200.137 357.466L199.969 361.327L166.175 352.151V348.906L166.455 348.458L200.137 357.466Z" fill="#FF5500"/>
<path d="M171.379 346.388C171.379 346.388 174.68 344.038 170.987 342.023C167.294 340.009 160.356 339.226 160.356 339.226C160.356 339.226 150.565 338.555 146.761 338.778C142.9 339.058 136.41 340.289 136.41 340.289L136.298 344.094C136.298 344.094 146.257 341.8 151.572 342.527C151.572 342.527 158.51 342.583 161.028 343.142C161.028 343.142 165.448 343.814 166.903 344.373C168.357 344.989 170.763 345.996 170.763 345.996L171.379 346.388Z" fill="#FF5500"/>
<path d="M136.018 340.177V344.15L102.168 335.086V331.393L136.018 340.177Z" fill="#FF5500"/>
<path d="M432.666 282.997V279.192L334.417 253.063L102.671 315.28L102.336 315.336L102.224 319.085L136.074 328.149C136.074 328.149 146.033 325.743 152.859 326.47C152.859 326.47 162.762 326.638 166.622 328.26C170.483 329.827 171.434 330.331 171.434 330.331C171.434 330.331 167.07 332.233 166.51 332.401C165.951 332.513 166.231 332.848 166.231 332.848V336.093L200.081 345.269L432.666 282.997Z" fill="#FF8D19"/>
<path d="M166.175 336.149V332.904L171.379 330.387C171.379 330.387 167.574 327.533 159.573 327.03C151.572 326.526 144.467 326.638 144.467 326.638L135.962 328.149L102.112 319.085V315.336L125.332 309.293L115.317 306.552L314.22 254.35L410.174 279.807L182.513 340.793L166.175 336.149Z" fill="#FF5500"/>
<path d="M200.137 341.408L199.969 345.269L166.175 336.093V332.792L166.455 332.4L200.137 341.408Z" fill="#FF5500"/>
<path d="M171.379 330.33C171.379 330.33 174.68 327.98 170.987 325.966C167.294 323.952 160.356 323.168 160.356 323.168C160.356 323.168 150.565 322.497 146.761 322.721C142.9 322.945 136.41 324.231 136.41 324.231L136.298 328.036C136.298 328.036 146.257 325.742 151.572 326.469C151.572 326.469 158.51 326.525 161.028 327.085C161.028 327.085 165.448 327.756 166.903 328.316C168.357 328.931 170.763 329.938 170.763 329.938L171.379 330.33Z" fill="#FF5500"/>
<path d="M136.018 324.12V328.092L102.168 319.028V315.335L136.018 324.12Z" fill="#FF5500"/>
<path d="M432.666 266.995V263.19L334.417 237.062L102.671 299.222L102.336 299.278L102.224 303.027L136.074 312.091C136.074 312.091 146.033 309.685 152.859 310.412C152.859 310.412 162.762 310.58 166.622 312.203C170.483 313.769 171.434 314.273 171.434 314.273C171.434 314.273 167.07 316.175 166.51 316.343C165.951 316.455 166.231 316.791 166.231 316.791V320.036L200.081 329.212L432.666 266.995Z" fill="#FF8D19"/>
<path d="M200.137 325.407L199.969 329.211L166.175 320.035V316.79L166.455 316.343L200.137 325.407Z" fill="#FF5500"/>
<path d="M166.175 320.091V316.846L171.379 314.328C171.379 314.328 167.574 311.475 159.573 310.971C151.572 310.468 144.467 310.58 144.467 310.58L135.962 312.09L102.112 303.026V299.334L125.332 293.291L115.317 290.549L314.332 238.348L410.286 263.805L182.513 324.735L166.175 320.091Z" fill="#FF5500"/>
<path d="M171.379 314.273C171.379 314.273 174.68 311.923 170.987 309.908C167.294 307.894 160.356 307.111 160.356 307.111C160.356 307.111 150.565 306.44 146.761 306.719C142.9 306.943 136.41 308.23 136.41 308.23L136.298 312.035C136.298 312.035 146.257 309.741 151.572 310.468C151.572 310.468 158.51 310.524 161.028 311.083C161.028 311.083 165.448 311.755 166.903 312.314C168.357 312.874 170.763 313.937 170.763 313.937L171.379 314.273Z" fill="#FF5500"/>
<path d="M135.962 308.118L136.018 312.09L102.168 302.971V299.278L135.962 308.118Z" fill="#FF5500"/>
<path d="M432.666 250.881V247.077L334.417 220.948L102.671 283.165L102.336 283.221L102.224 286.969L136.074 296.033C136.074 296.033 146.033 293.627 152.859 294.355C152.859 294.355 162.762 294.523 166.622 296.145C170.483 297.712 171.434 298.215 171.434 298.215C171.434 298.215 167.07 300.118 166.51 300.285C165.951 300.397 166.231 300.733 166.231 300.733V303.978L200.081 313.154L432.666 250.881Z" fill="#FF8D19"/>
<path d="M200.137 309.293L200.025 313.154L166.175 303.978V300.677L166.455 300.285L200.137 309.293Z" fill="#FF5500"/>
<path d="M171.379 298.215C171.379 298.215 174.68 295.865 170.987 293.851C167.294 291.836 160.356 291.053 160.356 291.053C160.356 291.053 150.565 290.382 146.761 290.605C142.9 290.885 136.41 292.116 136.41 292.116L136.298 295.921C136.298 295.921 146.257 293.627 151.572 294.354C151.572 294.354 158.51 294.41 161.028 294.97C161.028 294.97 165.448 295.641 166.903 296.201C168.357 296.816 170.763 297.823 170.763 297.823L171.379 298.215Z" fill="#FF5500"/>
<path d="M136.018 292.004V295.977L102.168 286.913V283.164L136.018 292.004Z" fill="#FF5500"/>
<path d="M166.175 304.034V300.789L171.379 298.271C171.379 298.271 167.574 295.418 159.573 294.914C151.572 294.411 144.467 294.523 144.467 294.523L135.962 296.033L102.112 286.969V283.221L125.332 277.178L115.317 274.436L314.22 222.235L410.174 247.692L182.513 308.678L166.175 304.034Z" fill="#FF5500"/>
<path d="M432.666 234.711V230.907L334.473 204.778L102.671 266.995L102.336 267.05L102.224 270.799L136.074 279.863C136.074 279.863 146.033 277.457 152.859 278.185C152.859 278.185 162.762 278.352 166.622 279.975C170.483 281.542 171.434 282.045 171.434 282.045C171.434 282.045 167.07 283.947 166.51 284.115C165.951 284.227 166.231 284.563 166.231 284.563V287.808L200.081 296.984L432.666 234.711Z" fill="#FF8D19"/>
<path d="M200.137 293.123L200.025 296.984L166.175 287.808V284.507L166.455 284.115L200.137 293.123Z" fill="#FF5500"/>
<path d="M171.379 282.046C171.379 282.046 174.68 279.696 170.987 277.681C167.294 275.667 160.356 274.884 160.356 274.884C160.356 274.884 150.565 274.213 146.761 274.492C142.9 274.716 136.41 276.003 136.41 276.003L136.298 279.808C136.298 279.808 146.257 277.514 151.572 278.241C151.572 278.241 158.51 278.297 161.028 278.856C161.028 278.856 165.448 279.528 166.903 280.087C168.357 280.703 170.763 281.71 170.763 281.71L171.379 282.046Z" fill="#FF5500"/>
<path d="M136.018 275.835V279.807L102.168 270.744V266.995L136.018 275.835Z" fill="#FF5500"/>
<path d="M166.175 287.809V284.564L171.379 282.046C171.379 282.046 167.574 279.192 159.573 278.689C151.572 278.185 144.467 278.297 144.467 278.297L135.962 279.808L102.112 270.744V266.995L125.332 260.953L115.317 258.211L314.22 206.01L410.174 231.467L182.513 292.453L166.175 287.809Z" fill="#FF5500"/>
<path d="M432.666 218.598V214.793L334.417 188.664L102.671 250.825L102.336 250.881L102.224 254.63L136.074 263.694C136.074 263.694 146.033 261.288 152.859 262.015C152.859 262.015 162.762 262.183 166.622 263.806C170.483 265.372 171.434 265.876 171.434 265.876C171.434 265.876 167.07 267.778 166.51 267.946C165.951 268.058 166.231 268.393 166.231 268.393V271.639L200.081 280.814L432.666 218.598Z" fill="#FF8D19"/>
<path d="M200.137 277.01L200.025 280.87L166.175 271.639V268.393L166.455 267.946L200.137 277.01Z" fill="#FF5500"/>
<path d="M171.379 265.876C171.379 265.876 174.68 263.526 170.987 261.512C167.294 259.498 160.356 258.714 160.356 258.714C160.356 258.714 150.565 258.043 146.761 258.267C142.9 258.49 136.41 259.777 136.41 259.777L136.298 263.582C136.298 263.582 146.257 261.288 151.572 262.015C151.572 262.015 158.51 262.071 161.028 262.631C161.028 262.631 165.448 263.302 166.903 263.862C168.357 264.477 170.763 265.484 170.763 265.484L171.379 265.876Z" fill="#FF5500"/>
<path d="M136.018 259.721V263.693L102.168 254.63V250.881L136.018 259.721Z" fill="#FF5500"/>
<path d="M333.802 2.85342V141.107L289.49 152.968L265.487 187.377L258.101 184.86L238.127 166.9L196.948 177.81L189.786 175.18L189.898 37.1509L326.137 0.391602L333.802 2.85342Z" fill="#FF74BA"/>
<path d="M197.283 39.6682L189.898 37.1504L189.786 175.18L196.948 177.809L197.283 39.6682Z" fill="#FF006E"/>
<path d="M264.703 187.097L264.032 185.922L241.428 165.5L238.127 166.899L258.101 184.859L264.703 187.097Z" fill="#FF006E"/>
<path d="M333.803 2.85342L326.137 0.391602L189.898 37.1509L197.284 39.6687L333.803 2.85342Z" fill="#FF80DF"/>
<path d="M233.707 88.6252L244.897 85.0444L249.541 86.7229L250.436 82.5266L250.883 80.0089L258.94 69.5462L267.892 58.3002L269.851 57.5168L271.193 57.7966L276.565 59.587L278.914 60.9858L279.81 62.4964V63.8952L278.075 74.3579L278.97 73.7984L290.049 70.889L296.595 72.9591L298.945 74.0781L300.008 75.4209L300.343 77.2113L300.288 84.373L299.896 85.7717L289.993 109.271L289.042 110.67L287.867 112.18L286.188 113.355L285.069 113.803L261.962 119.845L260.227 119.79L257.933 118.95L253.121 117.44L251.499 116.824L251.443 122.195L240.365 124.881L239.581 125.161L233.203 123.202L233.707 88.6252Z" fill="white"/>
<path d="M233.707 88.6252L240.477 90.8073L240.365 124.881L233.203 123.203L233.707 88.6252Z" fill="#E6E6E6"/>
<path d="M250.436 82.5269L257.206 84.3173L256.311 86.891V113.076L256.647 116.657L258.717 119.23L253.122 117.44L251.443 116.209L251.499 87.5064L249.541 86.7231L249.765 83.8137L250.436 82.5269Z" fill="#E6E6E6"/>
<path d="M280.37 73.5186L286.468 75.309L277.572 78.2184L278.076 74.3578L280.37 73.5186Z" fill="#E6E6E6"/>
<path d="M265.487 188.105L241.316 166.396L196.724 178.37V39.2213L334.137 2.40601V141.498L289.657 153.416L265.487 188.105ZM241.54 165.445L265.319 186.818L289.098 152.688L333.242 140.883V3.52501L197.507 39.8927V177.251L241.54 165.445Z" fill="black"/>
<path d="M196.724 178.314L189.282 175.572V36.7034L326.248 0L334.137 2.40586L333.914 3.18916L326.248 0.895208L190.121 37.3748V175.012L197.003 177.53L196.724 178.314Z" fill="black"/>
<path d="M265.543 188.105L257.766 185.307L237.735 167.291L238.295 166.676L258.213 184.58L265.822 187.322L265.543 188.105Z" fill="black"/>
<path d="M189.909 36.8133L189.665 37.6162L197.105 39.8786L197.35 39.0757L189.909 36.8133Z" fill="black"/>
<path d="M239.974 125.721V90.2485L251.947 87.0593V122.532L239.974 125.721ZM240.813 90.8639V124.602L251.108 121.86V88.1224L240.813 90.8639Z" fill="black"/>
<path d="M261.235 120.349C260.06 120.349 258.941 120.014 257.99 119.286C256.591 118.223 255.808 116.489 255.808 114.474V89.5206C255.808 85.7719 257.262 81.7995 259.78 78.5543L273.712 60.6503C274.327 59.811 275.222 59.3074 276.118 59.1955C276.789 59.1396 277.404 59.3075 277.852 59.6991L279.027 60.6503C279.922 61.3776 280.37 62.6645 280.09 64.0632L277.796 77.6032L294.917 73.0153C296.428 72.6236 297.826 72.8474 298.945 73.6867C300.064 74.5819 300.68 75.9247 300.68 77.6032V83.1982C300.68 84.2613 300.456 85.3803 300.008 86.4993L290.329 109.495C289.378 111.789 287.42 113.635 285.237 114.195L262.913 120.181C262.354 120.237 261.794 120.349 261.235 120.349ZM276.509 59.9789C276.453 59.9789 276.397 59.9789 276.285 59.9789C275.614 60.0348 274.943 60.4824 274.439 61.0979L260.507 79.002C258.102 82.0792 256.703 85.8838 256.703 89.4646V114.418C256.703 116.209 257.374 117.664 258.549 118.559C259.668 119.398 261.179 119.678 262.745 119.23L285.07 113.244C286.972 112.74 288.762 111.061 289.602 109.047L299.281 86.0517C299.673 85.1005 299.896 84.0375 299.896 83.0863V77.4913C299.896 76.0925 299.393 74.9735 298.498 74.2462C297.602 73.5748 296.428 73.4069 295.197 73.7426L276.845 78.6663L279.307 63.8394C279.475 62.7764 279.195 61.7693 278.523 61.2098L277.348 60.2586C277.181 60.0908 276.845 59.9789 276.509 59.9789Z" fill="black"/>
<path d="M233.987 123.202H233.147V88.2893L245.009 85.0442L251.947 86.9465L251.723 87.7857L245.009 85.9394L233.987 88.9048V123.202Z" fill="black"/>
<path d="M278.075 74.5256L277.852 73.7423L288.258 70.9448C289.154 70.721 290.049 70.665 290.832 70.8888L290.608 71.6721C289.937 71.5043 289.209 71.5043 288.426 71.7281L278.075 74.5256Z" fill="black"/>
<path d="M249.989 86.8905H249.149C249.149 83.3097 250.436 79.8968 253.122 76.4838L267.054 58.5797C267.669 57.7404 268.564 57.2369 269.459 57.125C270.131 57.069 270.746 57.2369 271.194 57.6285L270.69 58.3C270.411 58.0762 270.019 57.9643 269.571 58.0202C268.9 58.0762 268.228 58.5238 267.725 59.1392L253.793 77.0433C251.22 80.2884 249.989 83.4776 249.989 86.8905Z" fill="black"/>
<path d="M200.361 293.683L200.249 293.627L165 284.172L166.511 283.78C170.203 282.773 172.441 281.43 172.441 280.143C172.441 278.856 170.203 277.514 166.511 276.506C158.286 274.324 144.914 274.324 136.689 276.506L136.577 276.562L136.465 276.506L101.217 267.051L125.499 260.561L125.723 261.344L104.462 267.051L136.577 275.667C144.914 273.429 158.454 273.485 166.735 275.723C170.987 276.898 173.281 278.409 173.281 280.143C173.281 281.71 171.546 283.053 168.189 284.172L200.361 292.788L430.54 231.019L408.831 225.2L409.055 224.417L433.785 231.075L200.361 293.683Z" fill="black"/>
<path d="M235.886 270.855L235.667 271.665L238.907 272.543L239.127 271.733L235.886 270.855Z" fill="black"/>
<path d="M244.665 273.216L244.445 274.026L249.954 275.519L250.173 274.709L244.665 273.216Z" fill="black"/>
<path d="M255.703 276.203L255.483 277.013L258.724 277.891L258.943 277.081L255.703 276.203Z" fill="black"/>
<path d="M171.211 282.437C170.092 281.822 167.686 280.703 166.063 280.255C157.783 278.017 144.355 278.017 136.13 280.255L136.018 280.311L135.906 280.255L101.776 271.079V267.051H102.616V270.464L136.018 279.416C144.41 277.178 157.95 277.234 166.287 279.472C168.189 279.975 170.707 281.206 171.602 281.71L171.211 282.437Z" fill="black"/>
<path d="M199.969 297.488L199.913 297.432L165.728 288.256V284.228H166.567V287.641L199.969 296.593L432.275 234.208V230.963H433.114V234.823L432.778 234.935L199.969 297.488Z" fill="black"/>
<path d="M259.109 277.514H258.27V281.206H259.109V277.514Z" fill="black"/>
<path d="M200.361 309.741L200.249 309.685L165 300.229L166.511 299.837C170.203 298.83 172.441 297.487 172.441 296.201C172.441 294.914 170.203 293.571 166.511 292.564C158.286 290.382 144.914 290.382 136.689 292.564L136.577 292.62L136.465 292.564L101.217 283.108L125.499 276.618L125.723 277.401L104.462 283.108L136.577 291.725C144.914 289.487 158.454 289.543 166.735 291.781C170.987 292.955 173.281 294.466 173.281 296.201C173.281 297.767 171.546 299.11 168.189 300.229L200.361 308.845L430.54 247.076L408.831 241.257L409.055 240.474L433.785 247.132L200.361 309.741Z" fill="black"/>
<path d="M235.937 286.959L235.718 287.769L238.958 288.647L239.178 287.837L235.937 286.959Z" fill="black"/>
<path d="M244.685 289.313L244.466 290.123L249.974 291.616L250.194 290.806L244.685 289.313Z" fill="black"/>
<path d="M255.719 292.324L255.5 293.134L258.74 294.012L258.96 293.202L255.719 292.324Z" fill="black"/>
<path d="M171.211 298.55C170.092 297.935 167.686 296.816 166.063 296.368C157.783 294.13 144.355 294.13 136.13 296.368L136.018 296.424L135.906 296.368L101.776 287.192V283.164H102.616V286.577L136.018 295.529C144.41 293.291 157.95 293.347 166.287 295.585C168.189 296.088 170.707 297.319 171.602 297.823L171.211 298.55Z" fill="black"/>
<path d="M199.969 313.545H199.913L165.728 304.369V300.341H166.567V303.698L199.969 312.706L432.275 250.265V247.076H433.114V250.937L432.778 250.992L199.969 313.545Z" fill="black"/>
<path d="M259.109 293.627H258.27V297.32H259.109V293.627Z" fill="black"/>
<path d="M200.361 325.855L200.249 325.799L165 316.343L166.511 315.952C170.203 314.945 172.441 313.602 172.441 312.315C172.441 311.028 170.203 309.685 166.511 308.678C158.286 306.496 144.914 306.496 136.689 308.678L136.577 308.734L136.465 308.678L101.217 299.222L125.499 292.732L125.723 293.516L104.462 299.222L136.577 307.839C144.914 305.601 158.454 305.657 166.735 307.895C170.987 309.07 173.281 310.58 173.281 312.315C173.281 313.881 171.546 315.224 168.189 316.343L200.361 324.96L430.54 263.191L408.831 257.372L409.055 256.588L433.785 263.246L200.361 325.855Z" fill="black"/>
<path d="M235.904 303.043L235.685 303.853L238.925 304.731L239.144 303.921L235.904 303.043Z" fill="black"/>
<path d="M244.653 305.396L244.434 306.206L249.942 307.698L250.161 306.888L244.653 305.396Z" fill="black"/>
<path d="M255.686 308.408L255.467 309.218L258.707 310.096L258.926 309.285L255.686 308.408Z" fill="black"/>
<path d="M171.211 314.609C170.092 313.993 167.686 312.874 166.063 312.427C157.783 310.189 144.355 310.189 136.13 312.427L136.018 312.483L135.906 312.427L101.776 303.251V299.222H102.616V302.635L136.018 311.587C144.41 309.349 157.95 309.405 166.287 311.643C168.189 312.147 170.707 313.378 171.602 313.881L171.211 314.609Z" fill="black"/>
<path d="M199.969 329.659L199.913 329.603L165.728 320.484V316.399H166.567V319.812L199.969 328.764L432.275 266.38V263.135H433.114V266.995L432.778 267.107L199.969 329.659Z" fill="black"/>
<path d="M259.109 309.685H258.27V313.377H259.109V309.685Z" fill="black"/>
<path d="M200.361 341.912L200.249 341.856L165 332.4L166.511 332.009C170.203 331.002 172.441 329.659 172.441 328.372C172.441 327.085 170.203 325.742 166.511 324.735C158.286 322.553 144.914 322.553 136.689 324.735L136.577 324.791L136.465 324.735L101.217 315.28L125.499 308.789L125.723 309.573L104.462 315.28L136.577 323.896C144.914 321.658 158.454 321.714 166.735 323.952C170.987 325.127 173.281 326.638 173.281 328.372C173.281 329.939 171.546 331.281 168.189 332.4L200.361 341.017L430.54 279.248L408.831 273.429L409.055 272.646L433.785 279.304L200.361 341.912Z" fill="black"/>
<path d="M235.925 319.141L235.705 319.951L238.945 320.829L239.165 320.019L235.925 319.141Z" fill="black"/>
<path d="M244.673 321.492L244.453 322.302L249.961 323.795L250.181 322.985L244.673 321.492Z" fill="black"/>
<path d="M255.712 324.48L255.492 325.29L258.732 326.168L258.952 325.358L255.712 324.48Z" fill="black"/>
<path d="M171.211 330.722C170.092 330.106 167.686 328.987 166.063 328.539C157.783 326.301 144.355 326.301 136.13 328.539L136.018 328.595L135.906 328.539L101.776 319.364V315.335H102.616V318.748L136.018 327.7C144.41 325.462 157.95 325.518 166.287 327.756C168.189 328.26 170.707 329.491 171.602 329.994L171.211 330.722Z" fill="black"/>
<path d="M199.969 345.716H199.913L165.728 336.54V332.512H166.567V335.925L199.969 344.877L432.275 282.436V279.247H433.114V283.108L432.778 283.164L199.969 345.716Z" fill="black"/>
<path d="M259.109 325.799H258.27V329.491H259.109V325.799Z" fill="black"/>
<path d="M200.361 358.026L200.249 357.97L165 348.514L166.511 348.123C170.203 347.116 172.441 345.773 172.441 344.486C172.441 343.199 170.203 341.856 166.511 340.849C158.286 338.667 144.914 338.667 136.689 340.849L136.577 340.905L136.465 340.849L101.217 331.394L125.499 324.903L125.723 325.687L104.462 331.394L136.577 340.01C144.914 337.772 158.454 337.828 166.735 340.066C170.987 341.241 173.281 342.751 173.281 344.486C173.281 346.053 171.546 347.395 168.189 348.514L200.361 357.131L430.54 295.418L408.831 289.599L409.055 288.815L433.785 295.473L200.361 358.026Z" fill="black"/>
<path d="M235.946 335.24L235.727 336.05L238.967 336.928L239.186 336.118L235.946 335.24Z" fill="black"/>
<path d="M244.64 337.576L244.421 338.386L249.929 339.879L250.149 339.069L244.64 337.576Z" fill="black"/>
<path d="M255.732 340.577L255.513 341.387L258.753 342.265L258.972 341.455L255.732 340.577Z" fill="black"/>
<path d="M171.211 346.78C170.092 346.165 167.686 345.046 166.063 344.598C157.783 342.36 144.355 342.36 136.13 344.598L136.018 344.654L135.906 344.598L101.776 335.422V331.394H102.616V334.807L136.018 343.759C144.41 341.521 157.95 341.577 166.287 343.815C168.189 344.318 170.707 345.549 171.602 346.053L171.211 346.78Z" fill="black"/>
<path d="M199.969 361.831L199.913 361.775L165.728 352.655V348.571H166.567V351.983L199.969 360.936L432.275 298.551V295.362H433.114V299.222L432.778 299.278L199.969 361.831Z" fill="black"/>
<path d="M259.109 341.856H258.27V345.549H259.109V341.856Z" fill="black"/>
<path d="M200.361 374.139L200.249 374.083L165 364.628L166.511 364.236C170.203 363.229 172.441 361.886 172.441 360.599C172.441 359.313 170.203 357.97 166.511 356.963C158.286 354.781 144.914 354.781 136.689 356.963L136.577 357.019L136.465 356.963L101.217 347.507L125.499 341.017L125.723 341.8L104.462 347.507L136.577 356.123C144.914 353.885 158.454 353.941 166.735 356.179C170.987 357.354 173.281 358.865 173.281 360.599C173.281 362.166 171.546 363.509 168.189 364.628L200.361 373.244L430.54 311.475L408.831 305.656L409.055 304.873L433.785 311.531L200.361 374.139Z" fill="black"/>
<path d="M235.88 351.313L235.66 352.124L238.9 353.001L239.12 352.191L235.88 351.313Z" fill="black"/>
<path d="M244.66 353.673L244.44 354.483L249.949 355.975L250.168 355.165L244.66 353.673Z" fill="black"/>
<path d="M255.699 356.659L255.479 357.469L258.72 358.347L258.939 357.537L255.699 356.659Z" fill="black"/>
<path d="M171.211 362.894C170.092 362.278 167.686 361.159 166.063 360.712C157.783 358.474 144.355 358.474 136.13 360.712L136.018 360.768L135.906 360.712L101.776 351.536V347.507H102.616V350.92L136.018 359.872C144.41 357.634 157.95 357.69 166.287 359.928C168.189 360.432 170.707 361.663 171.602 362.166L171.211 362.894Z" fill="black"/>
<path d="M199.969 377.944L199.913 377.888L165.728 368.713V364.684H166.567V368.097L199.969 377.049L432.275 314.665V311.419H433.114V315.28L432.778 315.392L199.969 377.944Z" fill="black"/>
<path d="M259.109 357.97H258.27V361.662H259.109V357.97Z" fill="black"/>
<path d="M200.193 277.514L200.081 277.458L164.832 268.002L166.343 267.61C170.036 266.603 172.274 265.26 172.274 263.974C172.274 262.687 170.036 261.344 166.343 260.337C158.118 258.155 144.746 258.155 136.521 260.337L136.409 260.393L136.298 260.337L101.049 250.881L334.417 188.329L334.529 188.385L433.561 214.961L200.193 277.514ZM168.021 268.002L200.193 276.618L430.372 214.849L334.473 189.112L104.294 250.937L136.409 259.554C144.746 257.316 158.286 257.371 166.567 259.61C170.819 260.784 173.113 262.295 173.113 264.03C173.113 265.54 171.378 266.939 168.021 268.002Z" fill="black"/>
<path d="M161.471 234.859L161.253 235.669L164.495 236.54L164.713 235.729L161.471 234.859Z" fill="black"/>
<path d="M249.429 259.33L243.386 257.707L243.61 256.924L249.653 258.546L249.429 259.33ZM237.288 256.085L231.245 254.462L231.469 253.679L237.512 255.301L237.288 256.085ZM225.147 252.84L219.104 251.217L219.328 250.434L225.37 252.056L225.147 252.84ZM213.005 249.538L206.963 247.916L207.186 247.133L213.229 248.755L213.005 249.538ZM200.864 246.293L194.821 244.671L195.045 243.887L201.088 245.51L200.864 246.293ZM188.723 243.048L182.68 241.426L182.904 240.642L188.947 242.265L188.723 243.048ZM176.582 239.803L170.539 238.181L170.763 237.397L176.805 239.02L176.582 239.803Z" fill="black"/>
<path d="M255.757 260.128L255.54 260.938L258.783 261.808L259 260.998L255.757 260.128Z" fill="black"/>
<path d="M171.211 266.324C170.092 265.708 167.686 264.589 166.063 264.142C157.783 261.903 144.355 261.903 136.13 264.142L136.018 264.197L135.906 264.142L101.776 254.966V250.937H102.616V254.35L136.018 263.302C144.41 261.064 157.95 261.12 166.287 263.358C168.189 263.862 170.707 265.093 171.602 265.596L171.211 266.324Z" fill="black"/>
<path d="M199.969 281.374L199.913 281.318L165.728 272.198V268.114H166.567V271.527L199.969 280.479L432.275 218.094V214.905H433.114V218.71L432.778 218.822L199.969 281.374Z" fill="black"/>
<path d="M259.109 261.4H258.27V265.093H259.109V261.4Z" fill="black"/>
<path d="M200.584 277.066H199.745V280.759H200.584V277.066Z" fill="black"/>
<path d="M136.578 259.889H135.738V263.582H136.578V259.889Z" fill="black"/>
<path d="M136.578 276.115H135.738V279.807H136.578V276.115Z" fill="black"/>
<path d="M136.578 292.34H135.738V296.033H136.578V292.34Z" fill="black"/>
<path d="M136.578 308.286H135.738V311.979H136.578V308.286Z" fill="black"/>
<path d="M136.578 324.512H135.738V328.205H136.578V324.512Z" fill="black"/>
<path d="M136.578 340.402H135.738V344.206H136.578V340.402Z" fill="black"/>
<path d="M136.578 356.627H135.738V360.432H136.578V356.627Z" fill="black"/>
<path d="M200.584 293.292H199.745V296.984H200.584V293.292Z" fill="black"/>
<path d="M200.584 309.517H199.745V313.21H200.584V309.517Z" fill="black"/>
<path d="M200.584 325.183H199.745V329.156H200.584V325.183Z" fill="black"/>
<path d="M200.584 341.409H199.745V345.102H200.584V341.409Z" fill="black"/>
<path d="M200.584 357.635H199.745V361.327H200.584V357.635Z" fill="black"/>
<path d="M200.584 373.637H199.745V377.553H200.584V373.637Z" fill="black"/>
<path d="M233.705 88.2933L233.461 89.0962L240.366 91.1958L240.61 90.3929L233.705 88.2933Z" fill="black"/>
<path d="M233.358 122.862L233.113 123.665L240.018 125.766L240.263 124.963L233.358 122.862Z" fill="black"/>
<path d="M260.563 120.293L253.681 118.223C253.625 118.223 252.114 117.775 251.331 116.936L251.946 116.376C252.562 117.048 253.905 117.44 253.905 117.44L260.787 119.566L260.563 120.293Z" fill="black"/>
<path d="M290.483 70.6924L290.238 71.4954L297.143 73.5957L297.388 72.7928L290.483 70.6924Z" fill="black"/>
<path d="M269.975 57.159L269.73 57.9619L276.636 60.0615L276.88 59.2586L269.975 57.159Z" fill="black"/>
</svg>
