<svg width="125" height="80" viewBox="0 0 125 80" fill="none" xmlns="http://www.w3.org/2000/svg">
<path fill-rule="evenodd" clip-rule="evenodd" d="M0 0H125V29.646H0V0ZM17.9204 20.133L20.1328 9.66098H17.9204L16.888 15.9294L15.6343 9.66098H14.0856L12.8319 15.9294H12.7582L11.652 9.66098H9.43959L11.7257 20.133H13.3481L14.7493 13.422H14.8231L16.298 20.133H17.9204ZM26.8432 15.413C26.8432 19.1741 25.8845 20.2066 23.5246 20.2066C21.3859 20.2066 20.206 19.4691 20.206 15.4868V13.9381C20.206 10.5458 21.3859 9.36584 23.5246 9.36584C25.8845 9.36584 26.8432 10.6933 26.8432 14.0119V15.413ZM24.6308 15.708V14.0119C24.6308 12.4632 24.557 11.2832 23.5246 11.2832C22.4184 11.2832 22.4184 12.5369 22.4184 14.0119V15.708C22.4184 15.7905 22.4181 15.8724 22.4179 15.9538V15.9538V15.9538V15.9538V15.9539V15.9539V15.9539V15.954V15.954V15.954V15.954V15.9541V15.9541V15.9541V15.9542V15.9542V15.9542V15.9542V15.9543C22.414 17.3275 22.4107 18.5104 23.5246 18.5104C24.6391 18.5104 24.6351 17.1944 24.6312 15.9298V15.9293C24.631 15.8553 24.6308 15.7814 24.6308 15.708ZM30.5313 16.4456L31.6375 20.133H33.9237L32.375 15.8557C33.1862 15.2657 33.6287 14.2333 33.6287 12.9796C33.6287 9.66098 31.2688 9.66098 30.3101 9.66098H27.6552V20.133H29.7939V16.4456H30.5313ZM29.7939 14.6757V11.2834H30.3839C31.2688 11.2834 31.4901 11.8734 31.4901 12.9796C31.4901 14.2333 31.1951 14.6757 30.1626 14.6757H29.7939ZM36.6516 9.66098V18.1418H38.6427V20.133H34.5129V9.66098H36.6516ZM39.3809 9.66098V20.133H41.5933C44.7644 20.133 45.6493 18.363 45.6493 14.897C45.6493 10.3247 43.8057 9.66098 41.5196 9.66098H39.3809ZM41.5196 11.5046H41.7408C43.3632 11.5046 43.437 12.9058 43.437 14.8232C43.437 17.0356 43.2895 18.2893 41.8145 18.2893H41.5196V11.5046ZM51.1804 16.7405V20.1328H49.0418V9.5871H51.6966C52.6553 9.5871 55.0152 9.73459 55.0152 13.0532C55.0152 15.4131 53.909 16.6667 51.9916 16.6667L51.1804 16.7405ZM51.1804 11.2833V14.9706H51.5491C52.5816 14.9706 52.8766 14.4544 52.8766 13.0532C52.8766 11.947 52.6553 11.2095 51.7704 11.2095L51.1804 11.2833ZM57.744 16.4456H58.4815L59.5877 20.133H61.8738L60.3252 15.8557C61.1364 15.2657 61.5788 14.2333 61.5788 12.9796C61.5788 9.66098 59.219 9.66098 58.2603 9.66098H55.6054V20.133H57.744V16.4456ZM57.744 14.6757V11.2834H58.334C59.219 11.2834 59.4402 11.8734 59.4402 12.9796C59.4402 14.2333 59.1452 14.6757 58.1128 14.6757H57.744ZM67.1833 9.66098V11.5784H64.6022V13.7908H66.8146V15.7819H64.6022V18.1418H67.1833V20.133H62.4636V9.66098H67.1833ZM71.0178 11.2832C71.6078 11.2832 72.1978 11.4307 72.714 11.7257L72.8615 9.58701C72.2715 9.29202 71.4603 9.29202 70.7228 9.29202C68.7317 9.29202 67.6992 10.5457 67.6992 12.3894C67.6992 14.233 68.5842 14.9705 69.5429 15.3392C70.4279 15.7079 71.0178 16.0029 71.0178 17.0354C71.0178 17.9203 70.5016 18.1416 69.6904 18.1416C69.0267 18.1416 68.4367 17.9941 67.8467 17.6991V19.9115C68.4367 20.1327 69.0267 20.2065 69.6904 20.2065C71.9765 20.2065 73.0827 18.9528 73.0827 16.9616C73.0827 14.9705 71.9765 14.3068 71.0178 13.938C70.2804 13.6431 69.8379 13.2743 69.8379 12.3894C69.8379 11.6519 70.1329 11.2832 71.0178 11.2832ZM78.5403 11.7257C78.024 11.4307 77.4341 11.2832 76.8441 11.2832C75.9591 11.2832 75.6642 11.6519 75.6642 12.3894C75.6642 13.2743 76.1066 13.6431 76.8441 13.938C77.8028 14.3068 78.909 14.9705 78.909 16.9616C78.909 18.9528 77.8028 20.2065 75.5167 20.2065C74.8529 20.2065 74.263 20.1327 73.673 19.9115V17.6991C74.263 17.9941 74.8529 18.1416 75.5167 18.1416C76.3279 18.1416 76.8441 17.9203 76.8441 17.0354C76.8441 16.0029 76.2541 15.7079 75.3692 15.3392C74.4105 14.9705 73.5255 14.233 73.5255 12.3894C73.5255 10.5457 74.558 9.29202 76.5491 9.29202C77.2866 9.29202 78.0978 9.29202 78.6878 9.58701L78.5403 11.7257ZM84.2921 20.1328V16.7405L85.1033 16.6667C87.0207 16.6667 88.1269 15.4131 88.1269 13.0532C88.1269 9.73459 85.767 9.5871 84.8083 9.5871H82.1535V20.1328H84.2921ZM84.2921 14.9706V11.2833L84.8821 11.2095C85.767 11.2095 85.9883 11.947 85.9883 13.0532C85.9883 14.4544 85.6933 14.9706 84.6608 14.9706H84.2921ZM90.8557 9.66098V13.7908H92.8469V9.66098H94.9855V20.133H92.8469V15.5607H90.8557V20.133H88.7171V9.66098H90.8557ZM99.1157 20.2066C101.476 20.2066 102.434 19.1741 102.434 15.413V14.0119C102.434 10.6933 101.476 9.36584 99.1157 9.36584C96.9771 9.36584 95.7972 10.5458 95.7972 13.9381V15.4868C95.7972 19.4691 96.9771 20.2066 99.1157 20.2066ZM100.296 14.0119V15.708L100.296 15.8133L100.296 15.9297C100.3 17.1871 100.304 18.4407 99.1895 18.5104C98.0756 18.5104 98.079 17.3275 98.0828 15.9543L98.0833 15.7789L98.0833 15.708V14.0119C98.0833 12.5369 98.0833 11.2832 99.1895 11.2832C100.222 11.2832 100.296 12.4632 100.296 14.0119ZM108.112 9.66098V11.5784H106.49V20.133H104.351V11.5784H102.728V9.66098H108.112ZM111.652 20.2066C114.012 20.2066 114.971 19.1741 114.971 15.413V14.0119C114.971 10.6933 114.012 9.36584 111.652 9.36584C109.514 9.36584 108.334 10.5458 108.334 13.9381V15.4868C108.334 19.4691 109.514 20.2066 111.652 20.2066ZM112.832 14.0119V15.708C112.832 15.7814 112.833 15.8553 112.833 15.9293V15.9298C112.837 17.1944 112.841 18.5104 111.726 18.5104C110.612 18.5104 110.616 17.3275 110.62 15.9543L110.62 15.8696L110.62 15.708V14.0119C110.62 12.5369 110.62 11.2832 111.726 11.2832C112.759 11.2832 112.832 12.4632 112.832 14.0119ZM69.0272 55.7979C66.4688 55.7763 64.5041 54.5661 63.6233 52.3925C63.5395 52.1856 63.476 51.9693 63.4181 51.7533C63.1746 50.8454 63.2527 50.7639 64.1934 50.8586C64.4095 50.8803 64.5024 50.9424 64.5527 51.17C65.1962 54.0802 67.7458 54.825 69.9038 54.6033C70.452 54.547 70.9915 54.4312 71.5077 54.2288C72.9953 53.6457 73.8372 52.3726 73.703 50.9121C73.5793 49.5669 72.4895 48.4256 70.9753 48.1579C70.2899 48.0368 69.5987 47.95 68.9073 47.8632C68.3842 47.7975 67.861 47.7318 67.3404 47.6512C64.2715 47.1763 62.7281 44.1136 64.3002 41.6186C65.085 40.3731 66.2667 39.7071 67.6777 39.3907C70.0629 38.8559 72.5837 39.7353 73.8311 41.5498C74.1821 42.0604 74.4369 42.615 74.5399 43.2262C74.5462 43.2635 74.5581 43.3065 74.5706 43.3516C74.6254 43.5496 74.6916 43.7889 74.3468 43.7731C74.2587 43.769 74.16 43.7887 74.0591 43.8088C73.7723 43.8659 73.4679 43.9266 73.3396 43.4569C73.2434 43.105 73.134 42.7479 72.9676 42.4256C72.601 41.7155 72.0444 41.1836 71.3037 40.8659C69.865 40.2489 68.4044 40.2172 66.9619 40.8153C65.9203 41.2471 65.2075 42.0203 65.0315 43.1657C64.7522 44.9827 65.7754 46.1945 67.7307 46.4298C68.7633 46.5541 69.7959 46.6788 70.8266 46.8177C73.191 47.1363 74.8808 48.8353 74.9531 50.9546C75.0329 53.2974 73.5114 55.0979 71.0284 55.6109C70.4507 55.7302 69.8661 55.758 69.1878 55.7903L69.0272 55.7979ZM60.3971 51.8504C60.8937 50.4435 60.9472 48.9774 60.9681 47.7144C60.9649 46.2815 60.9002 45.0612 60.609 43.8653C59.9268 41.0633 57.7346 39.2848 54.9041 39.2256C52.2235 39.1696 49.9067 40.8718 49.1931 43.5974C48.4949 46.2637 48.5044 48.9793 49.248 51.6377C49.9623 54.1914 52.1227 55.7426 54.803 55.7962C57.3537 55.8471 59.5265 54.3166 60.3971 51.8504ZM49.9718 47.64L49.9655 47.4458C49.9726 47.2937 49.9789 47.1411 49.9852 46.9882C50.0309 45.8788 50.0773 44.7536 50.4299 43.6624C51.0857 41.6326 52.7101 40.4297 54.822 40.4259C56.9828 40.4221 58.6853 41.5954 59.2594 43.6675C59.9575 46.1869 59.9482 48.7585 59.2831 51.2799C58.7038 53.476 56.814 54.7494 54.6081 54.6191C52.2728 54.4811 50.6615 52.9799 50.2079 50.5158C50.0342 49.572 50.0034 48.6167 49.9718 47.64V47.64ZM115.37 47.4906C115.365 47.6095 115.36 47.728 115.355 47.8459C115.304 49.1099 115.254 50.318 114.909 51.4963C114.139 54.1245 111.972 55.7856 109.265 55.7971C106.609 55.8085 104.385 54.2328 103.645 51.642C102.887 48.9852 102.887 46.2669 103.583 43.6003C104.293 40.8753 106.629 39.1604 109.292 39.2262C112.165 39.297 114.343 41.0868 115.018 43.9183C115.264 44.9508 115.308 46.001 115.349 47.0061L115.349 47.0087L115.349 47.0116L115.359 47.2442C115.362 47.3267 115.366 47.4088 115.37 47.4906ZM114.107 47.8439C114.111 46.588 114.075 45.6316 113.921 44.6827C113.511 42.1469 111.825 40.5113 109.533 40.4269C107.022 40.3344 105.209 41.6971 104.674 44.241C104.205 46.4751 104.196 48.7465 104.725 50.9765C105.275 53.2917 106.979 54.6191 109.233 54.621C111.517 54.6228 113.201 53.2674 113.793 50.9464C114.066 49.8772 114.088 48.7843 114.105 47.9521L114.107 47.8439ZM9.57496 45.6005C9.57417 46.2341 9.57338 46.8677 9.57337 47.5014C9.57337 48.1539 9.57471 48.8064 9.57605 49.4589C9.57973 51.2566 9.58342 53.0543 9.55902 54.8515C9.55144 55.4102 9.72523 55.5161 10.2457 55.5117C13.2265 55.4865 16.2076 55.4922 19.1885 55.5074C19.6224 55.5096 19.8425 55.4654 19.8279 54.9326C19.8147 54.4505 19.6851 54.3202 19.209 54.3242C18.0441 54.334 16.8792 54.3333 15.7142 54.3325C14.3065 54.3316 12.8988 54.3307 11.4914 54.3484C10.9097 54.3558 10.7796 54.1659 10.7889 53.6229C10.8195 51.8471 10.8183 50.0702 10.789 48.2943C10.7808 47.7953 10.9017 47.6363 11.4249 47.6434C12.5451 47.6585 13.6657 47.6575 14.7862 47.6564H14.787C15.9122 47.6554 17.0374 47.6543 18.1623 47.6697C18.6578 47.6764 18.7148 47.4969 18.7191 47.0745C18.7236 46.6364 18.631 46.4745 18.1517 46.4799C16.9118 46.494 15.6718 46.4933 14.4318 46.4925H14.4308C13.4048 46.4919 12.3787 46.4913 11.3528 46.4991C10.9308 46.5023 10.7859 46.3809 10.7921 45.9476C10.8142 44.3962 10.8187 42.8439 10.7899 41.2927C10.7808 40.801 10.9435 40.6776 11.4176 40.6815C12.6612 40.6915 13.9048 40.6912 15.1485 40.6909C16.5183 40.6905 17.8881 40.6902 19.2578 40.7037C19.7416 40.7085 19.8153 40.5432 19.8238 40.1114C19.833 39.6483 19.6961 39.5339 19.241 39.537C16.2193 39.5575 13.1973 39.5586 10.1757 39.5364C9.68958 39.5329 9.55893 39.6741 9.56321 40.1511C9.5795 41.9674 9.57723 43.784 9.57496 45.6005ZM36.0855 47.4991C36.0856 46.8762 36.0862 46.2532 36.0868 45.6302C36.0887 43.7824 36.0906 41.9346 36.0762 40.0869C36.0728 39.66 36.1884 39.532 36.6211 39.5378C37.9724 39.5561 39.324 39.5529 40.6755 39.5496C41.0801 39.5486 41.4847 39.5476 41.8892 39.5472C42.423 39.5467 42.9503 39.6113 43.4659 39.7378C45.787 40.307 47.0781 42.077 46.9254 44.4628C46.7608 47.0365 45.3054 48.5953 42.8013 48.8813C41.5663 49.0223 40.3277 49.0032 39.0896 48.9842H39.0894H39.0893H39.0891H39.0889H39.0887H39.0886H39.0884H39.0882H39.0881C38.6939 48.9781 38.2999 48.972 37.906 48.9711C37.3978 48.97 37.2504 49.1073 37.2593 49.6178C37.2758 50.5634 37.2742 51.5093 37.2726 52.4553V52.4559C37.2712 53.2659 37.2698 54.0759 37.2798 54.8858C37.2854 55.3371 37.2029 55.5328 36.6873 55.5187C36.2208 55.506 36.0681 55.4053 36.0734 54.9113C36.093 53.0845 36.0902 51.2575 36.0875 49.4306C36.0865 48.7867 36.0855 48.1429 36.0855 47.4991ZM37.2727 45.0771L37.2727 45.0855C37.2737 45.8418 37.2747 46.5982 37.2686 47.3544C37.2662 47.6408 37.3173 47.8089 37.6661 47.804C38.2239 47.7962 38.7822 47.7994 39.3405 47.8027H39.3406H39.3406H39.3407H39.3407H39.3408H39.3408H39.3409H39.341H39.341C40.3353 47.8084 41.3293 47.8142 42.3199 47.7575C44.3784 47.6397 45.6327 46.3386 45.684 44.4218C45.7399 42.3316 44.6719 41.0582 42.5393 40.7777C41.5082 40.6421 40.4708 40.6628 39.4332 40.6835C38.8372 40.6954 38.2411 40.7072 37.646 40.6895C37.2776 40.6785 37.27 40.9048 37.2707 41.1674C37.2725 41.8914 37.2723 42.6155 37.2721 43.3395L37.2719 44.2303C37.2719 44.5126 37.2723 44.7948 37.2727 45.0771ZM32.0567 75.8953C32.5404 74.3365 32.6139 72.7317 32.6139 71.1172C32.6122 69.5038 32.5511 67.8974 32.0623 66.3403C31.2172 63.6486 28.8885 62.2912 26.2056 62.9809C24.2244 63.4902 23.2133 64.9479 22.773 66.8279C22.175 69.3806 22.2287 71.9656 22.5978 74.5457C22.7792 75.8146 23.1951 76.9965 24.0729 77.976C26.0913 80.2284 30.7524 80.0988 32.0567 75.8953ZM31.4343 71.0034L31.4367 71.1789L31.4341 71.334C31.4106 72.7716 31.387 74.2104 30.9491 75.5981C30.2893 77.6886 28.645 78.6484 26.5504 78.174C25.2758 77.8854 24.5299 77.0175 24.1001 75.8374C23.6829 74.6919 23.5922 73.4936 23.5638 72.2883L23.5634 72.2744C23.5232 70.5662 23.4828 68.8545 23.867 67.1748C24.1904 65.7608 24.8242 64.5548 26.3342 64.0926C28.4425 63.4474 30.2883 64.4688 30.9562 66.6368C31.395 68.0611 31.4147 69.5331 31.4343 71.0034ZM84.5097 47.4583C84.5271 48.8478 84.5622 50.2369 85.0323 51.5661C85.7159 53.4991 87.4555 54.6773 89.5113 54.6207C91.539 54.565 93.1002 53.3789 93.6352 51.4878C93.6408 51.4678 93.6466 51.4479 93.6525 51.428L93.6526 51.4277C93.6696 51.3695 93.6866 51.3113 93.699 51.2521C93.8252 50.6502 94.2614 50.4173 94.8647 50.6005C95.0736 50.664 95.0447 50.7848 95.0164 50.9027L95.0164 50.9028C95.0095 50.9317 95.0026 50.9605 94.9993 50.9882C94.6891 53.5875 92.5032 55.6292 89.8927 55.7632C86.5582 55.9343 84.1191 54.0505 83.5403 50.7638C83.1232 48.3946 83.0973 46.005 83.6745 43.6536C84.2594 41.271 86.1635 39.6048 88.511 39.3124C91.0571 38.9953 93.2171 40.0252 94.3613 42.1008C94.6902 42.6973 94.8733 43.3396 94.9972 44.0064C95.0543 44.3136 95.0122 44.4358 94.658 44.4615C94.0729 44.504 93.7889 44.3995 93.6568 43.7084C93.3006 41.8451 91.7244 40.5757 89.7967 40.4348C87.6729 40.2795 85.9033 41.3195 85.1276 43.1872C84.5654 44.5409 84.538 45.9736 84.5107 47.4058L84.5097 47.4583ZM31.3617 54.7164C31.8357 55.5048 32.39 55.6133 33.1637 55.4456C33.1645 55.2876 33.0801 55.1736 32.9976 55.0621C32.9729 55.0288 32.9484 54.9957 32.9264 54.9617L32.2664 53.9423C30.9564 51.9188 29.6465 49.8953 28.3193 47.8832C28.0923 47.5391 28.0909 47.3094 28.3228 46.9663C29.6996 44.9298 31.0569 42.88 32.4141 40.8303L32.4148 40.8293L32.4153 40.8285L32.8374 40.1912C32.8656 40.1486 32.8976 40.1074 32.93 40.0658L32.9301 40.0657L32.9301 40.0656C33.0332 39.933 33.14 39.7957 33.1419 39.5899C32.4423 39.4774 31.8766 39.4882 31.4653 40.251C31.1155 40.8995 30.692 41.5081 30.2684 42.1168L30.2684 42.1168L30.2684 42.1168C30.0845 42.381 29.9007 42.6451 29.7229 42.9125L28.089 45.3704L27.3629 46.4627C27.309 46.3859 27.2584 46.3149 27.2104 46.2475L27.2104 46.2473L27.2101 46.247C27.1142 46.1123 27.0287 45.9921 26.947 45.8692C26.2678 44.8477 25.5891 43.8259 24.9104 42.804C24.3363 41.9395 23.7621 41.075 23.1876 40.2108C22.6941 39.4683 22.4424 39.3842 21.5149 39.6626C21.5463 39.7135 21.5768 39.764 21.6071 39.8141L21.6072 39.8142L21.6072 39.8143L21.6073 39.8144L21.6075 39.8148C21.6718 39.9211 21.7348 40.0253 21.8018 40.1267C22.1398 40.6379 22.4774 41.1494 22.815 41.6609C23.9834 43.4313 25.1519 45.2018 26.3373 46.9607C26.5711 47.3076 26.5699 47.5343 26.3422 47.8767C25.5062 49.1342 24.6867 50.4026 23.8672 51.6711L23.8653 51.674C23.6005 52.0839 23.3357 52.4937 23.0703 52.9032C22.7003 53.4742 22.3311 54.0458 21.9557 54.6271L21.4347 55.4336C22.2272 55.6085 22.7516 55.513 23.2013 54.7671C24.0978 53.2799 25.0554 51.8294 26.0128 50.379C26.3256 49.9052 26.6384 49.4314 26.949 48.9563C26.9733 48.9192 26.9949 48.8791 27.0168 48.8384C27.091 48.7006 27.1691 48.5557 27.3671 48.4952C27.7472 49.0823 28.1313 49.6675 28.5155 50.253C29.4834 51.7277 30.4524 53.2041 31.3617 54.7164ZM36.8754 77.911C37.0356 78.016 37.207 78.0043 37.3752 77.9929C37.4285 77.9892 37.4815 77.9856 37.5336 77.9857C37.9112 77.9867 38.2888 77.9879 38.6665 77.9891C40.4935 77.9949 42.3206 78.0007 44.1473 77.977C44.6543 77.9704 44.6889 78.1841 44.6972 78.5916C44.7058 79.0189 44.5788 79.1429 44.1484 79.1398C42.7721 79.1298 41.3958 79.1295 40.0196 79.1292C38.783 79.129 37.5464 79.1287 36.3099 79.1214C36.2333 79.121 36.1449 79.134 36.0544 79.1474C35.7929 79.1859 35.5128 79.2272 35.4422 78.9547C35.3281 78.5152 35.2594 78.0032 35.6205 77.56C36.5746 76.3887 37.5175 75.2082 38.4604 74.0278L38.4608 74.0274C38.7788 73.6293 39.0968 73.2312 39.4152 72.8334C39.9126 72.2121 40.4094 71.5902 40.9062 70.9683C41.1991 70.6017 41.492 70.235 41.785 69.8685C42.1823 69.3715 42.5032 68.8303 42.7456 68.2413C43.2205 67.0876 43.2632 65.9505 42.4199 64.9586C41.5487 63.934 40.357 63.7757 39.1147 64.0271C37.7363 64.306 36.9235 65.2797 36.6764 66.82C36.5471 67.6255 36.539 67.625 35.7597 67.5763L35.7353 67.5748C35.4342 67.556 35.3712 67.4436 35.3718 67.1637C35.3764 64.9547 37.0836 63.0617 39.2827 62.8591C39.8317 62.8085 40.3853 62.7978 40.9308 62.8997C43.5433 63.3878 44.856 65.6764 44.0006 68.2509C43.7076 69.133 43.2229 69.9067 42.6424 70.6275C40.8378 72.8684 39.0374 75.1126 37.2401 77.3593C37.208 77.3995 37.1733 77.4384 37.1383 77.4774C37.0263 77.6029 36.9122 77.7305 36.8754 77.911ZM13.5898 77.989H11.9366C12.0021 77.9029 12.053 77.8353 12.095 77.7795C12.1655 77.6859 12.2109 77.6256 12.2582 77.5667C12.7073 77.0069 13.1562 76.447 13.6052 75.8871L13.6059 75.8863L13.6065 75.8855L13.6071 75.8847L13.6078 75.8839C14.9832 74.1687 16.3586 72.4536 17.7377 70.7414C18.3957 69.9246 18.9569 69.0568 19.2493 68.0383C19.7467 66.3055 19.2596 64.5562 17.9266 63.6488C16.3874 62.6011 14.6971 62.5347 13.0298 63.2733C11.4464 63.9748 10.73 65.3284 10.5861 67.0182L10.5851 67.0293C10.5587 67.3395 10.5348 67.6197 10.977 67.5639C11.0612 67.5532 11.1524 67.5613 11.2431 67.5692C11.5257 67.5941 11.8028 67.6185 11.8466 67.0753C12.047 64.5924 14.191 63.2841 16.5093 64.184C17.5623 64.5928 18.1966 65.4976 18.2358 66.6236C18.2796 67.885 17.7113 68.9108 16.9728 69.8572C16.2302 70.8088 15.4732 71.7491 14.7162 72.6894L14.7126 72.694C14.4089 73.0712 14.1051 73.4485 13.8024 73.8265C13.5407 74.1532 13.2796 74.4802 13.0184 74.8073L13.0178 74.8081L13.0175 74.8084C12.2862 75.7242 11.555 76.6399 10.8131 77.547C10.4514 77.9893 10.5417 78.5046 10.6432 78.9462C10.7085 79.2303 10.9885 79.1875 11.249 79.1477C11.3387 79.134 11.4261 79.1207 11.5016 79.1211C12.7344 79.1287 13.9672 79.1289 15.2001 79.1292C16.5591 79.1294 17.9181 79.1296 19.2771 79.1397C19.7233 79.143 19.8831 79.0333 19.8821 78.5631C19.881 78.1009 19.7337 77.9749 19.2836 77.98C17.8943 77.996 16.5048 77.9935 15.1152 77.9909C14.6067 77.99 14.0983 77.9891 13.5898 77.989ZM54.357 63.187L47.9207 74.1299C47.9818 74.2777 48.0765 74.2729 48.1597 74.2686C48.1735 74.2679 48.187 74.2673 48.1999 74.2673C48.776 74.2684 49.3521 74.2678 49.9281 74.2673C51.1492 74.2663 52.3703 74.2652 53.5913 74.2792C53.9976 74.2838 54.1156 74.1579 54.1091 73.7589C54.0996 73.1766 54.1017 72.594 54.1038 72.0115C54.1064 71.2869 54.109 70.5623 54.0892 69.8383C54.0756 69.3409 54.3156 69.333 54.6805 69.3414L54.7112 69.342L54.7596 69.3427C55.0671 69.3465 55.3058 69.3494 55.2933 69.8246C55.2766 70.4603 55.2796 71.0966 55.2825 71.7328V71.7332C55.2854 72.3631 55.2882 72.9931 55.2721 73.6225C55.2595 74.1141 55.3696 74.3508 55.9038 74.2768C56.0933 74.2505 56.2876 74.2577 56.4817 74.2649H56.4819H56.4821C56.5546 74.2676 56.6272 74.2703 56.6994 74.2712C56.7643 74.272 56.8297 74.269 56.8938 74.2661C57.2508 74.2496 57.5705 74.2349 57.5608 74.8916C57.5517 75.5102 57.2544 75.4954 56.9196 75.4788C56.8585 75.4758 56.7962 75.4727 56.7341 75.4734C56.6537 75.4743 56.5732 75.4758 56.4926 75.4773C56.2256 75.4824 55.9584 75.4875 55.693 75.4689C55.3607 75.4457 55.2746 75.5888 55.279 75.8954C55.2842 76.255 55.2815 76.6148 55.2788 76.9746C55.2747 77.5137 55.2707 78.0527 55.2933 78.5906C55.3147 79.0996 55.0738 79.1405 54.6663 79.142C54.27 79.1435 54.0724 79.0782 54.0911 78.614C54.1097 78.151 54.1063 77.6871 54.1028 77.2232C54.0998 76.8087 54.0967 76.3942 54.1094 75.9802C54.1217 75.5784 53.9959 75.4615 53.5929 75.4653C51.5713 75.4847 49.5494 75.4797 47.5277 75.4684C47.4414 75.4679 47.3417 75.4799 47.2403 75.4922C46.9712 75.5246 46.6901 75.5585 46.6157 75.3639C46.451 74.9335 46.4271 74.3984 46.6786 73.9439C46.9331 73.4839 47.2017 73.0317 47.4703 72.5795L47.4718 72.577C47.5673 72.4161 47.6629 72.2553 47.7577 72.0942C49.3515 69.387 50.9456 66.6802 52.5401 63.9735C52.9179 63.3322 53.5235 63.07 54.357 63.187ZM79.671 49.4523C79.672 48.8107 79.673 48.1691 79.673 47.5275C79.673 46.8869 79.6721 46.2462 79.6711 45.6056C79.6683 43.7982 79.6655 41.9908 79.6849 40.1836C79.6903 39.6773 79.5548 39.5275 79.044 39.5288C78.5536 39.5301 78.4351 39.6825 78.4366 40.1533C78.452 45.0697 78.4524 49.9862 78.4361 54.9026C78.4345 55.3784 78.5616 55.5142 79.0443 55.5189C79.5554 55.524 79.691 55.3818 79.6853 54.8715C79.6651 53.0653 79.6681 51.2588 79.671 49.4523ZM99.5261 47.5963C99.5261 48.2446 99.5249 48.893 99.5236 49.5414C99.5202 51.3411 99.5167 53.1408 99.5398 54.9401C99.5468 55.4831 99.3103 55.5056 98.8903 55.5121C98.4671 55.5187 98.2857 55.4492 98.2876 54.9562C98.3069 50.0194 98.3058 45.0825 98.2891 40.1457C98.2874 39.663 98.426 39.5224 98.9051 39.5317C99.354 39.5404 99.5437 39.6189 99.5382 40.1299C99.5184 41.9677 99.5213 43.8056 99.5241 45.6436C99.5251 46.2945 99.5261 46.9454 99.5261 47.5963ZM107.217 37.8582C107.273 37.9698 107.33 38.0826 107.503 38.0748C107.627 38.0036 107.751 37.9339 107.874 37.862C108.096 37.7322 108.317 37.6027 108.539 37.4731C109.266 37.0485 109.993 36.6239 110.716 36.1932C110.758 36.1684 110.81 36.1452 110.863 36.1214C111.022 36.0501 111.194 35.9731 111.146 35.8301C111.063 35.5798 110.894 35.3561 110.727 35.1353C110.683 35.0772 110.64 35.0193 110.598 34.9612C110.545 34.8885 110.475 34.9455 110.419 34.9912C110.409 34.9998 110.398 35.0081 110.389 35.0149C109.759 35.4754 109.13 35.9371 108.501 36.3988C108.063 36.7201 107.625 37.0414 107.187 37.3623C107.043 37.4677 107.016 37.5923 107.133 37.7227C107.167 37.7608 107.192 37.8094 107.217 37.8582Z" fill="black"/>
</svg>
